%
M48
M72
T01C0.0276
T02C0.0320
T03C0.0354
T04C0.0360
T05C0.0362
T06C0.0394
T07C0.0400
T08C0.0472
T09C0.0512
T10C0.0590
T11C0.0630
T12C0.0906
T13C0.1299
T14C0.1300
%
T01
X3624Y2301
X6374Y2051
X6784Y2351
X7574Y2401
X7574Y3001
X8684Y3331
X9524Y3401
X9624Y4301
X8624Y4801
X8714Y5281
X8124Y5101
X6674Y4301
X5774Y5451
X6374Y7051
X5274Y8351
X5774Y8601
X6274Y8851
X5324Y9051
X11687Y5813
X12074Y6101
X12624Y6501
X13124Y6501
X13624Y6501
X14124Y6501
X14999Y5876
X17249Y8251
X18374Y7351
X20174Y7451
X22474Y7251
X22924Y7251
X22874Y7851
X22374Y8251
X22374Y9251
X24299Y10501
X24474Y11001
X24124Y12251
X24549Y12601
X26874Y11751
X28624Y11001
X30124Y12651
X32824Y10601
X32824Y9801
X32824Y9001
X32654Y8121
X33204Y8121
X33874Y8751
X34374Y8051
X35374Y8051
X36124Y9251
X35124Y10251
X33874Y10001
X33874Y10751
X33874Y11501
X33874Y12351
X33374Y13251
X33374Y14251
X33374Y15001
X33374Y15751
X33374Y16501
X33374Y17251
X34124Y17751
X34874Y17751
X36124Y17751
X37124Y18001
X37874Y18001
X37874Y16751
X38374Y16001
X39374Y16001
X40374Y16001
X41374Y16001
X41874Y15501
X41874Y14251
X41874Y13001
X41874Y11751
X41874Y10251
X40874Y9751
X41924Y9151
X41384Y8651
X40654Y8641
X40024Y8251
X39624Y7501
X38374Y8051
X36874Y8051
X38374Y9751
X39374Y9251
X37874Y11001
X36624Y12001
X35124Y12251
X35124Y14251
X36624Y14251
X38024Y12951
X39624Y12751
X40624Y13751
X39874Y14501
X38474Y14801
X36624Y16001
X35124Y16001
X32324Y19751
X30224Y20101
X28224Y19801
X27124Y18351
X26574Y18351
X27874Y17401
X27424Y16901
X27624Y15251
X26824Y15301
X24674Y16901
X22624Y15501
X22524Y14851
X22124Y14526
X21624Y13776
X21199Y14201
X20124Y14251
X20374Y12751
X20374Y11176
X18674Y14376
X17074Y14451
X16324Y15101
X15299Y16376
X15249Y17001
X16199Y16751
X13774Y16876
X13724Y16301
X13524Y15501
X13724Y15001
X15574Y13351
X16424Y11501
X13474Y10551
X11674Y12951
X19374Y17001
X21724Y15351
X22074Y18301
X27524Y8501
X28874Y5401
X28074Y4401
X28324Y4001
X27724Y4051
X27374Y4401
X27074Y4051
X26824Y4421
X26844Y3601
X27374Y3601
X30374Y1376
X30874Y2901
X32249Y1751
X34374Y1251
X33699Y3826
X33824Y4501
X32624Y5151
X35524Y4651
X35974Y3751
X36937Y3763
X38249Y2976
X38874Y4276
X39374Y4501
X39824Y2151
X41974Y8351
X40124Y11501
X33874Y9401
X23124Y6001
X19524Y2351
X18524Y3651
X12124Y4301
X34999Y24826
X36674Y26101
X36874Y27701
X39124Y27326
X39499Y28201
X41249Y29576
X38624Y30026
X37749Y30326
X36374Y30451
X34267Y30211
X35749Y32826
X37749Y32326
X40499Y33576
X40374Y36826
X34624Y27201
X39924Y20401
X39924Y19901
X39924Y19401
X41824Y19401
X41824Y19901
X41824Y20401
X28024Y34701
X27274Y35201
X26774Y36201
X25024Y36951
X24524Y37701
X24524Y38451
X24024Y38451
X23524Y38451
X23024Y38451
X22524Y38451
X22024Y38451
X21524Y38451
X23024Y37701
X22524Y36951
X23024Y36201
X22524Y35451
X23774Y35451
X24524Y36201
X25024Y35451
X23774Y36951
X25024Y38451
X25524Y38451
X26024Y38451
X21524Y34201
X21524Y32951
X21524Y32201
X14524Y37351
X8374Y37451
X8124Y35951
X5874Y37451
X5124Y36701
T02
X8124Y34951
X8874Y34451
X8124Y30951
X8124Y29951
X9374Y29301
X11374Y29301
X12874Y29701
X12874Y28701
X13374Y30951
X13374Y32951
X12874Y34451
X8124Y25951
X24374Y9235
X24374Y8251
X24374Y7267
X33224Y19451
X34224Y19451
X35224Y19451
X33624Y27451
X30274Y29701
X30274Y32701
X33624Y32076
X33624Y31451
X34349Y33451
X33624Y36076
X34249Y36201
X34624Y38951
X38249Y36201
X38349Y33451
X38624Y38951
T03
X31624Y20251
X31624Y19251
X31624Y18251
X31624Y17251
X31624Y16251
X31624Y15251
X31624Y14251
X31624Y13251
X31624Y12251
X31624Y11251
X31624Y10251
X31624Y9251
X31624Y8251
X31624Y7251
X31624Y6251
X31624Y5251
X31624Y4251
X31624Y3251
X31624Y2251
X31624Y1251
X25624Y1251
X25624Y2251
X25624Y3251
X25624Y4251
X25624Y5251
X25624Y6251
X25624Y7251
X25624Y8251
X25624Y9251
X25624Y10251
X25624Y11251
X25624Y12251
X25624Y13251
X25624Y14251
X25624Y15251
X25624Y16251
X25624Y17251
X25624Y18251
X25624Y19251
X25624Y20251
T04
X34749Y34826
X34999Y37576
X37999Y37576
X37749Y34826
T05
X15557Y31943
X14770Y31943
X14770Y30959
X15557Y30959
T06
X12124Y30451
X11124Y30451
X10124Y30451
X9124Y30451
X9124Y33451
X10124Y33451
X11124Y33451
X12124Y33451
X13024Y35851
X14024Y35851
X15024Y35851
X16024Y35851
X16024Y38851
X15024Y38851
X14024Y38851
X13024Y38851
T07
X10874Y38451
X9874Y38451
X8874Y38451
X7874Y38451
X6874Y38451
X5874Y38451
X4874Y38451
X3874Y38451
X6933Y31382
X6933Y30291
X6933Y29201
X6933Y28110
X6933Y27020
X5815Y27567
X5815Y28657
X5815Y29744
X5815Y30835
X18474Y19751
X18474Y18751
X18474Y17751
X17874Y13751
X17874Y12751
X17874Y11251
X17874Y10251
X15374Y10251
X15374Y11251
X15374Y12251
X11124Y8501
X11124Y7501
X8874Y7501
X8874Y6501
X8874Y8501
X10374Y4751
X11374Y4751
X12874Y4751
X13874Y4751
X14874Y4751
X15874Y4751
X16874Y4751
X17874Y4751
X18874Y4751
X19874Y4751
X21124Y4751
X22124Y4751
X23124Y4751
X24124Y4751
X24124Y2401
X23124Y2401
X21624Y2401
X20624Y2401
X18224Y2401
X17224Y2401
X15674Y2401
X14674Y2401
X13674Y2401
X12224Y2401
X11224Y2401
X10224Y2401
X9224Y2401
X8224Y2401
X4024Y3051
X4024Y4051
X28524Y23701
X28524Y24701
X28524Y26451
X28524Y27451
X32374Y28576
X32374Y29576
X32374Y30576
X32374Y32826
X32374Y33826
X32374Y34826
X32124Y36701
X32124Y37701
X32124Y38701
X41374Y38826
X41374Y37826
X41374Y36326
X41374Y35326
X41124Y27701
X41124Y26701
X41124Y25701
X41124Y24701
X41124Y23701
X38124Y19801
X37124Y19801
X36124Y19801
X32624Y24076
X32624Y25076
X32624Y26076
X20524Y32701
X19524Y32701
X19524Y35351
X20524Y35351
X20524Y37951
X19524Y37951
T08
X17609Y27669
X16624Y27669
X14656Y25701
X16624Y23732
X17609Y23732
X20156Y20635
X20156Y19651
X22124Y17682
X24093Y19651
X24093Y20635
X33874Y6251
X34874Y6251
X35874Y6251
X36874Y6251
X37874Y6251
X38874Y6251
X39874Y6251
X40874Y6251
X41874Y6251
X41874Y18251
X40874Y18251
X39874Y18251
T09
X28524Y33951
X27524Y37951
X29524Y37951
X11874Y23701
X9874Y23701
X10874Y27701
T10
X26024Y29951
X26024Y23951
T11
X22124Y19651
X21140Y17682
X20156Y17682
X23109Y17682
X24093Y17682
X16624Y25701
X14656Y26685
X14656Y27669
X14656Y24717
X14656Y23732
T12
X16624Y29081
X16624Y33821
T13
X15874Y18251
X28624Y18251
X34874Y3251
X6274Y3301
T14
X6374Y24280
X6374Y34122
M30
