G75*
G70*
%OFA0B0*%
%FSLAX24Y24*%
%IPPOS*%
%LPD*%
%AMOC8*
5,1,8,0,0,1.08239X$1,22.5*
%
%ADD10C,0.0060*%
%ADD11C,0.0080*%
%ADD12C,0.0160*%
%ADD13C,0.0039*%
%ADD14C,0.0050*%
%ADD15C,0.0020*%
%ADD16C,0.0030*%
%ADD17R,0.0050X0.0200*%
%ADD18R,0.0300X0.0340*%
%ADD19R,0.0236X0.0472*%
%ADD20R,0.0709X0.0236*%
%ADD21C,0.0040*%
%ADD22C,0.0098*%
%ADD23C,0.0100*%
%ADD24R,0.0620X0.0240*%
%ADD25R,0.0236X0.0709*%
D10*
X005004Y004651D02*
X005004Y006351D01*
X005006Y006374D01*
X005011Y006397D01*
X005020Y006419D01*
X005033Y006439D01*
X005048Y006457D01*
X005066Y006472D01*
X005086Y006485D01*
X005108Y006494D01*
X005131Y006499D01*
X005154Y006501D01*
X006294Y006501D01*
X006317Y006499D01*
X006340Y006494D01*
X006362Y006485D01*
X006382Y006472D01*
X006400Y006457D01*
X006415Y006439D01*
X006428Y006419D01*
X006437Y006397D01*
X006442Y006374D01*
X006444Y006351D01*
X006444Y004651D01*
X006442Y004628D01*
X006437Y004605D01*
X006428Y004583D01*
X006415Y004563D01*
X006400Y004545D01*
X006382Y004530D01*
X006362Y004517D01*
X006340Y004508D01*
X006317Y004503D01*
X006294Y004501D01*
X005924Y004501D01*
X005524Y004501D01*
X005154Y004501D01*
X005131Y004503D01*
X005108Y004508D01*
X005086Y004517D01*
X005066Y004530D01*
X005048Y004545D01*
X005033Y004563D01*
X005020Y004583D01*
X005011Y004605D01*
X005006Y004628D01*
X005004Y004651D01*
X005524Y004501D02*
X005526Y004528D01*
X005531Y004555D01*
X005541Y004581D01*
X005553Y004605D01*
X005569Y004627D01*
X005587Y004647D01*
X005609Y004664D01*
X005632Y004679D01*
X005657Y004689D01*
X005683Y004697D01*
X005710Y004701D01*
X005738Y004701D01*
X005765Y004697D01*
X005791Y004689D01*
X005816Y004679D01*
X005839Y004664D01*
X005861Y004647D01*
X005879Y004627D01*
X005895Y004605D01*
X005907Y004581D01*
X005917Y004555D01*
X005922Y004528D01*
X005924Y004501D01*
X005974Y007351D02*
X005574Y007351D01*
X005204Y007351D01*
X005181Y007353D01*
X005158Y007358D01*
X005136Y007367D01*
X005116Y007380D01*
X005098Y007395D01*
X005083Y007413D01*
X005070Y007433D01*
X005061Y007455D01*
X005056Y007478D01*
X005054Y007501D01*
X005054Y009201D01*
X005056Y009224D01*
X005061Y009247D01*
X005070Y009269D01*
X005083Y009289D01*
X005098Y009307D01*
X005116Y009322D01*
X005136Y009335D01*
X005158Y009344D01*
X005181Y009349D01*
X005204Y009351D01*
X006344Y009351D01*
X006367Y009349D01*
X006390Y009344D01*
X006412Y009335D01*
X006432Y009322D01*
X006450Y009307D01*
X006465Y009289D01*
X006478Y009269D01*
X006487Y009247D01*
X006492Y009224D01*
X006494Y009201D01*
X006494Y007501D01*
X006492Y007478D01*
X006487Y007455D01*
X006478Y007433D01*
X006465Y007413D01*
X006450Y007395D01*
X006432Y007380D01*
X006412Y007367D01*
X006390Y007358D01*
X006367Y007353D01*
X006344Y007351D01*
X005974Y007351D01*
X005972Y007378D01*
X005967Y007405D01*
X005957Y007431D01*
X005945Y007455D01*
X005929Y007477D01*
X005911Y007497D01*
X005889Y007514D01*
X005866Y007529D01*
X005841Y007539D01*
X005815Y007547D01*
X005788Y007551D01*
X005760Y007551D01*
X005733Y007547D01*
X005707Y007539D01*
X005682Y007529D01*
X005659Y007514D01*
X005637Y007497D01*
X005619Y007477D01*
X005603Y007455D01*
X005591Y007431D01*
X005581Y007405D01*
X005576Y007378D01*
X005574Y007351D01*
X005954Y015231D02*
X006395Y015231D01*
X006248Y015378D01*
X006395Y015524D01*
X005954Y015524D01*
X005954Y015691D02*
X006248Y015691D01*
X006395Y015838D01*
X006248Y015985D01*
X005954Y015985D01*
X005954Y016151D02*
X005954Y016298D01*
X005954Y016225D02*
X006395Y016225D01*
X006395Y016298D02*
X006395Y016151D01*
X006175Y015985D02*
X006175Y015691D01*
X006395Y016458D02*
X005954Y016458D01*
X005954Y016752D02*
X006395Y016752D01*
X006395Y016458D02*
X005954Y016752D01*
X005954Y017379D02*
X005954Y017599D01*
X006028Y017673D01*
X006101Y017673D01*
X006175Y017599D01*
X006175Y017379D01*
X006395Y017379D02*
X006395Y017599D01*
X006321Y017673D01*
X006248Y017673D01*
X006175Y017599D01*
X006321Y017839D02*
X006028Y017839D01*
X005954Y017913D01*
X005954Y018060D01*
X006028Y018133D01*
X006321Y018133D01*
X006395Y018060D01*
X006395Y017913D01*
X006321Y017839D01*
X006395Y017379D02*
X005954Y017379D01*
X005954Y018300D02*
X006248Y018300D01*
X006395Y018447D01*
X006248Y018593D01*
X005954Y018593D01*
X005954Y018760D02*
X006395Y018760D01*
X006395Y018980D01*
X006321Y019054D01*
X006175Y019054D01*
X006101Y018980D01*
X006101Y018760D01*
X006101Y018907D02*
X005954Y019054D01*
X005954Y019221D02*
X005954Y019441D01*
X006028Y019514D01*
X006321Y019514D01*
X006395Y019441D01*
X006395Y019221D01*
X005954Y019221D01*
X006175Y018593D02*
X006175Y018300D01*
X004795Y023359D02*
X004501Y023359D01*
X004354Y023506D01*
X004501Y023653D01*
X004795Y023653D01*
X004648Y024280D02*
X004795Y024427D01*
X004354Y024427D01*
X004354Y024573D02*
X004354Y024280D01*
X004095Y024143D02*
X003654Y023850D01*
X003728Y023683D02*
X003654Y023609D01*
X003654Y023463D01*
X003728Y023389D01*
X003875Y023389D02*
X003948Y023536D01*
X003948Y023609D01*
X003875Y023683D01*
X003728Y023683D01*
X003875Y023389D02*
X004095Y023389D01*
X004095Y023683D01*
X003948Y024310D02*
X004095Y024457D01*
X003654Y024457D01*
X003654Y024310D02*
X003654Y024604D01*
X003728Y024770D02*
X004021Y025064D01*
X003728Y025064D01*
X003654Y024990D01*
X003654Y024844D01*
X003728Y024770D01*
X004021Y024770D01*
X004095Y024844D01*
X004095Y024990D01*
X004021Y025064D01*
X004354Y025044D02*
X004354Y025190D01*
X004428Y025264D01*
X004721Y025264D01*
X004428Y024970D01*
X004354Y025044D01*
X004428Y024970D02*
X004721Y024970D01*
X004795Y025044D01*
X004795Y025190D01*
X004721Y025264D01*
X004428Y024814D02*
X004354Y024814D01*
X004354Y024740D01*
X004428Y024740D01*
X004428Y024814D01*
X014554Y014801D02*
X014924Y014801D01*
X015324Y014801D01*
X015694Y014801D01*
X015717Y014799D01*
X015740Y014794D01*
X015762Y014785D01*
X015782Y014772D01*
X015800Y014757D01*
X015815Y014739D01*
X015828Y014719D01*
X015837Y014697D01*
X015842Y014674D01*
X015844Y014651D01*
X015844Y012951D01*
X015842Y012928D01*
X015837Y012905D01*
X015828Y012883D01*
X015815Y012863D01*
X015800Y012845D01*
X015782Y012830D01*
X015762Y012817D01*
X015740Y012808D01*
X015717Y012803D01*
X015694Y012801D01*
X014554Y012801D01*
X014531Y012803D01*
X014508Y012808D01*
X014486Y012817D01*
X014466Y012830D01*
X014448Y012845D01*
X014433Y012863D01*
X014420Y012883D01*
X014411Y012905D01*
X014406Y012928D01*
X014404Y012951D01*
X014404Y014651D01*
X014406Y014674D01*
X014411Y014697D01*
X014420Y014719D01*
X014433Y014739D01*
X014448Y014757D01*
X014466Y014772D01*
X014486Y014785D01*
X014508Y014794D01*
X014531Y014799D01*
X014554Y014801D01*
X014924Y014801D02*
X014926Y014774D01*
X014931Y014747D01*
X014941Y014721D01*
X014953Y014697D01*
X014969Y014675D01*
X014987Y014655D01*
X015009Y014638D01*
X015032Y014623D01*
X015057Y014613D01*
X015083Y014605D01*
X015110Y014601D01*
X015138Y014601D01*
X015165Y014605D01*
X015191Y014613D01*
X015216Y014623D01*
X015239Y014638D01*
X015261Y014655D01*
X015279Y014675D01*
X015295Y014697D01*
X015307Y014721D01*
X015317Y014747D01*
X015322Y014774D01*
X015324Y014801D01*
X019904Y014911D02*
X019904Y010091D01*
X019906Y010068D01*
X019911Y010045D01*
X019920Y010023D01*
X019933Y010003D01*
X019948Y009985D01*
X019966Y009970D01*
X019986Y009957D01*
X020008Y009948D01*
X020031Y009943D01*
X020054Y009941D01*
X022694Y009941D01*
X022717Y009943D01*
X022740Y009948D01*
X022762Y009957D01*
X022782Y009970D01*
X022800Y009985D01*
X022815Y010003D01*
X022828Y010023D01*
X022837Y010045D01*
X022842Y010068D01*
X022844Y010091D01*
X022844Y014911D01*
X022842Y014934D01*
X022837Y014957D01*
X022828Y014979D01*
X022815Y014999D01*
X022800Y015017D01*
X022782Y015032D01*
X022762Y015045D01*
X022740Y015054D01*
X022717Y015059D01*
X022694Y015061D01*
X021874Y015061D01*
X020874Y015061D01*
X020054Y015061D01*
X020031Y015059D01*
X020008Y015054D01*
X019986Y015045D01*
X019966Y015032D01*
X019948Y015017D01*
X019933Y014999D01*
X019920Y014979D01*
X019911Y014957D01*
X019906Y014934D01*
X019904Y014911D01*
X020874Y015061D02*
X020876Y015017D01*
X020882Y014974D01*
X020891Y014932D01*
X020904Y014890D01*
X020921Y014850D01*
X020941Y014811D01*
X020964Y014774D01*
X020991Y014740D01*
X021020Y014707D01*
X021053Y014678D01*
X021087Y014651D01*
X021124Y014628D01*
X021163Y014608D01*
X021203Y014591D01*
X021245Y014578D01*
X021287Y014569D01*
X021330Y014563D01*
X021374Y014561D01*
X021418Y014563D01*
X021461Y014569D01*
X021503Y014578D01*
X021545Y014591D01*
X021585Y014608D01*
X021624Y014628D01*
X021661Y014651D01*
X021695Y014678D01*
X021728Y014707D01*
X021757Y014740D01*
X021784Y014774D01*
X021807Y014811D01*
X021827Y014850D01*
X021844Y014890D01*
X021857Y014932D01*
X021866Y014974D01*
X021872Y015017D01*
X021874Y015061D01*
X028304Y010314D02*
X028451Y010167D01*
X028451Y010240D02*
X028451Y010020D01*
X028304Y010020D02*
X028745Y010020D01*
X028745Y010240D01*
X028671Y010314D01*
X028525Y010314D01*
X028451Y010240D01*
X028745Y009854D02*
X028745Y009560D01*
X028745Y009707D02*
X028304Y009707D01*
X028304Y009393D02*
X028745Y009393D01*
X028745Y009100D02*
X028304Y009100D01*
X028378Y008933D02*
X028304Y008859D01*
X028304Y008713D01*
X028378Y008639D01*
X028671Y008639D01*
X028745Y008713D01*
X028745Y008859D01*
X028671Y008933D01*
X028745Y009100D02*
X028304Y009393D01*
X028745Y008064D02*
X028745Y007770D01*
X028745Y007917D02*
X028304Y007917D01*
X028525Y007457D02*
X028525Y007310D01*
X028525Y007143D02*
X028525Y006850D01*
X028451Y006683D02*
X028378Y006683D01*
X028304Y006609D01*
X028304Y006463D01*
X028378Y006389D01*
X028525Y006463D02*
X028525Y006609D01*
X028451Y006683D01*
X028671Y006683D02*
X028745Y006609D01*
X028745Y006463D01*
X028671Y006389D01*
X028598Y006389D01*
X028525Y006463D01*
X028304Y006850D02*
X028745Y006850D01*
X028745Y007143D02*
X028304Y007143D01*
X028304Y007310D02*
X028745Y007310D01*
X028745Y007604D01*
X028424Y004671D02*
X026724Y004671D01*
X026701Y004669D01*
X026678Y004664D01*
X026656Y004655D01*
X026636Y004642D01*
X026618Y004627D01*
X026603Y004609D01*
X026590Y004589D01*
X026581Y004567D01*
X026576Y004544D01*
X026574Y004521D01*
X026574Y003381D01*
X026576Y003358D01*
X026581Y003335D01*
X026590Y003313D01*
X026603Y003293D01*
X026618Y003275D01*
X026636Y003260D01*
X026656Y003247D01*
X026678Y003238D01*
X026701Y003233D01*
X026724Y003231D01*
X028424Y003231D01*
X028447Y003233D01*
X028470Y003238D01*
X028492Y003247D01*
X028512Y003260D01*
X028530Y003275D01*
X028545Y003293D01*
X028558Y003313D01*
X028567Y003335D01*
X028572Y003358D01*
X028574Y003381D01*
X028574Y003751D01*
X028574Y004151D01*
X028574Y004521D01*
X028572Y004544D01*
X028567Y004567D01*
X028558Y004589D01*
X028545Y004609D01*
X028530Y004627D01*
X028512Y004642D01*
X028492Y004655D01*
X028470Y004664D01*
X028447Y004669D01*
X028424Y004671D01*
X028574Y004151D02*
X028547Y004149D01*
X028520Y004144D01*
X028494Y004134D01*
X028470Y004122D01*
X028448Y004106D01*
X028428Y004088D01*
X028411Y004066D01*
X028396Y004043D01*
X028386Y004018D01*
X028378Y003992D01*
X028374Y003965D01*
X028374Y003937D01*
X028378Y003910D01*
X028386Y003884D01*
X028396Y003859D01*
X028411Y003836D01*
X028428Y003814D01*
X028448Y003796D01*
X028470Y003780D01*
X028494Y003768D01*
X028520Y003758D01*
X028547Y003753D01*
X028574Y003751D01*
X024563Y030281D02*
X024636Y030354D01*
X024563Y030281D02*
X024416Y030281D01*
X024342Y030354D01*
X024342Y030501D01*
X024416Y030574D01*
X024489Y030574D01*
X024636Y030501D01*
X024636Y030721D01*
X024342Y030721D01*
X024719Y030981D02*
X024573Y031128D01*
X024573Y031421D01*
X024866Y031421D02*
X024866Y031128D01*
X024719Y030981D01*
X023882Y030721D02*
X024176Y030281D01*
X023715Y030281D02*
X023422Y030281D01*
X023568Y030281D02*
X023568Y030721D01*
X023715Y030574D01*
X023652Y030981D02*
X023945Y030981D01*
X023799Y030981D02*
X023799Y031421D01*
X023945Y031274D01*
X023485Y031054D02*
X023412Y031054D01*
X023412Y030981D01*
X023485Y030981D01*
X023485Y031054D01*
X023255Y031054D02*
X022961Y031348D01*
X022961Y031054D01*
X023035Y030981D01*
X023182Y030981D01*
X023255Y031054D01*
X023255Y031348D01*
X023182Y031421D01*
X023035Y031421D01*
X022961Y031348D01*
X023035Y030721D02*
X022961Y030648D01*
X023255Y030354D01*
X023181Y030281D01*
X023035Y030281D01*
X022961Y030354D01*
X022961Y030648D01*
X023035Y030721D02*
X023181Y030721D01*
X023255Y030648D01*
X023255Y030354D01*
X008594Y035851D02*
X008594Y037551D01*
X008592Y037574D01*
X008587Y037597D01*
X008578Y037619D01*
X008565Y037639D01*
X008550Y037657D01*
X008532Y037672D01*
X008512Y037685D01*
X008490Y037694D01*
X008467Y037699D01*
X008444Y037701D01*
X007304Y037701D01*
X007281Y037699D01*
X007258Y037694D01*
X007236Y037685D01*
X007216Y037672D01*
X007198Y037657D01*
X007183Y037639D01*
X007170Y037619D01*
X007161Y037597D01*
X007156Y037574D01*
X007154Y037551D01*
X007154Y035851D01*
X007156Y035828D01*
X007161Y035805D01*
X007170Y035783D01*
X007183Y035763D01*
X007198Y035745D01*
X007216Y035730D01*
X007236Y035717D01*
X007258Y035708D01*
X007281Y035703D01*
X007304Y035701D01*
X007674Y035701D01*
X008074Y035701D01*
X008444Y035701D01*
X008467Y035703D01*
X008490Y035708D01*
X008512Y035717D01*
X008532Y035730D01*
X008550Y035745D01*
X008565Y035763D01*
X008578Y035783D01*
X008587Y035805D01*
X008592Y035828D01*
X008594Y035851D01*
X008074Y035701D02*
X008072Y035728D01*
X008067Y035755D01*
X008057Y035781D01*
X008045Y035805D01*
X008029Y035827D01*
X008011Y035847D01*
X007989Y035864D01*
X007966Y035879D01*
X007941Y035889D01*
X007915Y035897D01*
X007888Y035901D01*
X007860Y035901D01*
X007833Y035897D01*
X007807Y035889D01*
X007782Y035879D01*
X007759Y035864D01*
X007737Y035847D01*
X007719Y035827D01*
X007703Y035805D01*
X007691Y035781D01*
X007681Y035755D01*
X007676Y035728D01*
X007674Y035701D01*
D11*
X009216Y026961D02*
X009009Y026754D01*
X009009Y026341D01*
X009009Y026651D02*
X009423Y026651D01*
X009423Y026754D02*
X009423Y026341D01*
X009654Y026341D02*
X010067Y026341D01*
X010067Y026444D01*
X009654Y026858D01*
X009654Y026961D01*
X010067Y026961D01*
X010298Y026961D02*
X010505Y026961D01*
X010402Y026961D02*
X010402Y026444D01*
X010505Y026341D01*
X010608Y026341D01*
X010712Y026444D01*
X010943Y026341D02*
X011356Y026341D01*
X011356Y026961D01*
X010943Y026961D01*
X011149Y026651D02*
X011356Y026651D01*
X011587Y026651D02*
X011587Y026858D01*
X011691Y026961D01*
X012001Y026961D01*
X012001Y026341D01*
X012001Y026548D02*
X011691Y026548D01*
X011587Y026651D01*
X011794Y026548D02*
X011587Y026341D01*
X011637Y026011D02*
X012051Y025391D01*
X012282Y025391D02*
X012695Y025391D01*
X012695Y026011D01*
X012282Y026011D01*
X012051Y026011D02*
X011637Y025391D01*
X011356Y025111D02*
X011253Y025111D01*
X011253Y024491D01*
X011356Y024491D02*
X011149Y024491D01*
X010927Y024594D02*
X010823Y024698D01*
X010513Y024698D01*
X010513Y024801D02*
X010513Y024491D01*
X010823Y024491D01*
X010927Y024594D01*
X010823Y024904D02*
X010616Y024904D01*
X010513Y024801D01*
X010282Y024904D02*
X010075Y024904D01*
X010179Y025008D02*
X010179Y024594D01*
X010075Y024491D01*
X009852Y024594D02*
X009749Y024491D01*
X009542Y024491D01*
X009439Y024594D01*
X009439Y024801D01*
X009542Y024904D01*
X009749Y024904D01*
X009852Y024801D01*
X009852Y024594D01*
X009208Y024491D02*
X009208Y024904D01*
X009208Y024698D02*
X009001Y024904D01*
X008898Y024904D01*
X009423Y026754D02*
X009216Y026961D01*
X011587Y024904D02*
X011587Y024491D01*
X011897Y024491D01*
X012001Y024594D01*
X012001Y024904D01*
X012232Y024904D02*
X012542Y024904D01*
X012645Y024801D01*
X012645Y024594D01*
X012542Y024491D01*
X012232Y024491D01*
X012232Y025111D01*
X012489Y025701D02*
X012695Y025701D01*
X012926Y025701D02*
X012926Y025908D01*
X013030Y026011D01*
X013340Y026011D01*
X013340Y025391D01*
X013340Y025598D02*
X013030Y025598D01*
X012926Y025701D01*
X013571Y025701D02*
X013984Y025701D01*
X013984Y025804D02*
X013778Y026011D01*
X013571Y025804D01*
X013571Y025391D01*
X013521Y025111D02*
X013521Y024491D01*
X013290Y024594D02*
X013186Y024491D01*
X012980Y024491D01*
X012876Y024594D01*
X012876Y024801D01*
X012980Y024904D01*
X013186Y024904D01*
X013290Y024801D01*
X013290Y024594D01*
X013728Y024904D02*
X013521Y025111D01*
X013728Y024904D02*
X013934Y025111D01*
X013934Y024491D01*
X013984Y025391D02*
X013984Y025804D01*
X013934Y026341D02*
X013934Y026961D01*
X013728Y026754D01*
X013521Y026961D01*
X013521Y026341D01*
X012645Y026341D02*
X012335Y026341D01*
X012232Y026444D01*
X012232Y026548D01*
X012335Y026651D01*
X012645Y026651D01*
X012335Y026651D02*
X012232Y026754D01*
X012232Y026858D01*
X012335Y026961D01*
X012645Y026961D01*
X012645Y026341D01*
X007384Y022311D02*
X007384Y021691D01*
X007074Y021691D01*
X006971Y021794D01*
X006971Y021898D01*
X007074Y022001D01*
X007384Y022001D01*
X007074Y022001D02*
X006971Y022104D01*
X006971Y022208D01*
X007074Y022311D01*
X007384Y022311D01*
X006740Y021794D02*
X006636Y021794D01*
X006636Y021691D01*
X006740Y021691D01*
X006740Y021794D01*
X005773Y021794D02*
X005670Y021691D01*
X005463Y021691D01*
X005359Y021794D01*
X005359Y021898D01*
X005463Y022001D01*
X005670Y022001D01*
X005773Y022104D01*
X005773Y022208D01*
X005670Y022311D01*
X005463Y022311D01*
X005359Y022208D01*
X005129Y022311D02*
X004922Y022311D01*
X005025Y022311D02*
X005025Y021691D01*
X004922Y021691D02*
X005129Y021691D01*
X004699Y021691D02*
X004285Y021691D01*
X004054Y021691D02*
X004054Y022311D01*
X003951Y022001D02*
X003641Y021691D01*
X004054Y021898D02*
X003641Y022311D01*
X004699Y022311D02*
X004699Y021691D01*
X004028Y020538D02*
X003614Y020538D01*
X003925Y020538D02*
X003925Y020125D01*
X004028Y020125D02*
X004235Y020332D01*
X004028Y020538D01*
X004028Y020125D02*
X003614Y020125D01*
X003614Y019894D02*
X003614Y019480D01*
X003718Y019480D01*
X004131Y019894D01*
X004235Y019894D01*
X004235Y019480D01*
X004235Y019249D02*
X004235Y019042D01*
X004235Y019146D02*
X003718Y019146D01*
X003614Y019042D01*
X003614Y018939D01*
X003718Y018836D01*
X003614Y018605D02*
X003614Y018191D01*
X004235Y018191D01*
X004235Y018605D01*
X003925Y018398D02*
X003925Y018191D01*
X003925Y017960D02*
X003821Y017857D01*
X003821Y017547D01*
X003821Y017753D02*
X003614Y017960D01*
X003925Y017960D02*
X004131Y017960D01*
X004235Y017857D01*
X004235Y017547D01*
X003614Y017547D01*
X003718Y017316D02*
X003614Y017212D01*
X003614Y016902D01*
X004235Y016902D01*
X004235Y017212D01*
X004131Y017316D01*
X004028Y017316D01*
X003925Y017212D01*
X003925Y016902D01*
X003925Y017212D02*
X003821Y017316D01*
X003718Y017316D01*
X004764Y017278D02*
X004868Y017174D01*
X005281Y017588D01*
X004868Y017588D01*
X004764Y017485D01*
X004764Y017278D01*
X004868Y017174D02*
X005281Y017174D01*
X005385Y017278D01*
X005385Y017485D01*
X005281Y017588D01*
X004764Y016944D02*
X004764Y016530D01*
X004764Y016737D02*
X005385Y016737D01*
X005178Y016530D01*
X005385Y016299D02*
X004764Y015885D01*
X004868Y015654D02*
X004764Y015551D01*
X004764Y015344D01*
X004868Y015241D01*
X005075Y015241D02*
X005178Y015448D01*
X005178Y015551D01*
X005075Y015654D01*
X004868Y015654D01*
X005075Y015241D02*
X005385Y015241D01*
X005385Y015654D01*
X004235Y015704D02*
X004028Y015498D01*
X004235Y015291D01*
X003614Y015291D01*
X003614Y015704D02*
X004235Y015704D01*
X003718Y015935D02*
X003718Y016039D01*
X003614Y016039D01*
X003614Y015935D01*
X003718Y015935D01*
X010318Y017494D02*
X010318Y020407D01*
X013131Y020407D01*
X013131Y017494D01*
X010318Y017494D01*
X012856Y017573D02*
X012856Y020329D01*
X012118Y020387D02*
X012116Y020348D01*
X012110Y020310D01*
X012101Y020273D01*
X012088Y020236D01*
X012071Y020201D01*
X012052Y020168D01*
X012029Y020137D01*
X012003Y020108D01*
X011974Y020082D01*
X011943Y020059D01*
X011910Y020040D01*
X011875Y020023D01*
X011838Y020010D01*
X011801Y020001D01*
X011763Y019995D01*
X011724Y019993D01*
X011685Y019995D01*
X011647Y020001D01*
X011610Y020010D01*
X011573Y020023D01*
X011538Y020040D01*
X011505Y020059D01*
X011474Y020082D01*
X011445Y020108D01*
X011419Y020137D01*
X011396Y020168D01*
X011377Y020201D01*
X011360Y020236D01*
X011347Y020273D01*
X011338Y020310D01*
X011332Y020348D01*
X011330Y020387D01*
X014904Y016965D02*
X014904Y015037D01*
X016595Y015037D01*
X016595Y016965D01*
X014904Y016965D01*
X015513Y015037D02*
X015515Y015067D01*
X015520Y015096D01*
X015530Y015124D01*
X015542Y015151D01*
X015558Y015176D01*
X015577Y015199D01*
X015599Y015219D01*
X015623Y015236D01*
X015649Y015251D01*
X015676Y015261D01*
X015705Y015269D01*
X015734Y015273D01*
X015764Y015273D01*
X015793Y015269D01*
X015822Y015261D01*
X015849Y015251D01*
X015875Y015236D01*
X015899Y015219D01*
X015921Y015199D01*
X015940Y015176D01*
X015956Y015151D01*
X015968Y015124D01*
X015978Y015096D01*
X015983Y015067D01*
X015985Y015037D01*
X015474Y009291D02*
X013114Y009291D01*
X015474Y009291D02*
X015474Y006711D01*
X013114Y006711D01*
X023585Y023334D02*
X023482Y023437D01*
X023482Y023954D01*
X023792Y023954D01*
X023895Y023851D01*
X023895Y023644D01*
X023792Y023541D01*
X023482Y023541D01*
X023585Y023334D02*
X023689Y023334D01*
X023251Y023644D02*
X023147Y023541D01*
X022837Y023541D01*
X022837Y023954D01*
X022606Y024161D02*
X022503Y024161D01*
X022503Y023541D01*
X022606Y023541D02*
X022399Y023541D01*
X022177Y023644D02*
X022073Y023748D01*
X021763Y023748D01*
X021763Y023851D02*
X021763Y023541D01*
X022073Y023541D01*
X022177Y023644D01*
X022073Y023954D02*
X021866Y023954D01*
X021763Y023851D01*
X021532Y023954D02*
X021325Y023954D01*
X021429Y024058D02*
X021429Y023644D01*
X021325Y023541D01*
X021102Y023644D02*
X020999Y023541D01*
X020792Y023541D01*
X020689Y023644D01*
X020689Y023851D01*
X020792Y023954D01*
X020999Y023954D01*
X021102Y023851D01*
X021102Y023644D01*
X020458Y023541D02*
X020458Y023954D01*
X020458Y023748D02*
X020251Y023954D01*
X020148Y023954D01*
X020259Y025341D02*
X020259Y025754D01*
X020466Y025961D01*
X020673Y025754D01*
X020673Y025341D01*
X020904Y025341D02*
X021317Y025341D01*
X021317Y025444D01*
X020904Y025858D01*
X020904Y025961D01*
X021317Y025961D01*
X021548Y025961D02*
X021755Y025961D01*
X021652Y025961D02*
X021652Y025444D01*
X021755Y025341D01*
X021858Y025341D01*
X021962Y025444D01*
X022193Y025341D02*
X022606Y025341D01*
X022606Y025961D01*
X022193Y025961D01*
X022399Y025651D02*
X022606Y025651D01*
X022837Y025651D02*
X022941Y025548D01*
X023251Y025548D01*
X023044Y025548D02*
X022837Y025341D01*
X022837Y025061D02*
X023251Y024441D01*
X023482Y024441D02*
X023895Y024441D01*
X023895Y025061D01*
X023482Y025061D01*
X023251Y025061D02*
X022837Y024441D01*
X023251Y023954D02*
X023251Y023644D01*
X024126Y023748D02*
X024540Y023748D01*
X024540Y023851D02*
X024436Y023954D01*
X024230Y023954D01*
X024126Y023851D01*
X024126Y023748D01*
X024230Y023541D02*
X024436Y023541D01*
X024540Y023644D01*
X024540Y023851D01*
X024771Y023851D02*
X024874Y023748D01*
X025184Y023748D01*
X024978Y023748D02*
X024771Y023541D01*
X024771Y023851D02*
X024771Y024058D01*
X024874Y024161D01*
X025184Y024161D01*
X025184Y023541D01*
X025184Y024441D02*
X025184Y024854D01*
X024978Y025061D01*
X024771Y024854D01*
X024771Y024441D01*
X024540Y024441D02*
X024540Y025061D01*
X024230Y025061D01*
X024126Y024958D01*
X024126Y024751D01*
X024230Y024648D01*
X024540Y024648D01*
X024771Y024751D02*
X025184Y024751D01*
X025184Y025341D02*
X025184Y025961D01*
X024978Y025754D01*
X024771Y025961D01*
X024771Y025341D01*
X023895Y025341D02*
X023895Y025961D01*
X023585Y025961D01*
X023482Y025858D01*
X023482Y025754D01*
X023585Y025651D01*
X023895Y025651D01*
X023585Y025651D02*
X023482Y025548D01*
X023482Y025444D01*
X023585Y025341D01*
X023895Y025341D01*
X023895Y024751D02*
X023689Y024751D01*
X023251Y025341D02*
X023251Y025961D01*
X022941Y025961D01*
X022837Y025858D01*
X022837Y025651D01*
X020673Y025651D02*
X020259Y025651D01*
X032914Y036744D02*
X033018Y036641D01*
X032914Y036744D02*
X032914Y036951D01*
X033018Y037054D01*
X033225Y037054D01*
X033328Y036951D01*
X033328Y036848D01*
X033225Y036641D01*
X033535Y036641D01*
X033535Y037054D01*
X033431Y037285D02*
X033535Y037389D01*
X033535Y037596D01*
X033431Y037699D01*
X033018Y037285D01*
X032914Y037389D01*
X032914Y037596D01*
X033018Y037699D01*
X033431Y037699D01*
X033431Y037930D02*
X033018Y037930D01*
X033431Y038344D01*
X033018Y038344D01*
X032914Y038240D01*
X032914Y038033D01*
X033018Y037930D01*
X033431Y037930D02*
X033535Y038033D01*
X033535Y038240D01*
X033431Y038344D01*
X033535Y038574D02*
X033121Y038574D01*
X032914Y038781D01*
X033121Y038988D01*
X033535Y038988D01*
X033431Y037285D02*
X033018Y037285D01*
X039263Y037329D02*
X039736Y037329D01*
X039499Y037723D01*
X039263Y037329D01*
X039374Y034723D02*
X039611Y034329D01*
X039138Y034329D01*
X039374Y034723D01*
D12*
X036374Y036251D02*
X036374Y036851D01*
X034524Y036801D02*
X034224Y036851D01*
X034524Y036801D02*
X034524Y037101D01*
X034524Y036801D02*
X033774Y037651D01*
X034524Y037651D01*
X033774Y038501D01*
X036024Y039351D02*
X036374Y039001D01*
X036374Y038751D01*
X036324Y034201D02*
X036324Y032901D01*
X035974Y032551D01*
X033824Y032551D01*
X033074Y033301D01*
X031374Y033301D01*
D13*
X005017Y001119D02*
X004631Y001119D01*
X004631Y002182D02*
X005017Y002182D01*
X004649Y006606D02*
X004500Y006606D01*
X004500Y007196D02*
X004649Y007196D01*
X005100Y009406D02*
X005249Y009406D01*
X005249Y009996D02*
X005100Y009996D01*
X012050Y011056D02*
X012199Y011056D01*
X012199Y011646D02*
X012050Y011646D01*
X012050Y011806D02*
X012199Y011806D01*
X012199Y012396D02*
X012050Y012396D01*
X013079Y011976D02*
X013079Y011826D01*
X013670Y011826D02*
X013670Y011976D01*
X012649Y014456D02*
X012500Y014456D01*
X012500Y015046D02*
X012649Y015046D01*
X012649Y015156D02*
X012500Y015156D01*
X012500Y015746D02*
X012649Y015746D01*
X012700Y015906D02*
X012849Y015906D01*
X012849Y016496D02*
X012700Y016496D01*
X012750Y016656D02*
X012899Y016656D01*
X012899Y017246D02*
X012750Y017246D01*
X014150Y017206D02*
X014299Y017206D01*
X014299Y017796D02*
X014150Y017796D01*
X017129Y018176D02*
X017129Y018326D01*
X017720Y018326D02*
X017720Y018176D01*
X017900Y017146D02*
X018049Y017146D01*
X018049Y016556D02*
X017900Y016556D01*
X021450Y016296D02*
X021599Y016296D01*
X021599Y015706D02*
X021450Y015706D01*
X023550Y015456D02*
X023699Y015456D01*
X023699Y016046D02*
X023550Y016046D01*
X028050Y013546D02*
X028199Y013546D01*
X028199Y012956D02*
X028050Y012956D01*
X029829Y013626D02*
X029829Y013776D01*
X030420Y013776D02*
X030420Y013626D01*
X030354Y011851D02*
X030354Y011701D01*
X029670Y011326D02*
X029670Y011176D01*
X029079Y011176D02*
X029079Y011326D01*
X030945Y011701D02*
X030945Y011851D01*
X027170Y009076D02*
X027170Y008926D01*
X026579Y008926D02*
X026579Y009076D01*
X030279Y005676D02*
X030279Y005526D01*
X030870Y005526D02*
X030870Y005676D01*
X029320Y004526D02*
X029320Y004376D01*
X028729Y004376D02*
X028729Y004526D01*
X028779Y002876D02*
X028779Y002726D01*
X029370Y002726D02*
X029370Y002876D01*
X029479Y002876D02*
X029479Y002726D01*
X028817Y002032D02*
X028431Y002032D01*
X028431Y000969D02*
X028817Y000969D01*
X026999Y001406D02*
X026850Y001406D01*
X026850Y001996D02*
X026999Y001996D01*
X030070Y002726D02*
X030070Y002876D01*
X034700Y004856D02*
X034849Y004856D01*
X034849Y005446D02*
X034700Y005446D01*
X036400Y004696D02*
X036549Y004696D01*
X036650Y004806D02*
X036799Y004806D01*
X036799Y005396D02*
X036650Y005396D01*
X036549Y004106D02*
X036400Y004106D01*
X037329Y004151D02*
X037329Y004001D01*
X037920Y004001D02*
X037920Y004151D01*
X038625Y003921D02*
X038774Y003921D01*
X038774Y003331D02*
X038625Y003331D01*
X038600Y002446D02*
X038749Y002446D01*
X038749Y001856D02*
X038600Y001856D01*
X037920Y002426D02*
X037920Y002576D01*
X037329Y002576D02*
X037329Y002426D01*
X041300Y004206D02*
X041449Y004206D01*
X041449Y004796D02*
X041300Y004796D01*
X041350Y004956D02*
X041499Y004956D01*
X041499Y005546D02*
X041350Y005546D01*
X032920Y016326D02*
X032920Y016476D01*
X032329Y016476D02*
X032329Y016326D01*
X032329Y018226D02*
X032329Y018376D01*
X032920Y018376D02*
X032920Y018226D01*
X034950Y018456D02*
X035099Y018456D01*
X035099Y019046D02*
X034950Y019046D01*
X039300Y023406D02*
X039449Y023406D01*
X039449Y023996D02*
X039300Y023996D01*
X039550Y025656D02*
X039699Y025656D01*
X039699Y026246D02*
X039550Y026246D01*
X039550Y026406D02*
X039699Y026406D01*
X039699Y026996D02*
X039550Y026996D01*
X038374Y028256D02*
X038225Y028256D01*
X037933Y028133D02*
X037783Y028133D01*
X037783Y027543D02*
X037933Y027543D01*
X038225Y028846D02*
X038374Y028846D01*
X037420Y029876D02*
X037420Y030026D01*
X036829Y030026D02*
X036829Y029876D01*
X036670Y029401D02*
X036670Y029251D01*
X036079Y029251D02*
X036079Y029401D01*
X036829Y031251D02*
X036829Y031401D01*
X037420Y031401D02*
X037420Y031251D01*
X037579Y031251D02*
X037579Y031401D01*
X038170Y031401D02*
X038170Y031251D01*
X038329Y031626D02*
X038329Y031776D01*
X038920Y031776D02*
X038920Y031626D01*
X041079Y031876D02*
X041079Y032026D01*
X041670Y032026D02*
X041670Y031876D01*
X041670Y030651D02*
X041670Y030501D01*
X041079Y030501D02*
X041079Y030651D01*
X040074Y029121D02*
X039925Y029121D01*
X039925Y028531D02*
X040074Y028531D01*
X036180Y024674D02*
X036030Y024674D01*
X036030Y024083D02*
X036180Y024083D01*
X034074Y025406D02*
X033925Y025406D01*
X033925Y025996D02*
X034074Y025996D01*
X034074Y026156D02*
X033925Y026156D01*
X033925Y026746D02*
X034074Y026746D01*
X032772Y027246D02*
X032772Y027396D01*
X032181Y027396D02*
X032181Y027246D01*
X032024Y031616D02*
X032024Y031766D01*
X032615Y031766D02*
X032615Y031616D01*
X029820Y036626D02*
X029820Y036776D01*
X029229Y036776D02*
X029229Y036626D01*
X027820Y036526D02*
X027820Y036376D01*
X027229Y036376D02*
X027229Y036526D01*
X026849Y034746D02*
X026700Y034746D01*
X026700Y034156D02*
X026849Y034156D01*
X026849Y033746D02*
X026700Y033746D01*
X026700Y033156D02*
X026849Y033156D01*
X038329Y034626D02*
X038329Y034776D01*
X038920Y034776D02*
X038920Y034626D01*
X039829Y034876D02*
X039829Y035026D01*
X040420Y035026D02*
X040420Y034876D01*
X039824Y035781D02*
X039675Y035781D01*
X039675Y036371D02*
X039824Y036371D01*
X039954Y037751D02*
X039954Y037901D01*
X040545Y037901D02*
X040545Y037751D01*
X039949Y038656D02*
X039800Y038656D01*
X039800Y039246D02*
X039949Y039246D01*
X039045Y037776D02*
X039045Y037626D01*
X038454Y037626D02*
X038454Y037776D01*
X029349Y020396D02*
X029200Y020396D01*
X029200Y019806D02*
X029349Y019806D01*
X029349Y019696D02*
X029200Y019696D01*
X029200Y019106D02*
X029349Y019106D01*
X021449Y009796D02*
X021300Y009796D01*
X021300Y009206D02*
X021449Y009206D01*
X018920Y008826D02*
X018920Y008676D01*
X018329Y008676D02*
X018329Y008826D01*
X019579Y006176D02*
X019579Y006026D01*
X020170Y006026D02*
X020170Y006176D01*
X013999Y006096D02*
X013850Y006096D01*
X013850Y005506D02*
X013999Y005506D01*
X013270Y002626D02*
X013270Y002476D01*
X012679Y002476D02*
X012679Y002626D01*
X004449Y037156D02*
X004300Y037156D01*
X004300Y037746D02*
X004449Y037746D01*
D14*
X020147Y029321D02*
X020264Y029262D01*
X020381Y029145D01*
X020206Y029145D01*
X020147Y029087D01*
X020147Y029029D01*
X020206Y028970D01*
X020322Y028970D01*
X020381Y029029D01*
X020381Y029145D01*
X020516Y029145D02*
X020516Y029029D01*
X020574Y028970D01*
X020691Y028970D01*
X020749Y029029D01*
X020749Y029145D02*
X020632Y029204D01*
X020574Y029204D01*
X020516Y029145D01*
X020516Y029321D02*
X020749Y029321D01*
X020749Y029145D01*
X020884Y029029D02*
X020942Y028970D01*
X021059Y028970D01*
X021117Y029029D01*
X021117Y029262D01*
X021059Y029321D01*
X020942Y029321D01*
X020884Y029262D01*
X026384Y032576D02*
X026618Y032576D01*
X026501Y032576D02*
X026501Y032926D01*
X026618Y032809D01*
X026753Y032751D02*
X026753Y032634D01*
X026811Y032576D01*
X026928Y032576D01*
X026986Y032634D01*
X026986Y032751D02*
X026869Y032809D01*
X026811Y032809D01*
X026753Y032751D01*
X026753Y032926D02*
X026986Y032926D01*
X026986Y032751D01*
X027121Y032868D02*
X027179Y032926D01*
X027296Y032926D01*
X027354Y032868D01*
X027354Y032634D01*
X027296Y032576D01*
X027179Y032576D01*
X027121Y032634D01*
X027074Y034976D02*
X027016Y035034D01*
X027074Y034976D02*
X027191Y034976D01*
X027249Y035034D01*
X027249Y035268D01*
X027191Y035326D01*
X027074Y035326D01*
X027016Y035268D01*
X026881Y035326D02*
X026881Y035151D01*
X026764Y035209D01*
X026706Y035209D01*
X026648Y035151D01*
X026648Y035034D01*
X026706Y034976D01*
X026823Y034976D01*
X026881Y035034D01*
X026881Y035326D02*
X026648Y035326D01*
X026513Y035268D02*
X026454Y035326D01*
X026338Y035326D01*
X026279Y035268D01*
X026279Y035209D01*
X026513Y034976D01*
X026279Y034976D01*
X028049Y036226D02*
X028400Y036226D01*
X028400Y036401D01*
X028341Y036459D01*
X028225Y036459D01*
X028166Y036401D01*
X028166Y036226D01*
X028166Y036343D02*
X028049Y036459D01*
X028049Y036594D02*
X028108Y036594D01*
X028341Y036828D01*
X028400Y036828D01*
X028400Y036594D01*
X028649Y036652D02*
X028649Y036769D01*
X028708Y036828D01*
X028766Y036828D01*
X028825Y036769D01*
X028825Y036594D01*
X028708Y036594D01*
X028649Y036652D01*
X028825Y036594D02*
X028941Y036711D01*
X029000Y036828D01*
X028941Y036962D02*
X028883Y036962D01*
X028825Y037021D01*
X028825Y037196D01*
X028941Y037196D02*
X029000Y037138D01*
X029000Y037021D01*
X028941Y036962D01*
X028708Y036962D02*
X028649Y037021D01*
X028649Y037138D01*
X028708Y037196D01*
X028941Y037196D01*
X028400Y037138D02*
X028400Y037021D01*
X028341Y036962D01*
X028108Y036962D01*
X028341Y037196D01*
X028108Y037196D01*
X028049Y037138D01*
X028049Y037021D01*
X028108Y036962D01*
X028341Y037196D02*
X028400Y037138D01*
X028649Y036459D02*
X028766Y036343D01*
X028766Y036401D02*
X028766Y036226D01*
X028649Y036226D02*
X029000Y036226D01*
X029000Y036401D01*
X028941Y036459D01*
X028825Y036459D01*
X028766Y036401D01*
X032844Y032381D02*
X032844Y032148D01*
X032844Y032264D02*
X033195Y032264D01*
X033078Y032148D01*
X033195Y032013D02*
X033136Y031896D01*
X033019Y031779D01*
X033019Y031954D01*
X032961Y032013D01*
X032903Y032013D01*
X032844Y031954D01*
X032844Y031838D01*
X032903Y031779D01*
X033019Y031779D01*
X033019Y031645D02*
X032961Y031586D01*
X032961Y031411D01*
X032844Y031411D02*
X033195Y031411D01*
X033195Y031586D01*
X033136Y031645D01*
X033019Y031645D01*
X032961Y031528D02*
X032844Y031645D01*
X033674Y030741D02*
X033674Y030507D01*
X033908Y030741D01*
X033966Y030741D01*
X034025Y030683D01*
X034025Y030566D01*
X033966Y030507D01*
X034025Y030256D02*
X033674Y030256D01*
X033674Y030139D02*
X033674Y030373D01*
X033908Y030139D02*
X034025Y030256D01*
X033966Y030004D02*
X034025Y029946D01*
X034025Y029829D01*
X033966Y029771D01*
X033733Y029771D01*
X033674Y029829D01*
X033674Y029946D01*
X033733Y030004D01*
X033674Y029642D02*
X033674Y029525D01*
X033674Y029584D02*
X034025Y029584D01*
X034025Y029642D02*
X034025Y029525D01*
X034734Y028373D02*
X034734Y028140D01*
X034968Y028373D01*
X035026Y028373D01*
X035085Y028315D01*
X035085Y028198D01*
X035026Y028140D01*
X034909Y028005D02*
X034909Y027771D01*
X035085Y027946D01*
X034734Y027946D01*
X034793Y027637D02*
X034734Y027578D01*
X034734Y027461D01*
X034793Y027403D01*
X035026Y027403D01*
X035085Y027461D01*
X035085Y027578D01*
X035026Y027637D01*
X036748Y025680D02*
X036807Y025680D01*
X037040Y025914D01*
X037099Y025914D01*
X037099Y025680D01*
X037040Y025545D02*
X036807Y025545D01*
X036748Y025487D01*
X036748Y025370D01*
X036807Y025312D01*
X037040Y025312D01*
X037099Y025370D01*
X037099Y025487D01*
X037040Y025545D01*
X036865Y025428D02*
X036748Y025545D01*
X037674Y025444D02*
X037674Y025678D01*
X037674Y025813D02*
X037674Y026046D01*
X037674Y025930D02*
X038025Y025930D01*
X037908Y025813D01*
X038025Y025444D02*
X037674Y025444D01*
X037576Y024598D02*
X037576Y026803D01*
X038923Y026803D02*
X038923Y024598D01*
X038979Y024526D02*
X039213Y024526D01*
X039096Y024526D02*
X039096Y024876D01*
X039213Y024759D01*
X039348Y024701D02*
X039581Y024701D01*
X039406Y024876D01*
X039406Y024526D01*
X039716Y024584D02*
X039774Y024526D01*
X039891Y024526D01*
X039949Y024584D01*
X039949Y024818D01*
X039891Y024876D01*
X039774Y024876D01*
X039716Y024818D01*
X039774Y025076D02*
X039716Y025134D01*
X039774Y025076D02*
X039891Y025076D01*
X039949Y025134D01*
X039949Y025368D01*
X039891Y025426D01*
X039774Y025426D01*
X039716Y025368D01*
X039581Y025251D02*
X039348Y025251D01*
X039213Y025368D02*
X039154Y025426D01*
X039038Y025426D01*
X038979Y025368D01*
X039213Y025134D01*
X039154Y025076D01*
X039038Y025076D01*
X038979Y025134D01*
X038979Y025368D01*
X039213Y025368D02*
X039213Y025134D01*
X039406Y025076D02*
X039406Y025426D01*
X039581Y025251D01*
X038549Y023826D02*
X038374Y023826D01*
X038316Y023768D01*
X038316Y023651D01*
X038374Y023593D01*
X038549Y023593D01*
X038433Y023593D02*
X038316Y023476D01*
X038181Y023534D02*
X038123Y023476D01*
X038006Y023476D01*
X037948Y023534D01*
X037948Y023651D01*
X038006Y023709D01*
X038064Y023709D01*
X038181Y023651D01*
X038181Y023826D01*
X037948Y023826D01*
X037813Y023768D02*
X037813Y023709D01*
X037754Y023651D01*
X037579Y023651D01*
X037579Y023768D02*
X037638Y023826D01*
X037754Y023826D01*
X037813Y023768D01*
X037579Y023768D02*
X037579Y023534D01*
X037638Y023476D01*
X037754Y023476D01*
X037813Y023534D01*
X038549Y023476D02*
X038549Y023826D01*
X036580Y023730D02*
X036405Y023730D01*
X036347Y023789D01*
X036347Y023906D01*
X036405Y023964D01*
X036580Y023964D01*
X036580Y023614D01*
X036463Y023730D02*
X036347Y023614D01*
X036212Y023672D02*
X036153Y023614D01*
X036037Y023614D01*
X035978Y023672D01*
X035978Y023730D01*
X036037Y023789D01*
X036212Y023789D01*
X036212Y023672D01*
X036212Y023789D02*
X036095Y023906D01*
X035978Y023964D01*
X035844Y023789D02*
X035610Y023789D01*
X035668Y023964D02*
X035844Y023789D01*
X035668Y023614D02*
X035668Y023964D01*
X034574Y024276D02*
X034574Y024626D01*
X034399Y024626D01*
X034341Y024568D01*
X034341Y024451D01*
X034399Y024393D01*
X034574Y024393D01*
X034458Y024393D02*
X034341Y024276D01*
X034206Y024334D02*
X034148Y024276D01*
X034031Y024276D01*
X033973Y024334D01*
X033973Y024451D01*
X034031Y024509D01*
X034089Y024509D01*
X034206Y024451D01*
X034206Y024626D01*
X033973Y024626D01*
X033838Y024626D02*
X033604Y024626D01*
X033604Y024568D01*
X033838Y024334D01*
X033838Y024276D01*
X033786Y024926D02*
X033903Y024926D01*
X033961Y024984D01*
X033961Y025101D02*
X033844Y025159D01*
X033786Y025159D01*
X033728Y025101D01*
X033728Y024984D01*
X033786Y024926D01*
X033593Y024984D02*
X033593Y025043D01*
X033534Y025101D01*
X033418Y025101D01*
X033359Y025043D01*
X033359Y024984D01*
X033418Y024926D01*
X033534Y024926D01*
X033593Y024984D01*
X033534Y025101D02*
X033593Y025159D01*
X033593Y025218D01*
X033534Y025276D01*
X033418Y025276D01*
X033359Y025218D01*
X033359Y025159D01*
X033418Y025101D01*
X033728Y025276D02*
X033961Y025276D01*
X033961Y025101D01*
X034096Y025101D02*
X034154Y025043D01*
X034329Y025043D01*
X034213Y025043D02*
X034096Y024926D01*
X034096Y025101D02*
X034096Y025218D01*
X034154Y025276D01*
X034329Y025276D01*
X034329Y024926D01*
X032052Y026941D02*
X032052Y027116D01*
X031994Y027174D01*
X031877Y027174D01*
X031819Y027116D01*
X031819Y026941D01*
X031819Y027058D02*
X031702Y027174D01*
X031760Y027309D02*
X031702Y027368D01*
X031702Y027484D01*
X031760Y027543D01*
X031819Y027543D01*
X031877Y027484D01*
X031877Y027309D01*
X031760Y027309D01*
X031877Y027309D02*
X031994Y027426D01*
X032052Y027543D01*
X031994Y027678D02*
X032052Y027736D01*
X032052Y027853D01*
X031994Y027911D01*
X031935Y027911D01*
X031702Y027678D01*
X031702Y027911D01*
X031702Y026941D02*
X032052Y026941D01*
X037804Y028984D02*
X037804Y029218D01*
X037863Y029276D01*
X037979Y029276D01*
X038038Y029218D01*
X038038Y029159D01*
X037979Y029101D01*
X037804Y029101D01*
X037804Y028984D02*
X037863Y028926D01*
X037979Y028926D01*
X038038Y028984D01*
X038173Y028984D02*
X038231Y028926D01*
X038348Y028926D01*
X038406Y028984D01*
X038541Y028984D02*
X038599Y028926D01*
X038716Y028926D01*
X038774Y028984D01*
X038774Y029218D01*
X038716Y029276D01*
X038599Y029276D01*
X038541Y029218D01*
X038406Y029218D02*
X038348Y029276D01*
X038231Y029276D01*
X038173Y029218D01*
X038173Y029159D01*
X038231Y029101D01*
X038173Y029043D01*
X038173Y028984D01*
X038231Y029101D02*
X038289Y029101D01*
X038922Y028013D02*
X038863Y027955D01*
X038863Y027896D01*
X038922Y027838D01*
X038863Y027780D01*
X038863Y027721D01*
X038922Y027663D01*
X039038Y027663D01*
X039097Y027721D01*
X039231Y027721D02*
X039231Y027780D01*
X039290Y027838D01*
X039465Y027838D01*
X039465Y027721D01*
X039407Y027663D01*
X039290Y027663D01*
X039231Y027721D01*
X039348Y027955D02*
X039465Y027838D01*
X039600Y027838D02*
X039658Y027780D01*
X039833Y027780D01*
X039717Y027780D02*
X039600Y027663D01*
X039600Y027838D02*
X039600Y027955D01*
X039658Y028013D01*
X039833Y028013D01*
X039833Y027663D01*
X039348Y027955D02*
X039231Y028013D01*
X039097Y027955D02*
X039038Y028013D01*
X038922Y028013D01*
X038922Y027838D02*
X038980Y027838D01*
X040709Y028809D02*
X040709Y028868D01*
X040768Y028926D01*
X040943Y028926D01*
X040943Y028809D01*
X040884Y028751D01*
X040768Y028751D01*
X040709Y028809D01*
X040826Y029043D02*
X040943Y028926D01*
X041078Y028926D02*
X041311Y028926D01*
X041136Y029101D01*
X041136Y028751D01*
X041446Y028751D02*
X041563Y028868D01*
X041504Y028868D02*
X041679Y028868D01*
X041679Y028751D02*
X041679Y029101D01*
X041504Y029101D01*
X041446Y029043D01*
X041446Y028926D01*
X041504Y028868D01*
X040826Y029043D02*
X040709Y029101D01*
X041899Y029996D02*
X042250Y029996D01*
X042250Y030171D01*
X042191Y030229D01*
X042075Y030229D01*
X042016Y030171D01*
X042016Y029996D01*
X042016Y030113D02*
X041899Y030229D01*
X042075Y030364D02*
X042075Y030598D01*
X042075Y030732D02*
X042133Y030849D01*
X042133Y030908D01*
X042075Y030966D01*
X041958Y030966D01*
X041899Y030908D01*
X041899Y030791D01*
X041958Y030732D01*
X042075Y030732D02*
X042250Y030732D01*
X042250Y030966D01*
X042250Y031321D02*
X041899Y031321D01*
X042016Y031321D02*
X042016Y031496D01*
X042075Y031554D01*
X042191Y031554D01*
X042250Y031496D01*
X042250Y031321D01*
X042016Y031438D02*
X041899Y031554D01*
X042075Y031689D02*
X042075Y031923D01*
X042191Y032057D02*
X042250Y032116D01*
X042250Y032233D01*
X042191Y032291D01*
X042133Y032291D01*
X041899Y032057D01*
X041899Y032291D01*
X041899Y031864D02*
X042250Y031864D01*
X042075Y031689D01*
X041899Y030539D02*
X042250Y030539D01*
X042075Y030364D01*
X040675Y030701D02*
X040558Y030701D01*
X040617Y030701D02*
X040617Y031051D01*
X040675Y031051D02*
X040558Y031051D01*
X040429Y030993D02*
X040429Y030759D01*
X040371Y030701D01*
X040254Y030701D01*
X040196Y030759D01*
X040061Y030701D02*
X039828Y030701D01*
X039944Y030701D02*
X039944Y031051D01*
X040061Y030934D01*
X040196Y030993D02*
X040254Y031051D01*
X040371Y031051D01*
X040429Y030993D01*
X039693Y030934D02*
X039576Y031051D01*
X039576Y030701D01*
X039693Y030701D02*
X039459Y030701D01*
X038041Y032346D02*
X037808Y032346D01*
X037749Y032404D01*
X037749Y032521D01*
X037808Y032579D01*
X037925Y032714D02*
X037925Y032948D01*
X038041Y033082D02*
X038100Y033141D01*
X038100Y033258D01*
X038041Y033316D01*
X037983Y033316D01*
X037925Y033258D01*
X037866Y033316D01*
X037808Y033316D01*
X037749Y033258D01*
X037749Y033141D01*
X037808Y033082D01*
X037925Y033199D02*
X037925Y033258D01*
X038100Y032889D02*
X037925Y032714D01*
X038041Y032579D02*
X038100Y032521D01*
X038100Y032404D01*
X038041Y032346D01*
X038100Y032889D02*
X037749Y032889D01*
X037400Y032998D02*
X037400Y032764D01*
X037225Y032764D01*
X037283Y032881D01*
X037283Y032939D01*
X037225Y032998D01*
X037108Y032998D01*
X037049Y032939D01*
X037049Y032823D01*
X037108Y032764D01*
X037049Y032629D02*
X037166Y032513D01*
X037166Y032571D02*
X037166Y032396D01*
X037049Y032396D02*
X037400Y032396D01*
X037400Y032571D01*
X037341Y032629D01*
X037225Y032629D01*
X037166Y032571D01*
X037049Y033132D02*
X037049Y033366D01*
X037049Y033249D02*
X037400Y033249D01*
X037283Y033132D01*
X037300Y034121D02*
X036949Y034121D01*
X037066Y034121D02*
X037066Y034296D01*
X037125Y034354D01*
X037241Y034354D01*
X037300Y034296D01*
X037300Y034121D01*
X037066Y034238D02*
X036949Y034354D01*
X036949Y034489D02*
X037183Y034723D01*
X037241Y034723D01*
X037300Y034664D01*
X037300Y034548D01*
X037241Y034489D01*
X036949Y034489D02*
X036949Y034723D01*
X036949Y034857D02*
X036949Y035091D01*
X036949Y034974D02*
X037300Y034974D01*
X037183Y034857D01*
X036700Y034882D02*
X036700Y035116D01*
X036641Y035116D01*
X036408Y034882D01*
X036349Y034882D01*
X036408Y034748D02*
X036349Y034689D01*
X036349Y034514D01*
X036700Y034514D01*
X036700Y034689D01*
X036641Y034748D01*
X036408Y034748D01*
X036150Y034714D02*
X035975Y034539D01*
X035975Y034773D01*
X036033Y034907D02*
X036150Y035024D01*
X035799Y035024D01*
X035799Y034907D02*
X035799Y035141D01*
X035799Y034714D02*
X036150Y034714D01*
X036091Y034404D02*
X035975Y034404D01*
X035916Y034346D01*
X035916Y034171D01*
X035799Y034171D02*
X036150Y034171D01*
X036150Y034346D01*
X036091Y034404D01*
X035916Y034288D02*
X035799Y034404D01*
X036013Y035551D02*
X036129Y035551D01*
X036188Y035609D01*
X036323Y035609D02*
X036381Y035551D01*
X036498Y035551D01*
X036556Y035609D01*
X036691Y035609D02*
X036749Y035551D01*
X036866Y035551D01*
X036924Y035609D01*
X036924Y035843D01*
X036866Y035901D01*
X036749Y035901D01*
X036691Y035843D01*
X036556Y035843D02*
X036498Y035901D01*
X036381Y035901D01*
X036323Y035843D01*
X036323Y035784D01*
X036381Y035726D01*
X036323Y035668D01*
X036323Y035609D01*
X036381Y035726D02*
X036439Y035726D01*
X036188Y035843D02*
X036129Y035901D01*
X036013Y035901D01*
X035954Y035843D01*
X035954Y035784D01*
X036013Y035726D01*
X035954Y035668D01*
X035954Y035609D01*
X036013Y035551D01*
X036013Y035726D02*
X036071Y035726D01*
X037274Y036846D02*
X037625Y036846D01*
X037625Y037021D01*
X037566Y037079D01*
X037450Y037079D01*
X037391Y037021D01*
X037391Y036846D01*
X037391Y036963D02*
X037274Y037079D01*
X037450Y037214D02*
X037450Y037448D01*
X037508Y037582D02*
X037450Y037641D01*
X037450Y037816D01*
X037566Y037816D02*
X037625Y037758D01*
X037625Y037641D01*
X037566Y037582D01*
X037508Y037582D01*
X037333Y037582D02*
X037274Y037641D01*
X037274Y037758D01*
X037333Y037816D01*
X037566Y037816D01*
X037625Y037389D02*
X037450Y037214D01*
X037625Y037389D02*
X037274Y037389D01*
X037075Y037389D02*
X037016Y037448D01*
X036783Y037448D01*
X036724Y037389D01*
X036724Y037214D01*
X037075Y037214D01*
X037075Y037389D01*
X037016Y037582D02*
X036958Y037582D01*
X036900Y037641D01*
X036900Y037758D01*
X036841Y037816D01*
X036783Y037816D01*
X036724Y037758D01*
X036724Y037641D01*
X036783Y037582D01*
X036841Y037582D01*
X036900Y037641D01*
X036900Y037758D02*
X036958Y037816D01*
X037016Y037816D01*
X037075Y037758D01*
X037075Y037641D01*
X037016Y037582D01*
X036525Y037496D02*
X036525Y037321D01*
X036174Y037321D01*
X036291Y037321D02*
X036291Y037496D01*
X036350Y037554D01*
X036466Y037554D01*
X036525Y037496D01*
X036525Y037689D02*
X036350Y037689D01*
X036408Y037806D01*
X036408Y037864D01*
X036350Y037923D01*
X036233Y037923D01*
X036174Y037864D01*
X036174Y037748D01*
X036233Y037689D01*
X036174Y037554D02*
X036291Y037438D01*
X036525Y037689D02*
X036525Y037923D01*
X036466Y038057D02*
X036525Y038116D01*
X036525Y038233D01*
X036466Y038291D01*
X036233Y038057D01*
X036174Y038116D01*
X036174Y038233D01*
X036233Y038291D01*
X036466Y038291D01*
X036466Y038057D02*
X036233Y038057D01*
X036538Y038676D02*
X036479Y038734D01*
X036479Y038793D01*
X036538Y038851D01*
X036713Y038851D01*
X036713Y038734D01*
X036654Y038676D01*
X036538Y038676D01*
X036713Y038851D02*
X036596Y038968D01*
X036479Y039026D01*
X036848Y038968D02*
X036848Y038909D01*
X036906Y038851D01*
X036848Y038793D01*
X036848Y038734D01*
X036906Y038676D01*
X037023Y038676D01*
X037081Y038734D01*
X037216Y038734D02*
X037274Y038676D01*
X037391Y038676D01*
X037449Y038734D01*
X037449Y038968D01*
X037391Y039026D01*
X037274Y039026D01*
X037216Y038968D01*
X037081Y038968D02*
X037023Y039026D01*
X036906Y039026D01*
X036848Y038968D01*
X036906Y038851D02*
X036964Y038851D01*
X017404Y019476D02*
X017229Y019476D01*
X017171Y019418D01*
X017171Y019301D01*
X017229Y019243D01*
X017404Y019243D01*
X017288Y019243D02*
X017171Y019126D01*
X017036Y019126D02*
X016803Y019359D01*
X016803Y019418D01*
X016861Y019476D01*
X016978Y019476D01*
X017036Y019418D01*
X017036Y019126D02*
X016803Y019126D01*
X016668Y019184D02*
X016609Y019126D01*
X016493Y019126D01*
X016434Y019184D01*
X016434Y019243D01*
X016493Y019301D01*
X016551Y019301D01*
X016493Y019301D02*
X016434Y019359D01*
X016434Y019418D01*
X016493Y019476D01*
X016609Y019476D01*
X016668Y019418D01*
X017404Y019476D02*
X017404Y019126D01*
X014750Y019024D02*
X014399Y019024D01*
X014399Y018907D02*
X014399Y019141D01*
X014633Y018907D02*
X014750Y019024D01*
X014691Y018773D02*
X014750Y018714D01*
X014750Y018598D01*
X014691Y018539D01*
X014691Y018404D02*
X014750Y018346D01*
X014750Y018229D01*
X014691Y018171D01*
X014458Y018171D01*
X014399Y018229D01*
X014399Y018346D01*
X014458Y018404D01*
X014399Y018539D02*
X014633Y018773D01*
X014691Y018773D01*
X014399Y018773D02*
X014399Y018539D01*
X011799Y017068D02*
X011799Y016834D01*
X011741Y016776D01*
X011624Y016776D01*
X011566Y016834D01*
X011431Y016776D02*
X011198Y017009D01*
X011198Y017068D01*
X011256Y017126D01*
X011373Y017126D01*
X011431Y017068D01*
X011566Y017068D02*
X011624Y017126D01*
X011741Y017126D01*
X011799Y017068D01*
X011431Y016776D02*
X011198Y016776D01*
X011063Y016776D02*
X010829Y017009D01*
X010829Y017068D01*
X010888Y017126D01*
X011004Y017126D01*
X011063Y017068D01*
X011063Y016776D02*
X010829Y016776D01*
X010888Y016326D02*
X010829Y016268D01*
X011063Y016034D01*
X011004Y015976D01*
X010888Y015976D01*
X010829Y016034D01*
X010829Y016268D01*
X010888Y016326D02*
X011004Y016326D01*
X011063Y016268D01*
X011063Y016034D01*
X011198Y016151D02*
X011431Y016151D01*
X011256Y016326D01*
X011256Y015976D01*
X011566Y015976D02*
X011683Y016093D01*
X011624Y016093D02*
X011799Y016093D01*
X011799Y015976D02*
X011799Y016326D01*
X011624Y016326D01*
X011566Y016268D01*
X011566Y016151D01*
X011624Y016093D01*
X011624Y015626D02*
X011741Y015626D01*
X011799Y015568D01*
X011799Y015334D01*
X011741Y015276D01*
X011624Y015276D01*
X011566Y015334D01*
X011431Y015276D02*
X011198Y015509D01*
X011198Y015568D01*
X011256Y015626D01*
X011373Y015626D01*
X011431Y015568D01*
X011566Y015568D02*
X011624Y015626D01*
X011431Y015276D02*
X011198Y015276D01*
X011063Y015334D02*
X010829Y015568D01*
X010829Y015334D01*
X010888Y015276D01*
X011004Y015276D01*
X011063Y015334D01*
X011063Y015568D01*
X011004Y015626D01*
X010888Y015626D01*
X010829Y015568D01*
X010888Y014926D02*
X010829Y014868D01*
X011063Y014634D01*
X011004Y014576D01*
X010888Y014576D01*
X010829Y014634D01*
X010829Y014868D01*
X010888Y014926D02*
X011004Y014926D01*
X011063Y014868D01*
X011063Y014634D01*
X011198Y014634D02*
X011256Y014576D01*
X011373Y014576D01*
X011431Y014634D01*
X011566Y014634D02*
X011624Y014576D01*
X011741Y014576D01*
X011799Y014634D01*
X011799Y014868D01*
X011741Y014926D01*
X011624Y014926D01*
X011566Y014868D01*
X011431Y014868D02*
X011373Y014926D01*
X011256Y014926D01*
X011198Y014868D01*
X011198Y014809D01*
X011256Y014751D01*
X011198Y014693D01*
X011198Y014634D01*
X011256Y014751D02*
X011314Y014751D01*
X011839Y013436D02*
X011956Y013378D01*
X012073Y013261D01*
X011898Y013261D01*
X011839Y013203D01*
X011839Y013144D01*
X011898Y013086D01*
X012014Y013086D01*
X012073Y013144D01*
X012073Y013261D01*
X012208Y013086D02*
X012441Y013086D01*
X012324Y013086D02*
X012324Y013436D01*
X012441Y013319D01*
X012576Y013378D02*
X012634Y013436D01*
X012751Y013436D01*
X012809Y013378D01*
X012809Y013144D01*
X012751Y013086D01*
X012634Y013086D01*
X012576Y013144D01*
X012634Y012936D02*
X012751Y012936D01*
X012809Y012878D01*
X012809Y012644D01*
X012751Y012586D01*
X012634Y012586D01*
X012576Y012644D01*
X012441Y012586D02*
X012208Y012586D01*
X012324Y012586D02*
X012324Y012936D01*
X012441Y012819D01*
X012576Y012878D02*
X012634Y012936D01*
X013049Y013125D02*
X013049Y013242D01*
X013049Y013184D02*
X013400Y013184D01*
X013400Y013242D02*
X013400Y013125D01*
X013341Y013371D02*
X013108Y013371D01*
X013049Y013429D01*
X013049Y013546D01*
X013108Y013604D01*
X013049Y013739D02*
X013049Y013973D01*
X013049Y013856D02*
X013400Y013856D01*
X013283Y013739D01*
X013341Y013604D02*
X013400Y013546D01*
X013400Y013429D01*
X013341Y013371D01*
X013400Y014107D02*
X013225Y014107D01*
X013283Y014224D01*
X013283Y014283D01*
X013225Y014341D01*
X013108Y014341D01*
X013049Y014283D01*
X013049Y014166D01*
X013108Y014107D01*
X013400Y014107D02*
X013400Y014341D01*
X012073Y012936D02*
X011839Y012936D01*
X011898Y012819D02*
X011839Y012761D01*
X011839Y012644D01*
X011898Y012586D01*
X012014Y012586D01*
X012073Y012644D01*
X012073Y012761D02*
X011956Y012819D01*
X011898Y012819D01*
X012073Y012761D02*
X012073Y012936D01*
X011031Y011847D02*
X011031Y010928D01*
X011031Y010255D01*
X010418Y010255D02*
X010418Y011847D01*
X010325Y011393D02*
X010266Y011276D01*
X010150Y011159D01*
X010150Y011334D01*
X010091Y011393D01*
X010033Y011393D01*
X009974Y011334D01*
X009974Y011217D01*
X010033Y011159D01*
X010150Y011159D01*
X009974Y011024D02*
X009974Y010791D01*
X010325Y010791D01*
X011543Y009626D02*
X011659Y009626D01*
X011718Y009568D01*
X011718Y009509D01*
X011659Y009451D01*
X011484Y009451D01*
X011484Y009334D02*
X011484Y009568D01*
X011543Y009626D01*
X011484Y009334D02*
X011543Y009276D01*
X011659Y009276D01*
X011718Y009334D01*
X011853Y009276D02*
X012086Y009276D01*
X011853Y009509D01*
X011853Y009568D01*
X011911Y009626D01*
X012028Y009626D01*
X012086Y009568D01*
X012221Y009568D02*
X012279Y009626D01*
X012396Y009626D01*
X012454Y009568D01*
X012454Y009334D01*
X012396Y009276D01*
X012279Y009276D01*
X012221Y009334D01*
X013898Y009476D02*
X014131Y009476D01*
X013898Y009709D01*
X013898Y009768D01*
X013956Y009826D01*
X014073Y009826D01*
X014131Y009768D01*
X014266Y009768D02*
X014266Y009534D01*
X014324Y009476D01*
X014441Y009476D01*
X014499Y009534D01*
X014499Y009768D01*
X014441Y009826D01*
X014324Y009826D01*
X014266Y009768D01*
X014383Y009593D02*
X014266Y009476D01*
X014191Y011426D02*
X013958Y011426D01*
X013899Y011484D01*
X013899Y011601D01*
X013958Y011659D01*
X013958Y011794D02*
X013899Y011794D01*
X013958Y011794D02*
X014191Y012028D01*
X014250Y012028D01*
X014250Y011794D01*
X014191Y011659D02*
X014250Y011601D01*
X014250Y011484D01*
X014191Y011426D01*
X016587Y011376D02*
X016774Y011376D01*
X016774Y011280D01*
X016774Y011376D02*
X016962Y011376D01*
X016774Y011376D02*
X016962Y011626D01*
X016774Y011626D01*
X016774Y011722D01*
X016774Y011626D02*
X016587Y011626D01*
X016774Y011376D01*
X016711Y010356D02*
X016478Y010356D01*
X016536Y010239D02*
X016478Y010181D01*
X016478Y010064D01*
X016536Y010006D01*
X016653Y010006D01*
X016711Y010064D01*
X016711Y010181D02*
X016594Y010239D01*
X016536Y010239D01*
X016711Y010181D02*
X016711Y010356D01*
X016846Y010298D02*
X016904Y010356D01*
X017079Y010356D01*
X017079Y010006D01*
X016904Y010006D01*
X016846Y010064D01*
X016846Y010298D01*
X017749Y009141D02*
X017749Y008907D01*
X017983Y009141D01*
X018041Y009141D01*
X018100Y009083D01*
X018100Y008966D01*
X018041Y008907D01*
X018100Y008656D02*
X017749Y008656D01*
X017749Y008539D02*
X017749Y008773D01*
X017983Y008539D02*
X018100Y008656D01*
X018041Y008404D02*
X018100Y008346D01*
X018100Y008229D01*
X018041Y008171D01*
X017808Y008171D01*
X017749Y008229D01*
X017749Y008346D01*
X017808Y008404D01*
X020014Y008681D02*
X020014Y006821D01*
X021184Y006821D01*
X021184Y008681D01*
X020014Y008681D01*
X020006Y009326D02*
X019948Y009384D01*
X019948Y009443D01*
X020006Y009501D01*
X020181Y009501D01*
X020181Y009384D01*
X020123Y009326D01*
X020006Y009326D01*
X020181Y009501D02*
X020064Y009618D01*
X019948Y009676D01*
X020316Y009618D02*
X020316Y009501D01*
X020374Y009443D01*
X020549Y009443D01*
X020433Y009443D02*
X020316Y009326D01*
X020549Y009326D02*
X020549Y009676D01*
X020374Y009676D01*
X020316Y009618D01*
X020653Y006741D02*
X020594Y006683D01*
X020594Y006624D01*
X020653Y006566D01*
X020594Y006508D01*
X020594Y006449D01*
X020653Y006391D01*
X020769Y006391D01*
X020828Y006449D01*
X020963Y006391D02*
X021196Y006391D01*
X021079Y006391D02*
X021079Y006741D01*
X021196Y006624D01*
X021331Y006683D02*
X021389Y006741D01*
X021506Y006741D01*
X021564Y006683D01*
X021564Y006449D01*
X021506Y006391D01*
X021389Y006391D01*
X021331Y006449D01*
X021693Y006391D02*
X021810Y006391D01*
X021752Y006391D02*
X021752Y006741D01*
X021810Y006741D02*
X021693Y006741D01*
X020828Y006683D02*
X020769Y006741D01*
X020653Y006741D01*
X020653Y006566D02*
X020711Y006566D01*
X019400Y006491D02*
X019400Y006257D01*
X019225Y006257D01*
X019283Y006374D01*
X019283Y006433D01*
X019225Y006491D01*
X019108Y006491D01*
X019049Y006433D01*
X019049Y006316D01*
X019108Y006257D01*
X019049Y006123D02*
X019166Y006006D01*
X019166Y006064D02*
X019166Y005889D01*
X019049Y005889D02*
X019400Y005889D01*
X019400Y006064D01*
X019341Y006123D01*
X019225Y006123D01*
X019166Y006064D01*
X020343Y003846D02*
X020518Y003671D01*
X020284Y003671D01*
X020343Y003496D02*
X020343Y003846D01*
X020653Y003788D02*
X020711Y003846D01*
X020828Y003846D01*
X020886Y003788D01*
X020886Y003554D01*
X020828Y003496D01*
X020711Y003496D01*
X020653Y003554D01*
X021015Y003496D02*
X021132Y003496D01*
X021073Y003496D02*
X021073Y003846D01*
X021015Y003846D02*
X021132Y003846D01*
X026334Y001276D02*
X026334Y001218D01*
X026568Y000984D01*
X026568Y000926D01*
X026703Y000926D02*
X026936Y000926D01*
X026703Y001159D01*
X026703Y001218D01*
X026761Y001276D01*
X026878Y001276D01*
X026936Y001218D01*
X027071Y001218D02*
X027129Y001276D01*
X027246Y001276D01*
X027304Y001218D01*
X027304Y000984D01*
X027246Y000926D01*
X027129Y000926D01*
X027071Y000984D01*
X026568Y001276D02*
X026334Y001276D01*
X029499Y003834D02*
X029499Y003951D01*
X029558Y004009D01*
X029499Y004144D02*
X029733Y004378D01*
X029791Y004378D01*
X029850Y004319D01*
X029850Y004202D01*
X029791Y004144D01*
X029791Y004009D02*
X029850Y003951D01*
X029850Y003834D01*
X029791Y003776D01*
X029558Y003776D01*
X029499Y003834D01*
X029499Y004144D02*
X029499Y004378D01*
X029675Y004512D02*
X029675Y004746D01*
X029850Y004688D02*
X029675Y004512D01*
X029499Y004688D02*
X029850Y004688D01*
X029866Y005489D02*
X029866Y005664D01*
X029925Y005723D01*
X030041Y005723D01*
X030100Y005664D01*
X030100Y005489D01*
X029749Y005489D01*
X029866Y005606D02*
X029749Y005723D01*
X029808Y005857D02*
X029749Y005916D01*
X029749Y006033D01*
X029808Y006091D01*
X029866Y006091D01*
X029925Y006033D01*
X029925Y005974D01*
X029925Y006033D02*
X029983Y006091D01*
X030041Y006091D01*
X030100Y006033D01*
X030100Y005916D01*
X030041Y005857D01*
X028149Y006026D02*
X028033Y006026D01*
X028091Y006026D02*
X028091Y005676D01*
X028149Y005676D02*
X028033Y005676D01*
X027904Y005734D02*
X027846Y005676D01*
X027729Y005676D01*
X027670Y005734D01*
X027536Y005734D02*
X027477Y005676D01*
X027360Y005676D01*
X027302Y005734D01*
X027302Y005851D01*
X027360Y005909D01*
X027419Y005909D01*
X027536Y005851D01*
X027536Y006026D01*
X027302Y006026D01*
X027670Y005968D02*
X027729Y006026D01*
X027846Y006026D01*
X027904Y005968D01*
X027904Y005734D01*
X030541Y003246D02*
X030308Y003012D01*
X030249Y003012D01*
X030308Y002878D02*
X030249Y002819D01*
X030249Y002702D01*
X030308Y002644D01*
X030249Y002509D02*
X030366Y002393D01*
X030366Y002451D02*
X030366Y002276D01*
X030249Y002276D02*
X030600Y002276D01*
X030600Y002451D01*
X030541Y002509D01*
X030425Y002509D01*
X030366Y002451D01*
X030541Y002644D02*
X030600Y002702D01*
X030600Y002819D01*
X030541Y002878D01*
X030483Y002878D01*
X030425Y002819D01*
X030366Y002878D01*
X030308Y002878D01*
X030425Y002819D02*
X030425Y002761D01*
X030600Y003012D02*
X030600Y003246D01*
X030541Y003246D01*
X030551Y001216D02*
X030609Y001158D01*
X030609Y000924D01*
X030551Y000866D01*
X030434Y000866D01*
X030376Y000924D01*
X030241Y000866D02*
X030008Y001099D01*
X030008Y001158D01*
X030066Y001216D01*
X030183Y001216D01*
X030241Y001158D01*
X030376Y001158D02*
X030434Y001216D01*
X030551Y001216D01*
X030241Y000866D02*
X030008Y000866D01*
X029873Y000924D02*
X029814Y000866D01*
X029698Y000866D01*
X029639Y000924D01*
X029639Y000983D01*
X029698Y001041D01*
X029756Y001041D01*
X029698Y001041D02*
X029639Y001099D01*
X029639Y001158D01*
X029698Y001216D01*
X029814Y001216D01*
X029873Y001158D01*
X034184Y004434D02*
X034243Y004376D01*
X034359Y004376D01*
X034418Y004434D01*
X034418Y004551D02*
X034301Y004609D01*
X034243Y004609D01*
X034184Y004551D01*
X034184Y004434D01*
X034418Y004551D02*
X034418Y004726D01*
X034184Y004726D01*
X034553Y004668D02*
X034553Y004609D01*
X034611Y004551D01*
X034553Y004493D01*
X034553Y004434D01*
X034611Y004376D01*
X034728Y004376D01*
X034786Y004434D01*
X034921Y004376D02*
X035038Y004493D01*
X034979Y004493D02*
X035154Y004493D01*
X035154Y004376D02*
X035154Y004726D01*
X034979Y004726D01*
X034921Y004668D01*
X034921Y004551D01*
X034979Y004493D01*
X034786Y004668D02*
X034728Y004726D01*
X034611Y004726D01*
X034553Y004668D01*
X034611Y004551D02*
X034669Y004551D01*
X035984Y003948D02*
X036218Y003714D01*
X036159Y003656D01*
X036043Y003656D01*
X035984Y003714D01*
X035984Y003948D01*
X036043Y004006D01*
X036159Y004006D01*
X036218Y003948D01*
X036218Y003714D01*
X036353Y003656D02*
X036586Y003656D01*
X036469Y003656D02*
X036469Y004006D01*
X036586Y003889D01*
X036721Y003948D02*
X036779Y004006D01*
X036896Y004006D01*
X036954Y003948D01*
X036954Y003714D01*
X036896Y003656D01*
X036779Y003656D01*
X036721Y003714D01*
X037526Y004986D02*
X037643Y004986D01*
X037701Y005044D01*
X037701Y005103D01*
X037643Y005161D01*
X037526Y005161D01*
X037468Y005103D01*
X037468Y005044D01*
X037526Y004986D01*
X037526Y005161D02*
X037468Y005219D01*
X037468Y005278D01*
X037526Y005336D01*
X037643Y005336D01*
X037701Y005278D01*
X037701Y005219D01*
X037643Y005161D01*
X037836Y005278D02*
X037894Y005336D01*
X038011Y005336D01*
X038069Y005278D01*
X038069Y005044D01*
X038011Y004986D01*
X037894Y004986D01*
X037836Y005044D01*
X039579Y005034D02*
X039638Y004976D01*
X039754Y004976D01*
X039813Y005034D01*
X039948Y004976D02*
X040181Y004976D01*
X040064Y004976D02*
X040064Y005326D01*
X040181Y005209D01*
X040316Y005268D02*
X040374Y005326D01*
X040491Y005326D01*
X040549Y005268D01*
X040549Y005034D01*
X040491Y004976D01*
X040374Y004976D01*
X040316Y005034D01*
X040374Y004626D02*
X040491Y004626D01*
X040549Y004568D01*
X040549Y004334D01*
X040491Y004276D01*
X040374Y004276D01*
X040316Y004334D01*
X040181Y004276D02*
X039948Y004276D01*
X040064Y004276D02*
X040064Y004626D01*
X040181Y004509D01*
X040316Y004568D02*
X040374Y004626D01*
X039813Y004451D02*
X039579Y004451D01*
X039638Y004626D02*
X039813Y004451D01*
X039638Y004276D02*
X039638Y004626D01*
X039579Y005034D02*
X039579Y005093D01*
X039638Y005151D01*
X039696Y005151D01*
X039638Y005151D02*
X039579Y005209D01*
X039579Y005268D01*
X039638Y005326D01*
X039754Y005326D01*
X039813Y005268D01*
X039672Y004050D02*
X041877Y004050D01*
X041877Y002702D02*
X039672Y002702D01*
X039061Y002959D02*
X039003Y002901D01*
X038886Y002901D01*
X038828Y002959D01*
X038693Y002901D02*
X038459Y002901D01*
X038576Y002901D02*
X038576Y003251D01*
X038693Y003134D01*
X038828Y003193D02*
X038886Y003251D01*
X039003Y003251D01*
X039061Y003193D01*
X039061Y002959D01*
X039029Y001776D02*
X038971Y001718D01*
X038971Y001601D01*
X039029Y001543D01*
X039204Y001543D01*
X039088Y001543D02*
X038971Y001426D01*
X038836Y001484D02*
X038778Y001426D01*
X038661Y001426D01*
X038603Y001484D01*
X038603Y001543D01*
X038661Y001601D01*
X038719Y001601D01*
X038661Y001601D02*
X038603Y001659D01*
X038603Y001718D01*
X038661Y001776D01*
X038778Y001776D01*
X038836Y001718D01*
X039029Y001776D02*
X039204Y001776D01*
X039204Y001426D01*
X038468Y001484D02*
X038234Y001718D01*
X038234Y001484D01*
X038293Y001426D01*
X038409Y001426D01*
X038468Y001484D01*
X038468Y001718D01*
X038409Y001776D01*
X038293Y001776D01*
X038234Y001718D01*
X037836Y001718D02*
X037836Y001484D01*
X037778Y001426D01*
X037661Y001426D01*
X037603Y001484D01*
X037468Y001484D02*
X037409Y001426D01*
X037293Y001426D01*
X037234Y001484D01*
X037234Y001718D01*
X037293Y001776D01*
X037409Y001776D01*
X037468Y001718D01*
X037468Y001659D01*
X037409Y001601D01*
X037234Y001601D01*
X037603Y001718D02*
X037661Y001776D01*
X037778Y001776D01*
X037836Y001718D01*
X035850Y001676D02*
X035850Y001559D01*
X035791Y001501D01*
X035558Y001501D01*
X035499Y001559D01*
X035499Y001676D01*
X035558Y001734D01*
X035791Y001734D01*
X035850Y001676D01*
X035733Y001869D02*
X035850Y001986D01*
X035499Y001986D01*
X035499Y001869D02*
X035499Y002103D01*
X035499Y001734D02*
X035616Y001618D01*
X040753Y002209D02*
X040753Y002443D01*
X040811Y002501D01*
X040928Y002501D01*
X040986Y002443D01*
X040986Y002384D01*
X040928Y002326D01*
X040753Y002326D01*
X040753Y002209D02*
X040811Y002151D01*
X040928Y002151D01*
X040986Y002209D01*
X041121Y002151D02*
X041355Y002151D01*
X041355Y002501D01*
X041336Y008026D02*
X041103Y008259D01*
X041103Y008318D01*
X041161Y008376D01*
X041278Y008376D01*
X041336Y008318D01*
X041471Y008318D02*
X041529Y008376D01*
X041646Y008376D01*
X041704Y008318D01*
X041704Y008084D01*
X041646Y008026D01*
X041529Y008026D01*
X041471Y008084D01*
X041336Y008026D02*
X041103Y008026D01*
X040968Y008084D02*
X040968Y008143D01*
X040909Y008201D01*
X040793Y008201D01*
X040734Y008143D01*
X040734Y008084D01*
X040793Y008026D01*
X040909Y008026D01*
X040968Y008084D01*
X040909Y008201D02*
X040968Y008259D01*
X040968Y008318D01*
X040909Y008376D01*
X040793Y008376D01*
X040734Y008318D01*
X040734Y008259D01*
X040793Y008201D01*
X033800Y011429D02*
X033741Y011371D01*
X033508Y011371D01*
X033449Y011429D01*
X033449Y011546D01*
X033508Y011604D01*
X033508Y011739D02*
X033449Y011798D01*
X033449Y011914D01*
X033508Y011973D01*
X033566Y011973D01*
X033625Y011914D01*
X033625Y011856D01*
X033625Y011914D02*
X033683Y011973D01*
X033741Y011973D01*
X033800Y011914D01*
X033800Y011798D01*
X033741Y011739D01*
X033741Y011604D02*
X033800Y011546D01*
X033800Y011429D01*
X033741Y012107D02*
X033800Y012166D01*
X033800Y012283D01*
X033741Y012341D01*
X033683Y012341D01*
X033449Y012107D01*
X033449Y012341D01*
X032830Y014711D02*
X032479Y014711D01*
X032596Y014711D02*
X032596Y014886D01*
X032655Y014944D01*
X032771Y014944D01*
X032830Y014886D01*
X032830Y014711D01*
X032596Y014828D02*
X032479Y014944D01*
X032479Y015079D02*
X032479Y015313D01*
X032479Y015196D02*
X032830Y015196D01*
X032713Y015079D01*
X032771Y015447D02*
X032830Y015506D01*
X032830Y015623D01*
X032771Y015681D01*
X032713Y015681D01*
X032655Y015623D01*
X032596Y015681D01*
X032538Y015681D01*
X032479Y015623D01*
X032479Y015506D01*
X032538Y015447D01*
X032655Y015564D02*
X032655Y015623D01*
X033149Y017876D02*
X033500Y017876D01*
X033500Y018051D01*
X033441Y018109D01*
X033325Y018109D01*
X033266Y018051D01*
X033266Y017876D01*
X033266Y017993D02*
X033149Y018109D01*
X033208Y018244D02*
X033266Y018244D01*
X033325Y018302D01*
X033325Y018419D01*
X033266Y018478D01*
X033208Y018478D01*
X033149Y018419D01*
X033149Y018302D01*
X033208Y018244D01*
X033325Y018302D02*
X033383Y018244D01*
X033441Y018244D01*
X033500Y018302D01*
X033500Y018419D01*
X033441Y018478D01*
X033383Y018478D01*
X033325Y018419D01*
X034714Y018151D02*
X034948Y018151D01*
X034773Y018326D01*
X034773Y017976D01*
X035083Y018034D02*
X035141Y017976D01*
X035258Y017976D01*
X035316Y018034D01*
X035316Y018268D01*
X035258Y018326D01*
X035141Y018326D01*
X035083Y018268D01*
X030799Y018426D02*
X030799Y018776D01*
X030624Y018776D01*
X030566Y018718D01*
X030566Y018601D01*
X030624Y018543D01*
X030799Y018543D01*
X030683Y018543D02*
X030566Y018426D01*
X030431Y018426D02*
X030198Y018426D01*
X030314Y018426D02*
X030314Y018776D01*
X030431Y018659D01*
X030063Y018659D02*
X029946Y018776D01*
X029946Y018426D01*
X030063Y018426D02*
X029829Y018426D01*
X030148Y018176D02*
X030148Y018118D01*
X030381Y017884D01*
X030381Y017826D01*
X030516Y017826D02*
X030633Y017943D01*
X030574Y017943D02*
X030749Y017943D01*
X030749Y017826D02*
X030749Y018176D01*
X030574Y018176D01*
X030516Y018118D01*
X030516Y018001D01*
X030574Y017943D01*
X030381Y018176D02*
X030148Y018176D01*
X027539Y018636D02*
X027423Y018636D01*
X027481Y018636D02*
X027481Y018986D01*
X027539Y018986D02*
X027423Y018986D01*
X027294Y018928D02*
X027294Y018694D01*
X027236Y018636D01*
X027119Y018636D01*
X027060Y018694D01*
X026926Y018694D02*
X026867Y018636D01*
X026750Y018636D01*
X026692Y018694D01*
X026692Y018753D01*
X026750Y018811D01*
X026809Y018811D01*
X026750Y018811D02*
X026692Y018869D01*
X026692Y018928D01*
X026750Y018986D01*
X026867Y018986D01*
X026926Y018928D01*
X027060Y018928D02*
X027119Y018986D01*
X027236Y018986D01*
X027294Y018928D01*
X024124Y016516D02*
X024124Y016166D01*
X024124Y016283D02*
X023949Y016283D01*
X023891Y016341D01*
X023891Y016458D01*
X023949Y016516D01*
X024124Y016516D01*
X024008Y016283D02*
X023891Y016166D01*
X023756Y016341D02*
X023523Y016341D01*
X023388Y016458D02*
X023329Y016516D01*
X023213Y016516D01*
X023154Y016458D01*
X023154Y016399D01*
X023213Y016341D01*
X023154Y016283D01*
X023154Y016224D01*
X023213Y016166D01*
X023329Y016166D01*
X023388Y016224D01*
X023271Y016341D02*
X023213Y016341D01*
X023581Y016166D02*
X023581Y016516D01*
X023756Y016341D01*
X021959Y016386D02*
X021959Y016736D01*
X021784Y016736D01*
X021726Y016678D01*
X021726Y016561D01*
X021784Y016503D01*
X021959Y016503D01*
X021843Y016503D02*
X021726Y016386D01*
X021591Y016561D02*
X021358Y016561D01*
X021223Y016561D02*
X020989Y016561D01*
X021048Y016736D02*
X021223Y016561D01*
X021048Y016386D02*
X021048Y016736D01*
X021416Y016736D02*
X021591Y016561D01*
X021416Y016386D02*
X021416Y016736D01*
X019499Y016486D02*
X019499Y016136D01*
X019324Y016136D01*
X019266Y016194D01*
X019266Y016428D01*
X019324Y016486D01*
X019499Y016486D01*
X019131Y016311D02*
X018898Y016311D01*
X018956Y016486D02*
X019131Y016311D01*
X018956Y016136D02*
X018956Y016486D01*
X018499Y016476D02*
X018499Y016126D01*
X018499Y016243D02*
X018324Y016243D01*
X018266Y016301D01*
X018266Y016418D01*
X018324Y016476D01*
X018499Y016476D01*
X018383Y016243D02*
X018266Y016126D01*
X018131Y016126D02*
X017898Y016126D01*
X018014Y016126D02*
X018014Y016476D01*
X018131Y016359D01*
X017763Y016476D02*
X017529Y016476D01*
X017529Y016418D01*
X017763Y016184D01*
X017763Y016126D01*
X017500Y015798D02*
X017441Y015798D01*
X017208Y015565D01*
X017149Y015565D01*
X017208Y015430D02*
X017149Y015371D01*
X017149Y015255D01*
X017208Y015196D01*
X017441Y015196D01*
X017500Y015255D01*
X017500Y015371D01*
X017441Y015430D01*
X017500Y015565D02*
X017500Y015798D01*
X017500Y015068D02*
X017500Y014951D01*
X017500Y015009D02*
X017149Y015009D01*
X017149Y014951D02*
X017149Y015068D01*
X019053Y015601D02*
X019149Y015601D01*
X019149Y015788D01*
X019399Y015601D01*
X019495Y015601D01*
X019399Y015601D02*
X019399Y015788D01*
X019399Y015601D02*
X019399Y015413D01*
X019399Y015601D02*
X019149Y015413D01*
X019149Y015601D01*
X023949Y014333D02*
X023949Y014216D01*
X024008Y014157D01*
X024066Y014157D01*
X024125Y014216D01*
X024125Y014333D01*
X024066Y014391D01*
X024008Y014391D01*
X023949Y014333D01*
X024125Y014333D02*
X024183Y014391D01*
X024241Y014391D01*
X024300Y014333D01*
X024300Y014216D01*
X024241Y014157D01*
X024183Y014157D01*
X024125Y014216D01*
X024241Y014023D02*
X024300Y013964D01*
X024300Y013847D01*
X024241Y013789D01*
X024008Y013789D01*
X023949Y013847D01*
X023949Y013964D01*
X024008Y014023D01*
X023949Y013660D02*
X023949Y013544D01*
X023949Y013602D02*
X024300Y013602D01*
X024300Y013544D02*
X024300Y013660D01*
X027729Y013734D02*
X027729Y013793D01*
X027788Y013851D01*
X027963Y013851D01*
X027963Y013734D01*
X027904Y013676D01*
X027788Y013676D01*
X027729Y013734D01*
X027846Y013968D02*
X027729Y014026D01*
X027846Y013968D02*
X027963Y013851D01*
X028098Y013676D02*
X028331Y013676D01*
X028214Y013676D02*
X028214Y014026D01*
X028331Y013909D01*
X028466Y013851D02*
X028524Y013793D01*
X028699Y013793D01*
X028583Y013793D02*
X028466Y013676D01*
X028466Y013851D02*
X028466Y013968D01*
X028524Y014026D01*
X028699Y014026D01*
X028699Y013676D01*
X029249Y013678D02*
X029249Y013444D01*
X029249Y013561D02*
X029600Y013561D01*
X029483Y013444D01*
X029541Y013309D02*
X029425Y013309D01*
X029366Y013251D01*
X029366Y013076D01*
X029366Y013193D02*
X029249Y013309D01*
X029249Y013076D02*
X029600Y013076D01*
X029600Y013251D01*
X029541Y013309D01*
X029541Y013812D02*
X029308Y013812D01*
X029541Y014046D01*
X029308Y014046D01*
X029249Y013988D01*
X029249Y013871D01*
X029308Y013812D01*
X029541Y013812D02*
X029600Y013871D01*
X029600Y013988D01*
X029541Y014046D01*
X028941Y011691D02*
X029000Y011633D01*
X029000Y011516D01*
X028941Y011457D01*
X028883Y011457D01*
X028825Y011516D01*
X028825Y011691D01*
X028941Y011691D02*
X028708Y011691D01*
X028649Y011633D01*
X028649Y011516D01*
X028708Y011457D01*
X028649Y011323D02*
X028766Y011206D01*
X028766Y011264D02*
X028766Y011089D01*
X028649Y011089D02*
X029000Y011089D01*
X029000Y011264D01*
X028941Y011323D01*
X028825Y011323D01*
X028766Y011264D01*
X030423Y010843D02*
X030423Y010784D01*
X030481Y010726D01*
X030423Y010668D01*
X030423Y010609D01*
X030481Y010551D01*
X030598Y010551D01*
X030656Y010609D01*
X030791Y010609D02*
X030849Y010551D01*
X030966Y010551D01*
X031024Y010609D01*
X031024Y010843D01*
X030966Y010901D01*
X030849Y010901D01*
X030791Y010843D01*
X030656Y010843D02*
X030598Y010901D01*
X030481Y010901D01*
X030423Y010843D01*
X030481Y010726D02*
X030539Y010726D01*
X027750Y009379D02*
X027399Y009379D01*
X027399Y009262D02*
X027399Y009496D01*
X027633Y009262D02*
X027750Y009379D01*
X027750Y009011D02*
X027399Y009011D01*
X027399Y008894D02*
X027399Y009128D01*
X027633Y008894D02*
X027750Y009011D01*
X027691Y008759D02*
X027750Y008701D01*
X027750Y008584D01*
X027691Y008526D01*
X027458Y008526D01*
X027399Y008584D01*
X027399Y008701D01*
X027458Y008759D01*
X013316Y003608D02*
X013316Y003374D01*
X013258Y003316D01*
X013141Y003316D01*
X013083Y003374D01*
X012948Y003374D02*
X012889Y003316D01*
X012773Y003316D01*
X012714Y003374D01*
X012714Y003491D01*
X012773Y003549D01*
X012831Y003549D01*
X012948Y003491D01*
X012948Y003666D01*
X012714Y003666D01*
X013083Y003608D02*
X013141Y003666D01*
X013258Y003666D01*
X013316Y003608D01*
X013149Y005626D02*
X013149Y005976D01*
X012974Y005976D01*
X012916Y005918D01*
X012916Y005801D01*
X012974Y005743D01*
X013149Y005743D01*
X013033Y005743D02*
X012916Y005626D01*
X012781Y005626D02*
X012548Y005859D01*
X012548Y005918D01*
X012606Y005976D01*
X012723Y005976D01*
X012781Y005918D01*
X012781Y005626D02*
X012548Y005626D01*
X012413Y005684D02*
X012179Y005918D01*
X012179Y005684D01*
X012238Y005626D01*
X012354Y005626D01*
X012413Y005684D01*
X012413Y005918D01*
X012354Y005976D01*
X012238Y005976D01*
X012179Y005918D01*
X010499Y006101D02*
X010324Y006101D01*
X010266Y006159D01*
X010266Y006393D01*
X010324Y006451D01*
X010499Y006451D01*
X010499Y006101D01*
X010131Y006101D02*
X009898Y006101D01*
X010014Y006101D02*
X010014Y006451D01*
X010131Y006334D01*
X009999Y007530D02*
X009999Y007626D01*
X010187Y007626D01*
X009999Y007626D02*
X009812Y007626D01*
X009999Y007626D02*
X009812Y007876D01*
X009999Y007876D01*
X009999Y007972D01*
X009999Y007876D02*
X010187Y007876D01*
X009999Y007626D01*
X008050Y007721D02*
X008050Y007896D01*
X007991Y007954D01*
X007875Y007954D01*
X007816Y007896D01*
X007816Y007721D01*
X007699Y007721D02*
X008050Y007721D01*
X007816Y007838D02*
X007699Y007954D01*
X007699Y008089D02*
X007699Y008323D01*
X007699Y008206D02*
X008050Y008206D01*
X007933Y008089D01*
X007991Y008457D02*
X008050Y008516D01*
X008050Y008633D01*
X007991Y008691D01*
X007933Y008691D01*
X007699Y008457D01*
X007699Y008691D01*
X007152Y009436D02*
X007035Y009436D01*
X007093Y009436D02*
X007093Y009786D01*
X007035Y009786D02*
X007152Y009786D01*
X006906Y009728D02*
X006906Y009494D01*
X006848Y009436D01*
X006731Y009436D01*
X006673Y009494D01*
X006538Y009436D02*
X006304Y009669D01*
X006304Y009728D01*
X006363Y009786D01*
X006479Y009786D01*
X006538Y009728D01*
X006673Y009728D02*
X006731Y009786D01*
X006848Y009786D01*
X006906Y009728D01*
X006538Y009436D02*
X006304Y009436D01*
X005591Y010226D02*
X005474Y010226D01*
X005416Y010284D01*
X005281Y010226D02*
X005048Y010459D01*
X005048Y010518D01*
X005106Y010576D01*
X005223Y010576D01*
X005281Y010518D01*
X005416Y010518D02*
X005474Y010576D01*
X005591Y010576D01*
X005649Y010518D01*
X005649Y010284D01*
X005591Y010226D01*
X005281Y010226D02*
X005048Y010226D01*
X004913Y010284D02*
X004854Y010226D01*
X004738Y010226D01*
X004679Y010284D01*
X004679Y010401D01*
X004738Y010459D01*
X004796Y010459D01*
X004913Y010401D01*
X004913Y010576D01*
X004679Y010576D01*
X005269Y007016D02*
X005386Y006958D01*
X005503Y006841D01*
X005328Y006841D01*
X005269Y006783D01*
X005269Y006724D01*
X005328Y006666D01*
X005444Y006666D01*
X005503Y006724D01*
X005503Y006841D01*
X005638Y006899D02*
X005871Y006666D01*
X005638Y006666D01*
X005638Y006899D02*
X005638Y006958D01*
X005696Y007016D01*
X005813Y007016D01*
X005871Y006958D01*
X006006Y006958D02*
X006064Y007016D01*
X006181Y007016D01*
X006239Y006958D01*
X006239Y006724D01*
X006181Y006666D01*
X006064Y006666D01*
X006006Y006724D01*
X004000Y005983D02*
X004000Y005866D01*
X003941Y005807D01*
X003883Y005807D01*
X003825Y005866D01*
X003825Y006041D01*
X003941Y006041D02*
X003708Y006041D01*
X003649Y005983D01*
X003649Y005866D01*
X003708Y005807D01*
X003708Y005673D02*
X003649Y005614D01*
X003649Y005497D01*
X003708Y005439D01*
X003941Y005439D01*
X004000Y005497D01*
X004000Y005614D01*
X003941Y005673D01*
X004000Y005983D02*
X003941Y006041D01*
X004000Y005310D02*
X004000Y005194D01*
X004000Y005252D02*
X003649Y005252D01*
X003649Y005194D02*
X003649Y005310D01*
X006188Y001826D02*
X006304Y001826D01*
X006363Y001768D01*
X006363Y001709D01*
X006304Y001651D01*
X006129Y001651D01*
X006129Y001768D02*
X006188Y001826D01*
X006129Y001768D02*
X006129Y001534D01*
X006188Y001476D01*
X006304Y001476D01*
X006363Y001534D01*
X006498Y001476D02*
X006731Y001476D01*
X006614Y001476D02*
X006614Y001826D01*
X006731Y001709D01*
X006866Y001768D02*
X006924Y001826D01*
X007041Y001826D01*
X007099Y001768D01*
X007099Y001534D01*
X007041Y001476D01*
X006924Y001476D01*
X006866Y001534D01*
X009293Y017316D02*
X009235Y017375D01*
X009235Y017433D01*
X009293Y017491D01*
X009468Y017491D01*
X009468Y017375D01*
X009410Y017316D01*
X009293Y017316D01*
X009468Y017491D02*
X009352Y017608D01*
X009235Y017667D01*
X009603Y017608D02*
X009661Y017667D01*
X009778Y017667D01*
X009837Y017608D01*
X009837Y017375D01*
X009778Y017316D01*
X009661Y017316D01*
X009603Y017375D01*
X009965Y017316D02*
X010082Y017316D01*
X010024Y017316D02*
X010024Y017667D01*
X010082Y017667D02*
X009965Y017667D01*
D15*
X015704Y014801D02*
X015704Y012801D01*
X020874Y008461D02*
X020876Y008484D01*
X020882Y008506D01*
X020891Y008528D01*
X020904Y008547D01*
X020919Y008564D01*
X020937Y008578D01*
X020958Y008589D01*
X020980Y008597D01*
X021002Y008601D01*
X021026Y008601D01*
X021048Y008597D01*
X021070Y008589D01*
X021091Y008578D01*
X021109Y008564D01*
X021124Y008547D01*
X021137Y008528D01*
X021146Y008506D01*
X021152Y008484D01*
X021154Y008461D01*
X021152Y008438D01*
X021146Y008416D01*
X021137Y008394D01*
X021124Y008375D01*
X021109Y008358D01*
X021091Y008344D01*
X021070Y008333D01*
X021048Y008325D01*
X021026Y008321D01*
X021002Y008321D01*
X020980Y008325D01*
X020958Y008333D01*
X020937Y008344D01*
X020919Y008358D01*
X020904Y008375D01*
X020891Y008394D01*
X020882Y008416D01*
X020876Y008438D01*
X020874Y008461D01*
X022704Y009951D02*
X022704Y015051D01*
X026574Y003371D02*
X028574Y003371D01*
X005144Y004501D02*
X005144Y006501D01*
X005194Y007351D02*
X005194Y009351D01*
X007294Y035701D02*
X007294Y037701D01*
D16*
X021762Y008977D02*
X021762Y008730D01*
X021762Y008853D02*
X022132Y008853D01*
X022009Y008730D01*
D17*
X022869Y010251D03*
X022869Y010751D03*
X022869Y011251D03*
X022869Y011751D03*
X022869Y012251D03*
X022869Y012751D03*
X022869Y013251D03*
X022869Y013751D03*
X022869Y014251D03*
X022869Y014751D03*
X019879Y014751D03*
X019879Y014251D03*
X019879Y013751D03*
X019879Y013251D03*
X019879Y012751D03*
X019879Y012251D03*
X019879Y011751D03*
X019879Y011251D03*
X019879Y010751D03*
X019879Y010251D03*
D18*
X015664Y008001D03*
D19*
X010724Y011051D03*
D20*
X040774Y003376D03*
D21*
X027695Y019426D02*
X027695Y020076D01*
X026554Y020076D02*
X026554Y019426D01*
X019849Y003922D02*
X019200Y003922D01*
X019200Y002780D02*
X019849Y002780D01*
D22*
X019318Y002898D03*
X027577Y019544D03*
D23*
X029146Y010356D02*
X030603Y010356D01*
X030603Y009963D01*
X030603Y008939D02*
X030603Y008545D01*
X029146Y008545D01*
X029146Y008206D02*
X030603Y008206D01*
X030603Y007813D01*
X030603Y006789D02*
X030603Y006395D01*
X029146Y006395D01*
X029146Y007143D02*
X029146Y007458D01*
X029146Y009293D02*
X029146Y009608D01*
D24*
X039374Y034796D03*
X039499Y037796D03*
D25*
X038249Y025701D03*
M02*
