G75*
G70*
%OFA0B0*%
%FSLAX24Y24*%
%IPPOS*%
%LPD*%
%AMOC8*
5,1,8,0,0,1.08239X$1,22.5*
%
%ADD10C,0.1339*%
%ADD11R,0.1100X0.2550*%
%ADD12R,0.0700X0.2550*%
%ADD13R,0.0850X0.2550*%
%ADD14R,0.1450X0.1200*%
%ADD15R,0.1100X0.1250*%
%ADD16R,0.0750X0.0700*%
%ADD17C,0.0044*%
%ADD18C,0.0043*%
%ADD19C,0.0594*%
%ADD20C,0.0042*%
%ADD21C,0.0512*%
%ADD22C,0.0985*%
%ADD23C,0.0749*%
%ADD24C,0.0041*%
%ADD25C,0.0560*%
%ADD26C,0.0640*%
%ADD27OC8,0.0560*%
%ADD28C,0.0043*%
%ADD29C,0.0043*%
%ADD30C,0.0041*%
%ADD31C,0.0040*%
%ADD32OC8,0.0600*%
%ADD33C,0.0041*%
%ADD34C,0.0041*%
%ADD35C,0.0040*%
%ADD36C,0.0634*%
%ADD37R,0.0780X0.0780*%
%ADD38C,0.0780*%
%ADD39C,0.2040*%
%ADD40C,0.1346*%
%ADD41C,0.0602*%
%ADD42OC8,0.0670*%
%ADD43C,0.0670*%
%ADD44OC8,0.0808*%
%ADD45C,0.0925*%
%ADD46C,0.0046*%
%ADD47C,0.0042*%
D10*
X006274Y003301D03*
X015874Y018251D03*
X028624Y018251D03*
X034874Y003251D03*
D11*
X040874Y020076D03*
D12*
X041924Y020026D03*
D13*
X039749Y020026D03*
D14*
X039449Y020701D03*
D15*
X042124Y020676D03*
D16*
X016149Y037351D03*
X012899Y037351D03*
D17*
X005002Y037744D02*
X004494Y037744D01*
X005002Y037744D02*
X005002Y037158D01*
X004494Y037158D01*
X004494Y037744D01*
X004494Y037201D02*
X005002Y037201D01*
X005002Y037244D02*
X004494Y037244D01*
X004494Y037287D02*
X005002Y037287D01*
X005002Y037330D02*
X004494Y037330D01*
X004494Y037373D02*
X005002Y037373D01*
X005002Y037416D02*
X004494Y037416D01*
X004494Y037459D02*
X005002Y037459D01*
X005002Y037502D02*
X004494Y037502D01*
X004494Y037545D02*
X005002Y037545D01*
X005002Y037588D02*
X004494Y037588D01*
X004494Y037631D02*
X005002Y037631D01*
X005002Y037674D02*
X004494Y037674D01*
X004494Y037717D02*
X005002Y037717D01*
X004254Y037744D02*
X003746Y037744D01*
X004254Y037744D02*
X004254Y037158D01*
X003746Y037158D01*
X003746Y037744D01*
X003746Y037201D02*
X004254Y037201D01*
X004254Y037244D02*
X003746Y037244D01*
X003746Y037287D02*
X004254Y037287D01*
X004254Y037330D02*
X003746Y037330D01*
X003746Y037373D02*
X004254Y037373D01*
X004254Y037416D02*
X003746Y037416D01*
X003746Y037459D02*
X004254Y037459D01*
X004254Y037502D02*
X003746Y037502D01*
X003746Y037545D02*
X004254Y037545D01*
X004254Y037588D02*
X003746Y037588D01*
X003746Y037631D02*
X004254Y037631D01*
X004254Y037674D02*
X003746Y037674D01*
X003746Y037717D02*
X004254Y037717D01*
X017131Y018879D02*
X017131Y018371D01*
X017131Y018879D02*
X017717Y018879D01*
X017717Y018371D01*
X017131Y018371D01*
X017131Y018414D02*
X017717Y018414D01*
X017717Y018457D02*
X017131Y018457D01*
X017131Y018500D02*
X017717Y018500D01*
X017717Y018543D02*
X017131Y018543D01*
X017131Y018586D02*
X017717Y018586D01*
X017717Y018629D02*
X017131Y018629D01*
X017131Y018672D02*
X017717Y018672D01*
X017717Y018715D02*
X017131Y018715D01*
X017131Y018758D02*
X017717Y018758D01*
X017717Y018801D02*
X017131Y018801D01*
X017131Y018844D02*
X017717Y018844D01*
X017131Y018131D02*
X017131Y017623D01*
X017131Y018131D02*
X017717Y018131D01*
X017717Y017623D01*
X017131Y017623D01*
X017131Y017666D02*
X017717Y017666D01*
X017717Y017709D02*
X017131Y017709D01*
X017131Y017752D02*
X017717Y017752D01*
X017717Y017795D02*
X017131Y017795D01*
X017131Y017838D02*
X017717Y017838D01*
X017717Y017881D02*
X017131Y017881D01*
X017131Y017924D02*
X017717Y017924D01*
X017717Y017967D02*
X017131Y017967D01*
X017131Y018010D02*
X017717Y018010D01*
X017717Y018053D02*
X017131Y018053D01*
X017131Y018096D02*
X017717Y018096D01*
X017854Y017144D02*
X017346Y017144D01*
X017854Y017144D02*
X017854Y016558D01*
X017346Y016558D01*
X017346Y017144D01*
X017346Y016601D02*
X017854Y016601D01*
X017854Y016644D02*
X017346Y016644D01*
X017346Y016687D02*
X017854Y016687D01*
X017854Y016730D02*
X017346Y016730D01*
X017346Y016773D02*
X017854Y016773D01*
X017854Y016816D02*
X017346Y016816D01*
X017346Y016859D02*
X017854Y016859D01*
X017854Y016902D02*
X017346Y016902D01*
X017346Y016945D02*
X017854Y016945D01*
X017854Y016988D02*
X017346Y016988D01*
X017346Y017031D02*
X017854Y017031D01*
X017854Y017074D02*
X017346Y017074D01*
X017346Y017117D02*
X017854Y017117D01*
X018094Y017144D02*
X018602Y017144D01*
X018602Y016558D01*
X018094Y016558D01*
X018094Y017144D01*
X018094Y016601D02*
X018602Y016601D01*
X018602Y016644D02*
X018094Y016644D01*
X018094Y016687D02*
X018602Y016687D01*
X018602Y016730D02*
X018094Y016730D01*
X018094Y016773D02*
X018602Y016773D01*
X018602Y016816D02*
X018094Y016816D01*
X018094Y016859D02*
X018602Y016859D01*
X018602Y016902D02*
X018094Y016902D01*
X018094Y016945D02*
X018602Y016945D01*
X018602Y016988D02*
X018094Y016988D01*
X018094Y017031D02*
X018602Y017031D01*
X018602Y017074D02*
X018094Y017074D01*
X018094Y017117D02*
X018602Y017117D01*
X018859Y015190D02*
X018273Y015190D01*
X018273Y016012D01*
X018859Y016012D01*
X018859Y015190D01*
X018859Y015233D02*
X018273Y015233D01*
X018273Y015276D02*
X018859Y015276D01*
X018859Y015319D02*
X018273Y015319D01*
X018273Y015362D02*
X018859Y015362D01*
X018859Y015405D02*
X018273Y015405D01*
X018273Y015448D02*
X018859Y015448D01*
X018859Y015491D02*
X018273Y015491D01*
X018273Y015534D02*
X018859Y015534D01*
X018859Y015577D02*
X018273Y015577D01*
X018273Y015620D02*
X018859Y015620D01*
X018859Y015663D02*
X018273Y015663D01*
X018273Y015706D02*
X018859Y015706D01*
X018859Y015749D02*
X018273Y015749D01*
X018273Y015792D02*
X018859Y015792D01*
X018859Y015835D02*
X018273Y015835D01*
X018273Y015878D02*
X018859Y015878D01*
X018859Y015921D02*
X018273Y015921D01*
X018273Y015964D02*
X018859Y015964D01*
X018859Y016007D02*
X018273Y016007D01*
X019690Y015190D02*
X020276Y015190D01*
X019690Y015190D02*
X019690Y016012D01*
X020276Y016012D01*
X020276Y015190D01*
X020276Y015233D02*
X019690Y015233D01*
X019690Y015276D02*
X020276Y015276D01*
X020276Y015319D02*
X019690Y015319D01*
X019690Y015362D02*
X020276Y015362D01*
X020276Y015405D02*
X019690Y015405D01*
X019690Y015448D02*
X020276Y015448D01*
X020276Y015491D02*
X019690Y015491D01*
X019690Y015534D02*
X020276Y015534D01*
X020276Y015577D02*
X019690Y015577D01*
X019690Y015620D02*
X020276Y015620D01*
X020276Y015663D02*
X019690Y015663D01*
X019690Y015706D02*
X020276Y015706D01*
X020276Y015749D02*
X019690Y015749D01*
X019690Y015792D02*
X020276Y015792D01*
X020276Y015835D02*
X019690Y015835D01*
X019690Y015878D02*
X020276Y015878D01*
X020276Y015921D02*
X019690Y015921D01*
X019690Y015964D02*
X020276Y015964D01*
X020276Y016007D02*
X019690Y016007D01*
X020896Y015708D02*
X021404Y015708D01*
X020896Y015708D02*
X020896Y016294D01*
X021404Y016294D01*
X021404Y015708D01*
X021404Y015751D02*
X020896Y015751D01*
X020896Y015794D02*
X021404Y015794D01*
X021404Y015837D02*
X020896Y015837D01*
X020896Y015880D02*
X021404Y015880D01*
X021404Y015923D02*
X020896Y015923D01*
X020896Y015966D02*
X021404Y015966D01*
X021404Y016009D02*
X020896Y016009D01*
X020896Y016052D02*
X021404Y016052D01*
X021404Y016095D02*
X020896Y016095D01*
X020896Y016138D02*
X021404Y016138D01*
X021404Y016181D02*
X020896Y016181D01*
X020896Y016224D02*
X021404Y016224D01*
X021404Y016267D02*
X020896Y016267D01*
X021644Y015708D02*
X022152Y015708D01*
X021644Y015708D02*
X021644Y016294D01*
X022152Y016294D01*
X022152Y015708D01*
X022152Y015751D02*
X021644Y015751D01*
X021644Y015794D02*
X022152Y015794D01*
X022152Y015837D02*
X021644Y015837D01*
X021644Y015880D02*
X022152Y015880D01*
X022152Y015923D02*
X021644Y015923D01*
X021644Y015966D02*
X022152Y015966D01*
X022152Y016009D02*
X021644Y016009D01*
X021644Y016052D02*
X022152Y016052D01*
X022152Y016095D02*
X021644Y016095D01*
X021644Y016138D02*
X022152Y016138D01*
X022152Y016181D02*
X021644Y016181D01*
X021644Y016224D02*
X022152Y016224D01*
X022152Y016267D02*
X021644Y016267D01*
X022996Y015458D02*
X023504Y015458D01*
X022996Y015458D02*
X022996Y016044D01*
X023504Y016044D01*
X023504Y015458D01*
X023504Y015501D02*
X022996Y015501D01*
X022996Y015544D02*
X023504Y015544D01*
X023504Y015587D02*
X022996Y015587D01*
X022996Y015630D02*
X023504Y015630D01*
X023504Y015673D02*
X022996Y015673D01*
X022996Y015716D02*
X023504Y015716D01*
X023504Y015759D02*
X022996Y015759D01*
X022996Y015802D02*
X023504Y015802D01*
X023504Y015845D02*
X022996Y015845D01*
X022996Y015888D02*
X023504Y015888D01*
X023504Y015931D02*
X022996Y015931D01*
X022996Y015974D02*
X023504Y015974D01*
X023504Y016017D02*
X022996Y016017D01*
X023744Y015458D02*
X024252Y015458D01*
X023744Y015458D02*
X023744Y016044D01*
X024252Y016044D01*
X024252Y015458D01*
X024252Y015501D02*
X023744Y015501D01*
X023744Y015544D02*
X024252Y015544D01*
X024252Y015587D02*
X023744Y015587D01*
X023744Y015630D02*
X024252Y015630D01*
X024252Y015673D02*
X023744Y015673D01*
X023744Y015716D02*
X024252Y015716D01*
X024252Y015759D02*
X023744Y015759D01*
X023744Y015802D02*
X024252Y015802D01*
X024252Y015845D02*
X023744Y015845D01*
X023744Y015888D02*
X024252Y015888D01*
X024252Y015931D02*
X023744Y015931D01*
X023744Y015974D02*
X024252Y015974D01*
X024252Y016017D02*
X023744Y016017D01*
X027496Y013544D02*
X028004Y013544D01*
X028004Y012958D01*
X027496Y012958D01*
X027496Y013544D01*
X027496Y013001D02*
X028004Y013001D01*
X028004Y013044D02*
X027496Y013044D01*
X027496Y013087D02*
X028004Y013087D01*
X028004Y013130D02*
X027496Y013130D01*
X027496Y013173D02*
X028004Y013173D01*
X028004Y013216D02*
X027496Y013216D01*
X027496Y013259D02*
X028004Y013259D01*
X028004Y013302D02*
X027496Y013302D01*
X027496Y013345D02*
X028004Y013345D01*
X028004Y013388D02*
X027496Y013388D01*
X027496Y013431D02*
X028004Y013431D01*
X028004Y013474D02*
X027496Y013474D01*
X027496Y013517D02*
X028004Y013517D01*
X028244Y013544D02*
X028752Y013544D01*
X028752Y012958D01*
X028244Y012958D01*
X028244Y013544D01*
X028244Y013001D02*
X028752Y013001D01*
X028752Y013044D02*
X028244Y013044D01*
X028244Y013087D02*
X028752Y013087D01*
X028752Y013130D02*
X028244Y013130D01*
X028244Y013173D02*
X028752Y013173D01*
X028752Y013216D02*
X028244Y013216D01*
X028244Y013259D02*
X028752Y013259D01*
X028752Y013302D02*
X028244Y013302D01*
X028244Y013345D02*
X028752Y013345D01*
X028752Y013388D02*
X028244Y013388D01*
X028244Y013431D02*
X028752Y013431D01*
X028752Y013474D02*
X028244Y013474D01*
X028244Y013517D02*
X028752Y013517D01*
X030417Y013581D02*
X030417Y013073D01*
X029831Y013073D01*
X029831Y013581D01*
X030417Y013581D01*
X030417Y013116D02*
X029831Y013116D01*
X029831Y013159D02*
X030417Y013159D01*
X030417Y013202D02*
X029831Y013202D01*
X029831Y013245D02*
X030417Y013245D01*
X030417Y013288D02*
X029831Y013288D01*
X029831Y013331D02*
X030417Y013331D01*
X030417Y013374D02*
X029831Y013374D01*
X029831Y013417D02*
X030417Y013417D01*
X030417Y013460D02*
X029831Y013460D01*
X029831Y013503D02*
X030417Y013503D01*
X030417Y013546D02*
X029831Y013546D01*
X030417Y013821D02*
X030417Y014329D01*
X030417Y013821D02*
X029831Y013821D01*
X029831Y014329D01*
X030417Y014329D01*
X030417Y013864D02*
X029831Y013864D01*
X029831Y013907D02*
X030417Y013907D01*
X030417Y013950D02*
X029831Y013950D01*
X029831Y013993D02*
X030417Y013993D01*
X030417Y014036D02*
X029831Y014036D01*
X029831Y014079D02*
X030417Y014079D01*
X030417Y014122D02*
X029831Y014122D01*
X029831Y014165D02*
X030417Y014165D01*
X030417Y014208D02*
X029831Y014208D01*
X029831Y014251D02*
X030417Y014251D01*
X030417Y014294D02*
X029831Y014294D01*
X030942Y012404D02*
X030942Y011896D01*
X030356Y011896D01*
X030356Y012404D01*
X030942Y012404D01*
X030942Y011939D02*
X030356Y011939D01*
X030356Y011982D02*
X030942Y011982D01*
X030942Y012025D02*
X030356Y012025D01*
X030356Y012068D02*
X030942Y012068D01*
X030942Y012111D02*
X030356Y012111D01*
X030356Y012154D02*
X030942Y012154D01*
X030942Y012197D02*
X030356Y012197D01*
X030356Y012240D02*
X030942Y012240D01*
X030942Y012283D02*
X030356Y012283D01*
X030356Y012326D02*
X030942Y012326D01*
X030942Y012369D02*
X030356Y012369D01*
X029081Y011879D02*
X029081Y011371D01*
X029081Y011879D02*
X029667Y011879D01*
X029667Y011371D01*
X029081Y011371D01*
X029081Y011414D02*
X029667Y011414D01*
X029667Y011457D02*
X029081Y011457D01*
X029081Y011500D02*
X029667Y011500D01*
X029667Y011543D02*
X029081Y011543D01*
X029081Y011586D02*
X029667Y011586D01*
X029667Y011629D02*
X029081Y011629D01*
X029081Y011672D02*
X029667Y011672D01*
X029667Y011715D02*
X029081Y011715D01*
X029081Y011758D02*
X029667Y011758D01*
X029667Y011801D02*
X029081Y011801D01*
X029081Y011844D02*
X029667Y011844D01*
X029081Y011131D02*
X029081Y010623D01*
X029081Y011131D02*
X029667Y011131D01*
X029667Y010623D01*
X029081Y010623D01*
X029081Y010666D02*
X029667Y010666D01*
X029667Y010709D02*
X029081Y010709D01*
X029081Y010752D02*
X029667Y010752D01*
X029667Y010795D02*
X029081Y010795D01*
X029081Y010838D02*
X029667Y010838D01*
X029667Y010881D02*
X029081Y010881D01*
X029081Y010924D02*
X029667Y010924D01*
X029667Y010967D02*
X029081Y010967D01*
X029081Y011010D02*
X029667Y011010D01*
X029667Y011053D02*
X029081Y011053D01*
X029081Y011096D02*
X029667Y011096D01*
X030942Y011148D02*
X030942Y011656D01*
X030942Y011148D02*
X030356Y011148D01*
X030356Y011656D01*
X030942Y011656D01*
X030942Y011191D02*
X030356Y011191D01*
X030356Y011234D02*
X030942Y011234D01*
X030942Y011277D02*
X030356Y011277D01*
X030356Y011320D02*
X030942Y011320D01*
X030942Y011363D02*
X030356Y011363D01*
X030356Y011406D02*
X030942Y011406D01*
X030942Y011449D02*
X030356Y011449D01*
X030356Y011492D02*
X030942Y011492D01*
X030942Y011535D02*
X030356Y011535D01*
X030356Y011578D02*
X030942Y011578D01*
X030942Y011621D02*
X030356Y011621D01*
X029617Y010207D02*
X029617Y009699D01*
X028991Y009699D01*
X028991Y010207D01*
X029617Y010207D01*
X029617Y009742D02*
X028991Y009742D01*
X028991Y009785D02*
X029617Y009785D01*
X029617Y009828D02*
X028991Y009828D01*
X028991Y009871D02*
X029617Y009871D01*
X029617Y009914D02*
X028991Y009914D01*
X028991Y009957D02*
X029617Y009957D01*
X029617Y010000D02*
X028991Y010000D01*
X028991Y010043D02*
X029617Y010043D01*
X029617Y010086D02*
X028991Y010086D01*
X028991Y010129D02*
X029617Y010129D01*
X029617Y010172D02*
X028991Y010172D01*
X029617Y009203D02*
X029617Y008695D01*
X028991Y008695D01*
X028991Y009203D01*
X029617Y009203D01*
X029617Y008738D02*
X028991Y008738D01*
X028991Y008781D02*
X029617Y008781D01*
X029617Y008824D02*
X028991Y008824D01*
X028991Y008867D02*
X029617Y008867D01*
X029617Y008910D02*
X028991Y008910D01*
X028991Y008953D02*
X029617Y008953D01*
X029617Y008996D02*
X028991Y008996D01*
X028991Y009039D02*
X029617Y009039D01*
X029617Y009082D02*
X028991Y009082D01*
X028991Y009125D02*
X029617Y009125D01*
X029617Y009168D02*
X028991Y009168D01*
X029617Y008057D02*
X029617Y007549D01*
X028991Y007549D01*
X028991Y008057D01*
X029617Y008057D01*
X029617Y007592D02*
X028991Y007592D01*
X028991Y007635D02*
X029617Y007635D01*
X029617Y007678D02*
X028991Y007678D01*
X028991Y007721D02*
X029617Y007721D01*
X029617Y007764D02*
X028991Y007764D01*
X028991Y007807D02*
X029617Y007807D01*
X029617Y007850D02*
X028991Y007850D01*
X028991Y007893D02*
X029617Y007893D01*
X029617Y007936D02*
X028991Y007936D01*
X028991Y007979D02*
X029617Y007979D01*
X029617Y008022D02*
X028991Y008022D01*
X029617Y007053D02*
X029617Y006545D01*
X028991Y006545D01*
X028991Y007053D01*
X029617Y007053D01*
X029617Y006588D02*
X028991Y006588D01*
X028991Y006631D02*
X029617Y006631D01*
X029617Y006674D02*
X028991Y006674D01*
X028991Y006717D02*
X029617Y006717D01*
X029617Y006760D02*
X028991Y006760D01*
X028991Y006803D02*
X029617Y006803D01*
X029617Y006846D02*
X028991Y006846D01*
X028991Y006889D02*
X029617Y006889D01*
X029617Y006932D02*
X028991Y006932D01*
X028991Y006975D02*
X029617Y006975D01*
X029617Y007018D02*
X028991Y007018D01*
X030281Y006229D02*
X030281Y005721D01*
X030281Y006229D02*
X030867Y006229D01*
X030867Y005721D01*
X030281Y005721D01*
X030281Y005764D02*
X030867Y005764D01*
X030867Y005807D02*
X030281Y005807D01*
X030281Y005850D02*
X030867Y005850D01*
X030867Y005893D02*
X030281Y005893D01*
X030281Y005936D02*
X030867Y005936D01*
X030867Y005979D02*
X030281Y005979D01*
X030281Y006022D02*
X030867Y006022D01*
X030867Y006065D02*
X030281Y006065D01*
X030281Y006108D02*
X030867Y006108D01*
X030867Y006151D02*
X030281Y006151D01*
X030281Y006194D02*
X030867Y006194D01*
X030281Y005481D02*
X030281Y004973D01*
X030281Y005481D02*
X030867Y005481D01*
X030867Y004973D01*
X030281Y004973D01*
X030281Y005016D02*
X030867Y005016D01*
X030867Y005059D02*
X030281Y005059D01*
X030281Y005102D02*
X030867Y005102D01*
X030867Y005145D02*
X030281Y005145D01*
X030281Y005188D02*
X030867Y005188D01*
X030867Y005231D02*
X030281Y005231D01*
X030281Y005274D02*
X030867Y005274D01*
X030867Y005317D02*
X030281Y005317D01*
X030281Y005360D02*
X030867Y005360D01*
X030867Y005403D02*
X030281Y005403D01*
X030281Y005446D02*
X030867Y005446D01*
X029317Y005079D02*
X029317Y004571D01*
X028731Y004571D01*
X028731Y005079D01*
X029317Y005079D01*
X029317Y004614D02*
X028731Y004614D01*
X028731Y004657D02*
X029317Y004657D01*
X029317Y004700D02*
X028731Y004700D01*
X028731Y004743D02*
X029317Y004743D01*
X029317Y004786D02*
X028731Y004786D01*
X028731Y004829D02*
X029317Y004829D01*
X029317Y004872D02*
X028731Y004872D01*
X028731Y004915D02*
X029317Y004915D01*
X029317Y004958D02*
X028731Y004958D01*
X028731Y005001D02*
X029317Y005001D01*
X029317Y005044D02*
X028731Y005044D01*
X029317Y004331D02*
X029317Y003823D01*
X028731Y003823D01*
X028731Y004331D01*
X029317Y004331D01*
X029317Y003866D02*
X028731Y003866D01*
X028731Y003909D02*
X029317Y003909D01*
X029317Y003952D02*
X028731Y003952D01*
X028731Y003995D02*
X029317Y003995D01*
X029317Y004038D02*
X028731Y004038D01*
X028731Y004081D02*
X029317Y004081D01*
X029317Y004124D02*
X028731Y004124D01*
X028731Y004167D02*
X029317Y004167D01*
X029317Y004210D02*
X028731Y004210D01*
X028731Y004253D02*
X029317Y004253D01*
X029317Y004296D02*
X028731Y004296D01*
X028781Y003429D02*
X028781Y002921D01*
X028781Y003429D02*
X029367Y003429D01*
X029367Y002921D01*
X028781Y002921D01*
X028781Y002964D02*
X029367Y002964D01*
X029367Y003007D02*
X028781Y003007D01*
X028781Y003050D02*
X029367Y003050D01*
X029367Y003093D02*
X028781Y003093D01*
X028781Y003136D02*
X029367Y003136D01*
X029367Y003179D02*
X028781Y003179D01*
X028781Y003222D02*
X029367Y003222D01*
X029367Y003265D02*
X028781Y003265D01*
X028781Y003308D02*
X029367Y003308D01*
X029367Y003351D02*
X028781Y003351D01*
X028781Y003394D02*
X029367Y003394D01*
X030067Y003429D02*
X030067Y002921D01*
X029481Y002921D01*
X029481Y003429D01*
X030067Y003429D01*
X030067Y002964D02*
X029481Y002964D01*
X029481Y003007D02*
X030067Y003007D01*
X030067Y003050D02*
X029481Y003050D01*
X029481Y003093D02*
X030067Y003093D01*
X030067Y003136D02*
X029481Y003136D01*
X029481Y003179D02*
X030067Y003179D01*
X030067Y003222D02*
X029481Y003222D01*
X029481Y003265D02*
X030067Y003265D01*
X030067Y003308D02*
X029481Y003308D01*
X029481Y003351D02*
X030067Y003351D01*
X030067Y003394D02*
X029481Y003394D01*
X030067Y002681D02*
X030067Y002173D01*
X029481Y002173D01*
X029481Y002681D01*
X030067Y002681D01*
X030067Y002216D02*
X029481Y002216D01*
X029481Y002259D02*
X030067Y002259D01*
X030067Y002302D02*
X029481Y002302D01*
X029481Y002345D02*
X030067Y002345D01*
X030067Y002388D02*
X029481Y002388D01*
X029481Y002431D02*
X030067Y002431D01*
X030067Y002474D02*
X029481Y002474D01*
X029481Y002517D02*
X030067Y002517D01*
X030067Y002560D02*
X029481Y002560D01*
X029481Y002603D02*
X030067Y002603D01*
X030067Y002646D02*
X029481Y002646D01*
X028781Y002681D02*
X028781Y002173D01*
X028781Y002681D02*
X029367Y002681D01*
X029367Y002173D01*
X028781Y002173D01*
X028781Y002216D02*
X029367Y002216D01*
X029367Y002259D02*
X028781Y002259D01*
X028781Y002302D02*
X029367Y002302D01*
X029367Y002345D02*
X028781Y002345D01*
X028781Y002388D02*
X029367Y002388D01*
X029367Y002431D02*
X028781Y002431D01*
X028781Y002474D02*
X029367Y002474D01*
X029367Y002517D02*
X028781Y002517D01*
X028781Y002560D02*
X029367Y002560D01*
X029367Y002603D02*
X028781Y002603D01*
X028781Y002646D02*
X029367Y002646D01*
X027552Y001408D02*
X027044Y001408D01*
X027044Y001994D01*
X027552Y001994D01*
X027552Y001408D01*
X027552Y001451D02*
X027044Y001451D01*
X027044Y001494D02*
X027552Y001494D01*
X027552Y001537D02*
X027044Y001537D01*
X027044Y001580D02*
X027552Y001580D01*
X027552Y001623D02*
X027044Y001623D01*
X027044Y001666D02*
X027552Y001666D01*
X027552Y001709D02*
X027044Y001709D01*
X027044Y001752D02*
X027552Y001752D01*
X027552Y001795D02*
X027044Y001795D01*
X027044Y001838D02*
X027552Y001838D01*
X027552Y001881D02*
X027044Y001881D01*
X027044Y001924D02*
X027552Y001924D01*
X027552Y001967D02*
X027044Y001967D01*
X026804Y001408D02*
X026296Y001408D01*
X026296Y001994D01*
X026804Y001994D01*
X026804Y001408D01*
X026804Y001451D02*
X026296Y001451D01*
X026296Y001494D02*
X026804Y001494D01*
X026804Y001537D02*
X026296Y001537D01*
X026296Y001580D02*
X026804Y001580D01*
X026804Y001623D02*
X026296Y001623D01*
X026296Y001666D02*
X026804Y001666D01*
X026804Y001709D02*
X026296Y001709D01*
X026296Y001752D02*
X026804Y001752D01*
X026804Y001795D02*
X026296Y001795D01*
X026296Y001838D02*
X026804Y001838D01*
X026804Y001881D02*
X026296Y001881D01*
X026296Y001924D02*
X026804Y001924D01*
X026804Y001967D02*
X026296Y001967D01*
X019581Y005473D02*
X019581Y005981D01*
X020167Y005981D01*
X020167Y005473D01*
X019581Y005473D01*
X019581Y005516D02*
X020167Y005516D01*
X020167Y005559D02*
X019581Y005559D01*
X019581Y005602D02*
X020167Y005602D01*
X020167Y005645D02*
X019581Y005645D01*
X019581Y005688D02*
X020167Y005688D01*
X020167Y005731D02*
X019581Y005731D01*
X019581Y005774D02*
X020167Y005774D01*
X020167Y005817D02*
X019581Y005817D01*
X019581Y005860D02*
X020167Y005860D01*
X020167Y005903D02*
X019581Y005903D01*
X019581Y005946D02*
X020167Y005946D01*
X019581Y006221D02*
X019581Y006729D01*
X020167Y006729D01*
X020167Y006221D01*
X019581Y006221D01*
X019581Y006264D02*
X020167Y006264D01*
X020167Y006307D02*
X019581Y006307D01*
X019581Y006350D02*
X020167Y006350D01*
X020167Y006393D02*
X019581Y006393D01*
X019581Y006436D02*
X020167Y006436D01*
X020167Y006479D02*
X019581Y006479D01*
X019581Y006522D02*
X020167Y006522D01*
X020167Y006565D02*
X019581Y006565D01*
X019581Y006608D02*
X020167Y006608D01*
X020167Y006651D02*
X019581Y006651D01*
X019581Y006694D02*
X020167Y006694D01*
X018331Y008123D02*
X018331Y008631D01*
X018917Y008631D01*
X018917Y008123D01*
X018331Y008123D01*
X018331Y008166D02*
X018917Y008166D01*
X018917Y008209D02*
X018331Y008209D01*
X018331Y008252D02*
X018917Y008252D01*
X018917Y008295D02*
X018331Y008295D01*
X018331Y008338D02*
X018917Y008338D01*
X018917Y008381D02*
X018331Y008381D01*
X018331Y008424D02*
X018917Y008424D01*
X018917Y008467D02*
X018331Y008467D01*
X018331Y008510D02*
X018917Y008510D01*
X018917Y008553D02*
X018331Y008553D01*
X018331Y008596D02*
X018917Y008596D01*
X018331Y008871D02*
X018331Y009379D01*
X018917Y009379D01*
X018917Y008871D01*
X018331Y008871D01*
X018331Y008914D02*
X018917Y008914D01*
X018917Y008957D02*
X018331Y008957D01*
X018331Y009000D02*
X018917Y009000D01*
X018917Y009043D02*
X018331Y009043D01*
X018331Y009086D02*
X018917Y009086D01*
X018917Y009129D02*
X018331Y009129D01*
X018331Y009172D02*
X018917Y009172D01*
X018917Y009215D02*
X018331Y009215D01*
X018331Y009258D02*
X018917Y009258D01*
X018917Y009301D02*
X018331Y009301D01*
X018331Y009344D02*
X018917Y009344D01*
X020746Y009794D02*
X021254Y009794D01*
X021254Y009208D01*
X020746Y009208D01*
X020746Y009794D01*
X020746Y009251D02*
X021254Y009251D01*
X021254Y009294D02*
X020746Y009294D01*
X020746Y009337D02*
X021254Y009337D01*
X021254Y009380D02*
X020746Y009380D01*
X020746Y009423D02*
X021254Y009423D01*
X021254Y009466D02*
X020746Y009466D01*
X020746Y009509D02*
X021254Y009509D01*
X021254Y009552D02*
X020746Y009552D01*
X020746Y009595D02*
X021254Y009595D01*
X021254Y009638D02*
X020746Y009638D01*
X020746Y009681D02*
X021254Y009681D01*
X021254Y009724D02*
X020746Y009724D01*
X020746Y009767D02*
X021254Y009767D01*
X021494Y009794D02*
X022002Y009794D01*
X022002Y009208D01*
X021494Y009208D01*
X021494Y009794D01*
X021494Y009251D02*
X022002Y009251D01*
X022002Y009294D02*
X021494Y009294D01*
X021494Y009337D02*
X022002Y009337D01*
X022002Y009380D02*
X021494Y009380D01*
X021494Y009423D02*
X022002Y009423D01*
X022002Y009466D02*
X021494Y009466D01*
X021494Y009509D02*
X022002Y009509D01*
X022002Y009552D02*
X021494Y009552D01*
X021494Y009595D02*
X022002Y009595D01*
X022002Y009638D02*
X021494Y009638D01*
X021494Y009681D02*
X022002Y009681D01*
X022002Y009724D02*
X021494Y009724D01*
X021494Y009767D02*
X022002Y009767D01*
X027167Y009629D02*
X027167Y009121D01*
X026581Y009121D01*
X026581Y009629D01*
X027167Y009629D01*
X027167Y009164D02*
X026581Y009164D01*
X026581Y009207D02*
X027167Y009207D01*
X027167Y009250D02*
X026581Y009250D01*
X026581Y009293D02*
X027167Y009293D01*
X027167Y009336D02*
X026581Y009336D01*
X026581Y009379D02*
X027167Y009379D01*
X027167Y009422D02*
X026581Y009422D01*
X026581Y009465D02*
X027167Y009465D01*
X027167Y009508D02*
X026581Y009508D01*
X026581Y009551D02*
X027167Y009551D01*
X027167Y009594D02*
X026581Y009594D01*
X027167Y008881D02*
X027167Y008373D01*
X026581Y008373D01*
X026581Y008881D01*
X027167Y008881D01*
X027167Y008416D02*
X026581Y008416D01*
X026581Y008459D02*
X027167Y008459D01*
X027167Y008502D02*
X026581Y008502D01*
X026581Y008545D02*
X027167Y008545D01*
X027167Y008588D02*
X026581Y008588D01*
X026581Y008631D02*
X027167Y008631D01*
X027167Y008674D02*
X026581Y008674D01*
X026581Y008717D02*
X027167Y008717D01*
X027167Y008760D02*
X026581Y008760D01*
X026581Y008803D02*
X027167Y008803D01*
X027167Y008846D02*
X026581Y008846D01*
X034146Y004858D02*
X034654Y004858D01*
X034146Y004858D02*
X034146Y005444D01*
X034654Y005444D01*
X034654Y004858D01*
X034654Y004901D02*
X034146Y004901D01*
X034146Y004944D02*
X034654Y004944D01*
X034654Y004987D02*
X034146Y004987D01*
X034146Y005030D02*
X034654Y005030D01*
X034654Y005073D02*
X034146Y005073D01*
X034146Y005116D02*
X034654Y005116D01*
X034654Y005159D02*
X034146Y005159D01*
X034146Y005202D02*
X034654Y005202D01*
X034654Y005245D02*
X034146Y005245D01*
X034146Y005288D02*
X034654Y005288D01*
X034654Y005331D02*
X034146Y005331D01*
X034146Y005374D02*
X034654Y005374D01*
X034654Y005417D02*
X034146Y005417D01*
X034894Y004858D02*
X035402Y004858D01*
X034894Y004858D02*
X034894Y005444D01*
X035402Y005444D01*
X035402Y004858D01*
X035402Y004901D02*
X034894Y004901D01*
X034894Y004944D02*
X035402Y004944D01*
X035402Y004987D02*
X034894Y004987D01*
X034894Y005030D02*
X035402Y005030D01*
X035402Y005073D02*
X034894Y005073D01*
X034894Y005116D02*
X035402Y005116D01*
X035402Y005159D02*
X034894Y005159D01*
X034894Y005202D02*
X035402Y005202D01*
X035402Y005245D02*
X034894Y005245D01*
X034894Y005288D02*
X035402Y005288D01*
X035402Y005331D02*
X034894Y005331D01*
X034894Y005374D02*
X035402Y005374D01*
X035402Y005417D02*
X034894Y005417D01*
X036096Y005394D02*
X036604Y005394D01*
X036604Y004808D01*
X036096Y004808D01*
X036096Y005394D01*
X036096Y004851D02*
X036604Y004851D01*
X036604Y004894D02*
X036096Y004894D01*
X036096Y004937D02*
X036604Y004937D01*
X036604Y004980D02*
X036096Y004980D01*
X036096Y005023D02*
X036604Y005023D01*
X036604Y005066D02*
X036096Y005066D01*
X036096Y005109D02*
X036604Y005109D01*
X036604Y005152D02*
X036096Y005152D01*
X036096Y005195D02*
X036604Y005195D01*
X036604Y005238D02*
X036096Y005238D01*
X036096Y005281D02*
X036604Y005281D01*
X036604Y005324D02*
X036096Y005324D01*
X036096Y005367D02*
X036604Y005367D01*
X036844Y005394D02*
X037352Y005394D01*
X037352Y004808D01*
X036844Y004808D01*
X036844Y005394D01*
X036844Y004851D02*
X037352Y004851D01*
X037352Y004894D02*
X036844Y004894D01*
X036844Y004937D02*
X037352Y004937D01*
X037352Y004980D02*
X036844Y004980D01*
X036844Y005023D02*
X037352Y005023D01*
X037352Y005066D02*
X036844Y005066D01*
X036844Y005109D02*
X037352Y005109D01*
X037352Y005152D02*
X036844Y005152D01*
X036844Y005195D02*
X037352Y005195D01*
X037352Y005238D02*
X036844Y005238D01*
X036844Y005281D02*
X037352Y005281D01*
X037352Y005324D02*
X036844Y005324D01*
X036844Y005367D02*
X037352Y005367D01*
X037331Y004704D02*
X037331Y004196D01*
X037331Y004704D02*
X037917Y004704D01*
X037917Y004196D01*
X037331Y004196D01*
X037331Y004239D02*
X037917Y004239D01*
X037917Y004282D02*
X037331Y004282D01*
X037331Y004325D02*
X037917Y004325D01*
X037917Y004368D02*
X037331Y004368D01*
X037331Y004411D02*
X037917Y004411D01*
X037917Y004454D02*
X037331Y004454D01*
X037331Y004497D02*
X037917Y004497D01*
X037917Y004540D02*
X037331Y004540D01*
X037331Y004583D02*
X037917Y004583D01*
X037917Y004626D02*
X037331Y004626D01*
X037331Y004669D02*
X037917Y004669D01*
X037331Y003956D02*
X037331Y003448D01*
X037331Y003956D02*
X037917Y003956D01*
X037917Y003448D01*
X037331Y003448D01*
X037331Y003491D02*
X037917Y003491D01*
X037917Y003534D02*
X037331Y003534D01*
X037331Y003577D02*
X037917Y003577D01*
X037917Y003620D02*
X037331Y003620D01*
X037331Y003663D02*
X037917Y003663D01*
X037917Y003706D02*
X037331Y003706D01*
X037331Y003749D02*
X037917Y003749D01*
X037917Y003792D02*
X037331Y003792D01*
X037331Y003835D02*
X037917Y003835D01*
X037917Y003878D02*
X037331Y003878D01*
X037331Y003921D02*
X037917Y003921D01*
X038071Y003333D02*
X038579Y003333D01*
X038071Y003333D02*
X038071Y003919D01*
X038579Y003919D01*
X038579Y003333D01*
X038579Y003376D02*
X038071Y003376D01*
X038071Y003419D02*
X038579Y003419D01*
X038579Y003462D02*
X038071Y003462D01*
X038071Y003505D02*
X038579Y003505D01*
X038579Y003548D02*
X038071Y003548D01*
X038071Y003591D02*
X038579Y003591D01*
X038579Y003634D02*
X038071Y003634D01*
X038071Y003677D02*
X038579Y003677D01*
X038579Y003720D02*
X038071Y003720D01*
X038071Y003763D02*
X038579Y003763D01*
X038579Y003806D02*
X038071Y003806D01*
X038071Y003849D02*
X038579Y003849D01*
X038579Y003892D02*
X038071Y003892D01*
X037331Y003129D02*
X037331Y002621D01*
X037331Y003129D02*
X037917Y003129D01*
X037917Y002621D01*
X037331Y002621D01*
X037331Y002664D02*
X037917Y002664D01*
X037917Y002707D02*
X037331Y002707D01*
X037331Y002750D02*
X037917Y002750D01*
X037917Y002793D02*
X037331Y002793D01*
X037331Y002836D02*
X037917Y002836D01*
X037917Y002879D02*
X037331Y002879D01*
X037331Y002922D02*
X037917Y002922D01*
X037917Y002965D02*
X037331Y002965D01*
X037331Y003008D02*
X037917Y003008D01*
X037917Y003051D02*
X037331Y003051D01*
X037331Y003094D02*
X037917Y003094D01*
X037331Y002381D02*
X037331Y001873D01*
X037331Y002381D02*
X037917Y002381D01*
X037917Y001873D01*
X037331Y001873D01*
X037331Y001916D02*
X037917Y001916D01*
X037917Y001959D02*
X037331Y001959D01*
X037331Y002002D02*
X037917Y002002D01*
X037917Y002045D02*
X037331Y002045D01*
X037331Y002088D02*
X037917Y002088D01*
X037917Y002131D02*
X037331Y002131D01*
X037331Y002174D02*
X037917Y002174D01*
X037917Y002217D02*
X037331Y002217D01*
X037331Y002260D02*
X037917Y002260D01*
X037917Y002303D02*
X037331Y002303D01*
X037331Y002346D02*
X037917Y002346D01*
X038046Y001858D02*
X038554Y001858D01*
X038046Y001858D02*
X038046Y002444D01*
X038554Y002444D01*
X038554Y001858D01*
X038554Y001901D02*
X038046Y001901D01*
X038046Y001944D02*
X038554Y001944D01*
X038554Y001987D02*
X038046Y001987D01*
X038046Y002030D02*
X038554Y002030D01*
X038554Y002073D02*
X038046Y002073D01*
X038046Y002116D02*
X038554Y002116D01*
X038554Y002159D02*
X038046Y002159D01*
X038046Y002202D02*
X038554Y002202D01*
X038554Y002245D02*
X038046Y002245D01*
X038046Y002288D02*
X038554Y002288D01*
X038554Y002331D02*
X038046Y002331D01*
X038046Y002374D02*
X038554Y002374D01*
X038554Y002417D02*
X038046Y002417D01*
X038794Y001858D02*
X039302Y001858D01*
X038794Y001858D02*
X038794Y002444D01*
X039302Y002444D01*
X039302Y001858D01*
X039302Y001901D02*
X038794Y001901D01*
X038794Y001944D02*
X039302Y001944D01*
X039302Y001987D02*
X038794Y001987D01*
X038794Y002030D02*
X039302Y002030D01*
X039302Y002073D02*
X038794Y002073D01*
X038794Y002116D02*
X039302Y002116D01*
X039302Y002159D02*
X038794Y002159D01*
X038794Y002202D02*
X039302Y002202D01*
X039302Y002245D02*
X038794Y002245D01*
X038794Y002288D02*
X039302Y002288D01*
X039302Y002331D02*
X038794Y002331D01*
X038794Y002374D02*
X039302Y002374D01*
X039302Y002417D02*
X038794Y002417D01*
X038819Y003333D02*
X039327Y003333D01*
X038819Y003333D02*
X038819Y003919D01*
X039327Y003919D01*
X039327Y003333D01*
X039327Y003376D02*
X038819Y003376D01*
X038819Y003419D02*
X039327Y003419D01*
X039327Y003462D02*
X038819Y003462D01*
X038819Y003505D02*
X039327Y003505D01*
X039327Y003548D02*
X038819Y003548D01*
X038819Y003591D02*
X039327Y003591D01*
X039327Y003634D02*
X038819Y003634D01*
X038819Y003677D02*
X039327Y003677D01*
X039327Y003720D02*
X038819Y003720D01*
X038819Y003763D02*
X039327Y003763D01*
X039327Y003806D02*
X038819Y003806D01*
X038819Y003849D02*
X039327Y003849D01*
X039327Y003892D02*
X038819Y003892D01*
X037102Y004694D02*
X036594Y004694D01*
X037102Y004694D02*
X037102Y004108D01*
X036594Y004108D01*
X036594Y004694D01*
X036594Y004151D02*
X037102Y004151D01*
X037102Y004194D02*
X036594Y004194D01*
X036594Y004237D02*
X037102Y004237D01*
X037102Y004280D02*
X036594Y004280D01*
X036594Y004323D02*
X037102Y004323D01*
X037102Y004366D02*
X036594Y004366D01*
X036594Y004409D02*
X037102Y004409D01*
X037102Y004452D02*
X036594Y004452D01*
X036594Y004495D02*
X037102Y004495D01*
X037102Y004538D02*
X036594Y004538D01*
X036594Y004581D02*
X037102Y004581D01*
X037102Y004624D02*
X036594Y004624D01*
X036594Y004667D02*
X037102Y004667D01*
X036354Y004694D02*
X035846Y004694D01*
X036354Y004694D02*
X036354Y004108D01*
X035846Y004108D01*
X035846Y004694D01*
X035846Y004151D02*
X036354Y004151D01*
X036354Y004194D02*
X035846Y004194D01*
X035846Y004237D02*
X036354Y004237D01*
X036354Y004280D02*
X035846Y004280D01*
X035846Y004323D02*
X036354Y004323D01*
X036354Y004366D02*
X035846Y004366D01*
X035846Y004409D02*
X036354Y004409D01*
X036354Y004452D02*
X035846Y004452D01*
X035846Y004495D02*
X036354Y004495D01*
X036354Y004538D02*
X035846Y004538D01*
X035846Y004581D02*
X036354Y004581D01*
X036354Y004624D02*
X035846Y004624D01*
X035846Y004667D02*
X036354Y004667D01*
X040746Y004794D02*
X041254Y004794D01*
X041254Y004208D01*
X040746Y004208D01*
X040746Y004794D01*
X040746Y004251D02*
X041254Y004251D01*
X041254Y004294D02*
X040746Y004294D01*
X040746Y004337D02*
X041254Y004337D01*
X041254Y004380D02*
X040746Y004380D01*
X040746Y004423D02*
X041254Y004423D01*
X041254Y004466D02*
X040746Y004466D01*
X040746Y004509D02*
X041254Y004509D01*
X041254Y004552D02*
X040746Y004552D01*
X040746Y004595D02*
X041254Y004595D01*
X041254Y004638D02*
X040746Y004638D01*
X040746Y004681D02*
X041254Y004681D01*
X041254Y004724D02*
X040746Y004724D01*
X040746Y004767D02*
X041254Y004767D01*
X041494Y004794D02*
X042002Y004794D01*
X042002Y004208D01*
X041494Y004208D01*
X041494Y004794D01*
X041494Y004251D02*
X042002Y004251D01*
X042002Y004294D02*
X041494Y004294D01*
X041494Y004337D02*
X042002Y004337D01*
X042002Y004380D02*
X041494Y004380D01*
X041494Y004423D02*
X042002Y004423D01*
X042002Y004466D02*
X041494Y004466D01*
X041494Y004509D02*
X042002Y004509D01*
X042002Y004552D02*
X041494Y004552D01*
X041494Y004595D02*
X042002Y004595D01*
X042002Y004638D02*
X041494Y004638D01*
X041494Y004681D02*
X042002Y004681D01*
X042002Y004724D02*
X041494Y004724D01*
X041494Y004767D02*
X042002Y004767D01*
X042052Y005544D02*
X041544Y005544D01*
X042052Y005544D02*
X042052Y004958D01*
X041544Y004958D01*
X041544Y005544D01*
X041544Y005001D02*
X042052Y005001D01*
X042052Y005044D02*
X041544Y005044D01*
X041544Y005087D02*
X042052Y005087D01*
X042052Y005130D02*
X041544Y005130D01*
X041544Y005173D02*
X042052Y005173D01*
X042052Y005216D02*
X041544Y005216D01*
X041544Y005259D02*
X042052Y005259D01*
X042052Y005302D02*
X041544Y005302D01*
X041544Y005345D02*
X042052Y005345D01*
X042052Y005388D02*
X041544Y005388D01*
X041544Y005431D02*
X042052Y005431D01*
X042052Y005474D02*
X041544Y005474D01*
X041544Y005517D02*
X042052Y005517D01*
X041304Y005544D02*
X040796Y005544D01*
X041304Y005544D02*
X041304Y004958D01*
X040796Y004958D01*
X040796Y005544D01*
X040796Y005001D02*
X041304Y005001D01*
X041304Y005044D02*
X040796Y005044D01*
X040796Y005087D02*
X041304Y005087D01*
X041304Y005130D02*
X040796Y005130D01*
X040796Y005173D02*
X041304Y005173D01*
X041304Y005216D02*
X040796Y005216D01*
X040796Y005259D02*
X041304Y005259D01*
X041304Y005302D02*
X040796Y005302D01*
X040796Y005345D02*
X041304Y005345D01*
X041304Y005388D02*
X040796Y005388D01*
X040796Y005431D02*
X041304Y005431D01*
X041304Y005474D02*
X040796Y005474D01*
X040796Y005517D02*
X041304Y005517D01*
X032331Y015773D02*
X032331Y016281D01*
X032917Y016281D01*
X032917Y015773D01*
X032331Y015773D01*
X032331Y015816D02*
X032917Y015816D01*
X032917Y015859D02*
X032331Y015859D01*
X032331Y015902D02*
X032917Y015902D01*
X032917Y015945D02*
X032331Y015945D01*
X032331Y015988D02*
X032917Y015988D01*
X032917Y016031D02*
X032331Y016031D01*
X032331Y016074D02*
X032917Y016074D01*
X032917Y016117D02*
X032331Y016117D01*
X032331Y016160D02*
X032917Y016160D01*
X032917Y016203D02*
X032331Y016203D01*
X032331Y016246D02*
X032917Y016246D01*
X032331Y016521D02*
X032331Y017029D01*
X032917Y017029D01*
X032917Y016521D01*
X032331Y016521D01*
X032331Y016564D02*
X032917Y016564D01*
X032917Y016607D02*
X032331Y016607D01*
X032331Y016650D02*
X032917Y016650D01*
X032917Y016693D02*
X032331Y016693D01*
X032331Y016736D02*
X032917Y016736D01*
X032917Y016779D02*
X032331Y016779D01*
X032331Y016822D02*
X032917Y016822D01*
X032917Y016865D02*
X032331Y016865D01*
X032331Y016908D02*
X032917Y016908D01*
X032917Y016951D02*
X032331Y016951D01*
X032331Y016994D02*
X032917Y016994D01*
X032917Y017673D02*
X032917Y018181D01*
X032917Y017673D02*
X032331Y017673D01*
X032331Y018181D01*
X032917Y018181D01*
X032917Y017716D02*
X032331Y017716D01*
X032331Y017759D02*
X032917Y017759D01*
X032917Y017802D02*
X032331Y017802D01*
X032331Y017845D02*
X032917Y017845D01*
X032917Y017888D02*
X032331Y017888D01*
X032331Y017931D02*
X032917Y017931D01*
X032917Y017974D02*
X032331Y017974D01*
X032331Y018017D02*
X032917Y018017D01*
X032917Y018060D02*
X032331Y018060D01*
X032331Y018103D02*
X032917Y018103D01*
X032917Y018146D02*
X032331Y018146D01*
X032917Y018421D02*
X032917Y018929D01*
X032917Y018421D02*
X032331Y018421D01*
X032331Y018929D01*
X032917Y018929D01*
X032917Y018464D02*
X032331Y018464D01*
X032331Y018507D02*
X032917Y018507D01*
X032917Y018550D02*
X032331Y018550D01*
X032331Y018593D02*
X032917Y018593D01*
X032917Y018636D02*
X032331Y018636D01*
X032331Y018679D02*
X032917Y018679D01*
X032917Y018722D02*
X032331Y018722D01*
X032331Y018765D02*
X032917Y018765D01*
X032917Y018808D02*
X032331Y018808D01*
X032331Y018851D02*
X032917Y018851D01*
X032917Y018894D02*
X032331Y018894D01*
X034396Y018458D02*
X034904Y018458D01*
X034396Y018458D02*
X034396Y019044D01*
X034904Y019044D01*
X034904Y018458D01*
X034904Y018501D02*
X034396Y018501D01*
X034396Y018544D02*
X034904Y018544D01*
X034904Y018587D02*
X034396Y018587D01*
X034396Y018630D02*
X034904Y018630D01*
X034904Y018673D02*
X034396Y018673D01*
X034396Y018716D02*
X034904Y018716D01*
X034904Y018759D02*
X034396Y018759D01*
X034396Y018802D02*
X034904Y018802D01*
X034904Y018845D02*
X034396Y018845D01*
X034396Y018888D02*
X034904Y018888D01*
X034904Y018931D02*
X034396Y018931D01*
X034396Y018974D02*
X034904Y018974D01*
X034904Y019017D02*
X034396Y019017D01*
X035144Y018458D02*
X035652Y018458D01*
X035144Y018458D02*
X035144Y019044D01*
X035652Y019044D01*
X035652Y018458D01*
X035652Y018501D02*
X035144Y018501D01*
X035144Y018544D02*
X035652Y018544D01*
X035652Y018587D02*
X035144Y018587D01*
X035144Y018630D02*
X035652Y018630D01*
X035652Y018673D02*
X035144Y018673D01*
X035144Y018716D02*
X035652Y018716D01*
X035652Y018759D02*
X035144Y018759D01*
X035144Y018802D02*
X035652Y018802D01*
X035652Y018845D02*
X035144Y018845D01*
X035144Y018888D02*
X035652Y018888D01*
X035652Y018931D02*
X035144Y018931D01*
X035144Y018974D02*
X035652Y018974D01*
X035652Y019017D02*
X035144Y019017D01*
X038746Y023994D02*
X039254Y023994D01*
X039254Y023408D01*
X038746Y023408D01*
X038746Y023994D01*
X038746Y023451D02*
X039254Y023451D01*
X039254Y023494D02*
X038746Y023494D01*
X038746Y023537D02*
X039254Y023537D01*
X039254Y023580D02*
X038746Y023580D01*
X038746Y023623D02*
X039254Y023623D01*
X039254Y023666D02*
X038746Y023666D01*
X038746Y023709D02*
X039254Y023709D01*
X039254Y023752D02*
X038746Y023752D01*
X038746Y023795D02*
X039254Y023795D01*
X039254Y023838D02*
X038746Y023838D01*
X038746Y023881D02*
X039254Y023881D01*
X039254Y023924D02*
X038746Y023924D01*
X038746Y023967D02*
X039254Y023967D01*
X039494Y023994D02*
X040002Y023994D01*
X040002Y023408D01*
X039494Y023408D01*
X039494Y023994D01*
X039494Y023451D02*
X040002Y023451D01*
X040002Y023494D02*
X039494Y023494D01*
X039494Y023537D02*
X040002Y023537D01*
X040002Y023580D02*
X039494Y023580D01*
X039494Y023623D02*
X040002Y023623D01*
X040002Y023666D02*
X039494Y023666D01*
X039494Y023709D02*
X040002Y023709D01*
X040002Y023752D02*
X039494Y023752D01*
X039494Y023795D02*
X040002Y023795D01*
X040002Y023838D02*
X039494Y023838D01*
X039494Y023881D02*
X040002Y023881D01*
X040002Y023924D02*
X039494Y023924D01*
X039494Y023967D02*
X040002Y023967D01*
X040252Y026244D02*
X039744Y026244D01*
X040252Y026244D02*
X040252Y025658D01*
X039744Y025658D01*
X039744Y026244D01*
X039744Y025701D02*
X040252Y025701D01*
X040252Y025744D02*
X039744Y025744D01*
X039744Y025787D02*
X040252Y025787D01*
X040252Y025830D02*
X039744Y025830D01*
X039744Y025873D02*
X040252Y025873D01*
X040252Y025916D02*
X039744Y025916D01*
X039744Y025959D02*
X040252Y025959D01*
X040252Y026002D02*
X039744Y026002D01*
X039744Y026045D02*
X040252Y026045D01*
X040252Y026088D02*
X039744Y026088D01*
X039744Y026131D02*
X040252Y026131D01*
X040252Y026174D02*
X039744Y026174D01*
X039744Y026217D02*
X040252Y026217D01*
X040252Y026994D02*
X039744Y026994D01*
X040252Y026994D02*
X040252Y026408D01*
X039744Y026408D01*
X039744Y026994D01*
X039744Y026451D02*
X040252Y026451D01*
X040252Y026494D02*
X039744Y026494D01*
X039744Y026537D02*
X040252Y026537D01*
X040252Y026580D02*
X039744Y026580D01*
X039744Y026623D02*
X040252Y026623D01*
X040252Y026666D02*
X039744Y026666D01*
X039744Y026709D02*
X040252Y026709D01*
X040252Y026752D02*
X039744Y026752D01*
X039744Y026795D02*
X040252Y026795D01*
X040252Y026838D02*
X039744Y026838D01*
X039744Y026881D02*
X040252Y026881D01*
X040252Y026924D02*
X039744Y026924D01*
X039744Y026967D02*
X040252Y026967D01*
X039504Y026994D02*
X038996Y026994D01*
X039504Y026994D02*
X039504Y026408D01*
X038996Y026408D01*
X038996Y026994D01*
X038996Y026451D02*
X039504Y026451D01*
X039504Y026494D02*
X038996Y026494D01*
X038996Y026537D02*
X039504Y026537D01*
X039504Y026580D02*
X038996Y026580D01*
X038996Y026623D02*
X039504Y026623D01*
X039504Y026666D02*
X038996Y026666D01*
X038996Y026709D02*
X039504Y026709D01*
X039504Y026752D02*
X038996Y026752D01*
X038996Y026795D02*
X039504Y026795D01*
X039504Y026838D02*
X038996Y026838D01*
X038996Y026881D02*
X039504Y026881D01*
X039504Y026924D02*
X038996Y026924D01*
X038996Y026967D02*
X039504Y026967D01*
X039504Y026244D02*
X038996Y026244D01*
X039504Y026244D02*
X039504Y025658D01*
X038996Y025658D01*
X038996Y026244D01*
X038996Y025701D02*
X039504Y025701D01*
X039504Y025744D02*
X038996Y025744D01*
X038996Y025787D02*
X039504Y025787D01*
X039504Y025830D02*
X038996Y025830D01*
X038996Y025873D02*
X039504Y025873D01*
X039504Y025916D02*
X038996Y025916D01*
X038996Y025959D02*
X039504Y025959D01*
X039504Y026002D02*
X038996Y026002D01*
X038996Y026045D02*
X039504Y026045D01*
X039504Y026088D02*
X038996Y026088D01*
X038996Y026131D02*
X039504Y026131D01*
X039504Y026174D02*
X038996Y026174D01*
X038996Y026217D02*
X039504Y026217D01*
X038486Y028131D02*
X037978Y028131D01*
X038486Y028131D02*
X038486Y027545D01*
X037978Y027545D01*
X037978Y028131D01*
X037978Y027588D02*
X038486Y027588D01*
X038486Y027631D02*
X037978Y027631D01*
X037978Y027674D02*
X038486Y027674D01*
X038486Y027717D02*
X037978Y027717D01*
X037978Y027760D02*
X038486Y027760D01*
X038486Y027803D02*
X037978Y027803D01*
X037978Y027846D02*
X038486Y027846D01*
X038486Y027889D02*
X037978Y027889D01*
X037978Y027932D02*
X038486Y027932D01*
X038486Y027975D02*
X037978Y027975D01*
X037978Y028018D02*
X038486Y028018D01*
X038486Y028061D02*
X037978Y028061D01*
X037978Y028104D02*
X038486Y028104D01*
X038419Y028844D02*
X038927Y028844D01*
X038927Y028258D01*
X038419Y028258D01*
X038419Y028844D01*
X038419Y028301D02*
X038927Y028301D01*
X038927Y028344D02*
X038419Y028344D01*
X038419Y028387D02*
X038927Y028387D01*
X038927Y028430D02*
X038419Y028430D01*
X038419Y028473D02*
X038927Y028473D01*
X038927Y028516D02*
X038419Y028516D01*
X038419Y028559D02*
X038927Y028559D01*
X038927Y028602D02*
X038419Y028602D01*
X038419Y028645D02*
X038927Y028645D01*
X038927Y028688D02*
X038419Y028688D01*
X038419Y028731D02*
X038927Y028731D01*
X038927Y028774D02*
X038419Y028774D01*
X038419Y028817D02*
X038927Y028817D01*
X039371Y028533D02*
X039879Y028533D01*
X039371Y028533D02*
X039371Y029119D01*
X039879Y029119D01*
X039879Y028533D01*
X039879Y028576D02*
X039371Y028576D01*
X039371Y028619D02*
X039879Y028619D01*
X039879Y028662D02*
X039371Y028662D01*
X039371Y028705D02*
X039879Y028705D01*
X039879Y028748D02*
X039371Y028748D01*
X039371Y028791D02*
X039879Y028791D01*
X039879Y028834D02*
X039371Y028834D01*
X039371Y028877D02*
X039879Y028877D01*
X039879Y028920D02*
X039371Y028920D01*
X039371Y028963D02*
X039879Y028963D01*
X039879Y029006D02*
X039371Y029006D01*
X039371Y029049D02*
X039879Y029049D01*
X039879Y029092D02*
X039371Y029092D01*
X040119Y028533D02*
X040627Y028533D01*
X040119Y028533D02*
X040119Y029119D01*
X040627Y029119D01*
X040627Y028533D01*
X040627Y028576D02*
X040119Y028576D01*
X040119Y028619D02*
X040627Y028619D01*
X040627Y028662D02*
X040119Y028662D01*
X040119Y028705D02*
X040627Y028705D01*
X040627Y028748D02*
X040119Y028748D01*
X040119Y028791D02*
X040627Y028791D01*
X040627Y028834D02*
X040119Y028834D01*
X040119Y028877D02*
X040627Y028877D01*
X040627Y028920D02*
X040119Y028920D01*
X040119Y028963D02*
X040627Y028963D01*
X040627Y029006D02*
X040119Y029006D01*
X040119Y029049D02*
X040627Y029049D01*
X040627Y029092D02*
X040119Y029092D01*
X041081Y029948D02*
X041081Y030456D01*
X041667Y030456D01*
X041667Y029948D01*
X041081Y029948D01*
X041081Y029991D02*
X041667Y029991D01*
X041667Y030034D02*
X041081Y030034D01*
X041081Y030077D02*
X041667Y030077D01*
X041667Y030120D02*
X041081Y030120D01*
X041081Y030163D02*
X041667Y030163D01*
X041667Y030206D02*
X041081Y030206D01*
X041081Y030249D02*
X041667Y030249D01*
X041667Y030292D02*
X041081Y030292D01*
X041081Y030335D02*
X041667Y030335D01*
X041667Y030378D02*
X041081Y030378D01*
X041081Y030421D02*
X041667Y030421D01*
X041081Y030696D02*
X041081Y031204D01*
X041667Y031204D01*
X041667Y030696D01*
X041081Y030696D01*
X041081Y030739D02*
X041667Y030739D01*
X041667Y030782D02*
X041081Y030782D01*
X041081Y030825D02*
X041667Y030825D01*
X041667Y030868D02*
X041081Y030868D01*
X041081Y030911D02*
X041667Y030911D01*
X041667Y030954D02*
X041081Y030954D01*
X041081Y030997D02*
X041667Y030997D01*
X041667Y031040D02*
X041081Y031040D01*
X041081Y031083D02*
X041667Y031083D01*
X041667Y031126D02*
X041081Y031126D01*
X041081Y031169D02*
X041667Y031169D01*
X041081Y031323D02*
X041081Y031831D01*
X041667Y031831D01*
X041667Y031323D01*
X041081Y031323D01*
X041081Y031366D02*
X041667Y031366D01*
X041667Y031409D02*
X041081Y031409D01*
X041081Y031452D02*
X041667Y031452D01*
X041667Y031495D02*
X041081Y031495D01*
X041081Y031538D02*
X041667Y031538D01*
X041667Y031581D02*
X041081Y031581D01*
X041081Y031624D02*
X041667Y031624D01*
X041667Y031667D02*
X041081Y031667D01*
X041081Y031710D02*
X041667Y031710D01*
X041667Y031753D02*
X041081Y031753D01*
X041081Y031796D02*
X041667Y031796D01*
X041081Y032071D02*
X041081Y032579D01*
X041667Y032579D01*
X041667Y032071D01*
X041081Y032071D01*
X041081Y032114D02*
X041667Y032114D01*
X041667Y032157D02*
X041081Y032157D01*
X041081Y032200D02*
X041667Y032200D01*
X041667Y032243D02*
X041081Y032243D01*
X041081Y032286D02*
X041667Y032286D01*
X041667Y032329D02*
X041081Y032329D01*
X041081Y032372D02*
X041667Y032372D01*
X041667Y032415D02*
X041081Y032415D01*
X041081Y032458D02*
X041667Y032458D01*
X041667Y032501D02*
X041081Y032501D01*
X041081Y032544D02*
X041667Y032544D01*
X040417Y034323D02*
X040417Y034831D01*
X040417Y034323D02*
X039831Y034323D01*
X039831Y034831D01*
X040417Y034831D01*
X040417Y034366D02*
X039831Y034366D01*
X039831Y034409D02*
X040417Y034409D01*
X040417Y034452D02*
X039831Y034452D01*
X039831Y034495D02*
X040417Y034495D01*
X040417Y034538D02*
X039831Y034538D01*
X039831Y034581D02*
X040417Y034581D01*
X040417Y034624D02*
X039831Y034624D01*
X039831Y034667D02*
X040417Y034667D01*
X040417Y034710D02*
X039831Y034710D01*
X039831Y034753D02*
X040417Y034753D01*
X040417Y034796D02*
X039831Y034796D01*
X040417Y035071D02*
X040417Y035579D01*
X040417Y035071D02*
X039831Y035071D01*
X039831Y035579D01*
X040417Y035579D01*
X040417Y035114D02*
X039831Y035114D01*
X039831Y035157D02*
X040417Y035157D01*
X040417Y035200D02*
X039831Y035200D01*
X039831Y035243D02*
X040417Y035243D01*
X040417Y035286D02*
X039831Y035286D01*
X039831Y035329D02*
X040417Y035329D01*
X040417Y035372D02*
X039831Y035372D01*
X039831Y035415D02*
X040417Y035415D01*
X040417Y035458D02*
X039831Y035458D01*
X039831Y035501D02*
X040417Y035501D01*
X040417Y035544D02*
X039831Y035544D01*
X039869Y036369D02*
X040377Y036369D01*
X040377Y035783D01*
X039869Y035783D01*
X039869Y036369D01*
X039869Y035826D02*
X040377Y035826D01*
X040377Y035869D02*
X039869Y035869D01*
X039869Y035912D02*
X040377Y035912D01*
X040377Y035955D02*
X039869Y035955D01*
X039869Y035998D02*
X040377Y035998D01*
X040377Y036041D02*
X039869Y036041D01*
X039869Y036084D02*
X040377Y036084D01*
X040377Y036127D02*
X039869Y036127D01*
X039869Y036170D02*
X040377Y036170D01*
X040377Y036213D02*
X039869Y036213D01*
X039869Y036256D02*
X040377Y036256D01*
X040377Y036299D02*
X039869Y036299D01*
X039869Y036342D02*
X040377Y036342D01*
X039629Y036369D02*
X039121Y036369D01*
X039629Y036369D02*
X039629Y035783D01*
X039121Y035783D01*
X039121Y036369D01*
X039121Y035826D02*
X039629Y035826D01*
X039629Y035869D02*
X039121Y035869D01*
X039121Y035912D02*
X039629Y035912D01*
X039629Y035955D02*
X039121Y035955D01*
X039121Y035998D02*
X039629Y035998D01*
X039629Y036041D02*
X039121Y036041D01*
X039121Y036084D02*
X039629Y036084D01*
X039629Y036127D02*
X039121Y036127D01*
X039121Y036170D02*
X039629Y036170D01*
X039629Y036213D02*
X039121Y036213D01*
X039121Y036256D02*
X039629Y036256D01*
X039629Y036299D02*
X039121Y036299D01*
X039121Y036342D02*
X039629Y036342D01*
X039042Y037073D02*
X039042Y037581D01*
X039042Y037073D02*
X038456Y037073D01*
X038456Y037581D01*
X039042Y037581D01*
X039042Y037116D02*
X038456Y037116D01*
X038456Y037159D02*
X039042Y037159D01*
X039042Y037202D02*
X038456Y037202D01*
X038456Y037245D02*
X039042Y037245D01*
X039042Y037288D02*
X038456Y037288D01*
X038456Y037331D02*
X039042Y037331D01*
X039042Y037374D02*
X038456Y037374D01*
X038456Y037417D02*
X039042Y037417D01*
X039042Y037460D02*
X038456Y037460D01*
X038456Y037503D02*
X039042Y037503D01*
X039042Y037546D02*
X038456Y037546D01*
X039042Y037821D02*
X039042Y038329D01*
X039042Y037821D02*
X038456Y037821D01*
X038456Y038329D01*
X039042Y038329D01*
X039042Y037864D02*
X038456Y037864D01*
X038456Y037907D02*
X039042Y037907D01*
X039042Y037950D02*
X038456Y037950D01*
X038456Y037993D02*
X039042Y037993D01*
X039042Y038036D02*
X038456Y038036D01*
X038456Y038079D02*
X039042Y038079D01*
X039042Y038122D02*
X038456Y038122D01*
X038456Y038165D02*
X039042Y038165D01*
X039042Y038208D02*
X038456Y038208D01*
X038456Y038251D02*
X039042Y038251D01*
X039042Y038294D02*
X038456Y038294D01*
X039246Y039244D02*
X039754Y039244D01*
X039754Y038658D01*
X039246Y038658D01*
X039246Y039244D01*
X039246Y038701D02*
X039754Y038701D01*
X039754Y038744D02*
X039246Y038744D01*
X039246Y038787D02*
X039754Y038787D01*
X039754Y038830D02*
X039246Y038830D01*
X039246Y038873D02*
X039754Y038873D01*
X039754Y038916D02*
X039246Y038916D01*
X039246Y038959D02*
X039754Y038959D01*
X039754Y039002D02*
X039246Y039002D01*
X039246Y039045D02*
X039754Y039045D01*
X039754Y039088D02*
X039246Y039088D01*
X039246Y039131D02*
X039754Y039131D01*
X039754Y039174D02*
X039246Y039174D01*
X039246Y039217D02*
X039754Y039217D01*
X039994Y039244D02*
X040502Y039244D01*
X040502Y038658D01*
X039994Y038658D01*
X039994Y039244D01*
X039994Y038701D02*
X040502Y038701D01*
X040502Y038744D02*
X039994Y038744D01*
X039994Y038787D02*
X040502Y038787D01*
X040502Y038830D02*
X039994Y038830D01*
X039994Y038873D02*
X040502Y038873D01*
X040502Y038916D02*
X039994Y038916D01*
X039994Y038959D02*
X040502Y038959D01*
X040502Y039002D02*
X039994Y039002D01*
X039994Y039045D02*
X040502Y039045D01*
X040502Y039088D02*
X039994Y039088D01*
X039994Y039131D02*
X040502Y039131D01*
X040502Y039174D02*
X039994Y039174D01*
X039994Y039217D02*
X040502Y039217D01*
X040542Y038454D02*
X040542Y037946D01*
X039956Y037946D01*
X039956Y038454D01*
X040542Y038454D01*
X040542Y037989D02*
X039956Y037989D01*
X039956Y038032D02*
X040542Y038032D01*
X040542Y038075D02*
X039956Y038075D01*
X039956Y038118D02*
X040542Y038118D01*
X040542Y038161D02*
X039956Y038161D01*
X039956Y038204D02*
X040542Y038204D01*
X040542Y038247D02*
X039956Y038247D01*
X039956Y038290D02*
X040542Y038290D01*
X040542Y038333D02*
X039956Y038333D01*
X039956Y038376D02*
X040542Y038376D01*
X040542Y038419D02*
X039956Y038419D01*
X040542Y037706D02*
X040542Y037198D01*
X039956Y037198D01*
X039956Y037706D01*
X040542Y037706D01*
X040542Y037241D02*
X039956Y037241D01*
X039956Y037284D02*
X040542Y037284D01*
X040542Y037327D02*
X039956Y037327D01*
X039956Y037370D02*
X040542Y037370D01*
X040542Y037413D02*
X039956Y037413D01*
X039956Y037456D02*
X040542Y037456D01*
X040542Y037499D02*
X039956Y037499D01*
X039956Y037542D02*
X040542Y037542D01*
X040542Y037585D02*
X039956Y037585D01*
X039956Y037628D02*
X040542Y037628D01*
X040542Y037671D02*
X039956Y037671D01*
X038917Y035329D02*
X038917Y034821D01*
X038331Y034821D01*
X038331Y035329D01*
X038917Y035329D01*
X038917Y034864D02*
X038331Y034864D01*
X038331Y034907D02*
X038917Y034907D01*
X038917Y034950D02*
X038331Y034950D01*
X038331Y034993D02*
X038917Y034993D01*
X038917Y035036D02*
X038331Y035036D01*
X038331Y035079D02*
X038917Y035079D01*
X038917Y035122D02*
X038331Y035122D01*
X038331Y035165D02*
X038917Y035165D01*
X038917Y035208D02*
X038331Y035208D01*
X038331Y035251D02*
X038917Y035251D01*
X038917Y035294D02*
X038331Y035294D01*
X038917Y034581D02*
X038917Y034073D01*
X038331Y034073D01*
X038331Y034581D01*
X038917Y034581D01*
X038917Y034116D02*
X038331Y034116D01*
X038331Y034159D02*
X038917Y034159D01*
X038917Y034202D02*
X038331Y034202D01*
X038331Y034245D02*
X038917Y034245D01*
X038917Y034288D02*
X038331Y034288D01*
X038331Y034331D02*
X038917Y034331D01*
X038917Y034374D02*
X038331Y034374D01*
X038331Y034417D02*
X038917Y034417D01*
X038917Y034460D02*
X038331Y034460D01*
X038331Y034503D02*
X038917Y034503D01*
X038917Y034546D02*
X038331Y034546D01*
X038331Y032329D02*
X038331Y031821D01*
X038331Y032329D02*
X038917Y032329D01*
X038917Y031821D01*
X038331Y031821D01*
X038331Y031864D02*
X038917Y031864D01*
X038917Y031907D02*
X038331Y031907D01*
X038331Y031950D02*
X038917Y031950D01*
X038917Y031993D02*
X038331Y031993D01*
X038331Y032036D02*
X038917Y032036D01*
X038917Y032079D02*
X038331Y032079D01*
X038331Y032122D02*
X038917Y032122D01*
X038917Y032165D02*
X038331Y032165D01*
X038331Y032208D02*
X038917Y032208D01*
X038917Y032251D02*
X038331Y032251D01*
X038331Y032294D02*
X038917Y032294D01*
X037581Y031954D02*
X037581Y031446D01*
X037581Y031954D02*
X038167Y031954D01*
X038167Y031446D01*
X037581Y031446D01*
X037581Y031489D02*
X038167Y031489D01*
X038167Y031532D02*
X037581Y031532D01*
X037581Y031575D02*
X038167Y031575D01*
X038167Y031618D02*
X037581Y031618D01*
X037581Y031661D02*
X038167Y031661D01*
X038167Y031704D02*
X037581Y031704D01*
X037581Y031747D02*
X038167Y031747D01*
X038167Y031790D02*
X037581Y031790D01*
X037581Y031833D02*
X038167Y031833D01*
X038167Y031876D02*
X037581Y031876D01*
X037581Y031919D02*
X038167Y031919D01*
X038331Y031581D02*
X038331Y031073D01*
X038331Y031581D02*
X038917Y031581D01*
X038917Y031073D01*
X038331Y031073D01*
X038331Y031116D02*
X038917Y031116D01*
X038917Y031159D02*
X038331Y031159D01*
X038331Y031202D02*
X038917Y031202D01*
X038917Y031245D02*
X038331Y031245D01*
X038331Y031288D02*
X038917Y031288D01*
X038917Y031331D02*
X038331Y031331D01*
X038331Y031374D02*
X038917Y031374D01*
X038917Y031417D02*
X038331Y031417D01*
X038331Y031460D02*
X038917Y031460D01*
X038917Y031503D02*
X038331Y031503D01*
X038331Y031546D02*
X038917Y031546D01*
X037581Y031206D02*
X037581Y030698D01*
X037581Y031206D02*
X038167Y031206D01*
X038167Y030698D01*
X037581Y030698D01*
X037581Y030741D02*
X038167Y030741D01*
X038167Y030784D02*
X037581Y030784D01*
X037581Y030827D02*
X038167Y030827D01*
X038167Y030870D02*
X037581Y030870D01*
X037581Y030913D02*
X038167Y030913D01*
X038167Y030956D02*
X037581Y030956D01*
X037581Y030999D02*
X038167Y030999D01*
X038167Y031042D02*
X037581Y031042D01*
X037581Y031085D02*
X038167Y031085D01*
X038167Y031128D02*
X037581Y031128D01*
X037581Y031171D02*
X038167Y031171D01*
X036831Y031206D02*
X036831Y030698D01*
X036831Y031206D02*
X037417Y031206D01*
X037417Y030698D01*
X036831Y030698D01*
X036831Y030741D02*
X037417Y030741D01*
X037417Y030784D02*
X036831Y030784D01*
X036831Y030827D02*
X037417Y030827D01*
X037417Y030870D02*
X036831Y030870D01*
X036831Y030913D02*
X037417Y030913D01*
X037417Y030956D02*
X036831Y030956D01*
X036831Y030999D02*
X037417Y030999D01*
X037417Y031042D02*
X036831Y031042D01*
X036831Y031085D02*
X037417Y031085D01*
X037417Y031128D02*
X036831Y031128D01*
X036831Y031171D02*
X037417Y031171D01*
X036831Y031446D02*
X036831Y031954D01*
X037417Y031954D01*
X037417Y031446D01*
X036831Y031446D01*
X036831Y031489D02*
X037417Y031489D01*
X037417Y031532D02*
X036831Y031532D01*
X036831Y031575D02*
X037417Y031575D01*
X037417Y031618D02*
X036831Y031618D01*
X036831Y031661D02*
X037417Y031661D01*
X037417Y031704D02*
X036831Y031704D01*
X036831Y031747D02*
X037417Y031747D01*
X037417Y031790D02*
X036831Y031790D01*
X036831Y031833D02*
X037417Y031833D01*
X037417Y031876D02*
X036831Y031876D01*
X036831Y031919D02*
X037417Y031919D01*
X036831Y030579D02*
X036831Y030071D01*
X036831Y030579D02*
X037417Y030579D01*
X037417Y030071D01*
X036831Y030071D01*
X036831Y030114D02*
X037417Y030114D01*
X037417Y030157D02*
X036831Y030157D01*
X036831Y030200D02*
X037417Y030200D01*
X037417Y030243D02*
X036831Y030243D01*
X036831Y030286D02*
X037417Y030286D01*
X037417Y030329D02*
X036831Y030329D01*
X036831Y030372D02*
X037417Y030372D01*
X037417Y030415D02*
X036831Y030415D01*
X036831Y030458D02*
X037417Y030458D01*
X037417Y030501D02*
X036831Y030501D01*
X036831Y030544D02*
X037417Y030544D01*
X036831Y029831D02*
X036831Y029323D01*
X036831Y029831D02*
X037417Y029831D01*
X037417Y029323D01*
X036831Y029323D01*
X036831Y029366D02*
X037417Y029366D01*
X037417Y029409D02*
X036831Y029409D01*
X036831Y029452D02*
X037417Y029452D01*
X037417Y029495D02*
X036831Y029495D01*
X036831Y029538D02*
X037417Y029538D01*
X037417Y029581D02*
X036831Y029581D01*
X036831Y029624D02*
X037417Y029624D01*
X037417Y029667D02*
X036831Y029667D01*
X036831Y029710D02*
X037417Y029710D01*
X037417Y029753D02*
X036831Y029753D01*
X036831Y029796D02*
X037417Y029796D01*
X036667Y029954D02*
X036667Y029446D01*
X036081Y029446D01*
X036081Y029954D01*
X036667Y029954D01*
X036667Y029489D02*
X036081Y029489D01*
X036081Y029532D02*
X036667Y029532D01*
X036667Y029575D02*
X036081Y029575D01*
X036081Y029618D02*
X036667Y029618D01*
X036667Y029661D02*
X036081Y029661D01*
X036081Y029704D02*
X036667Y029704D01*
X036667Y029747D02*
X036081Y029747D01*
X036081Y029790D02*
X036667Y029790D01*
X036667Y029833D02*
X036081Y029833D01*
X036081Y029876D02*
X036667Y029876D01*
X036667Y029919D02*
X036081Y029919D01*
X036667Y029206D02*
X036667Y028698D01*
X036081Y028698D01*
X036081Y029206D01*
X036667Y029206D01*
X036667Y028741D02*
X036081Y028741D01*
X036081Y028784D02*
X036667Y028784D01*
X036667Y028827D02*
X036081Y028827D01*
X036081Y028870D02*
X036667Y028870D01*
X036667Y028913D02*
X036081Y028913D01*
X036081Y028956D02*
X036667Y028956D01*
X036667Y028999D02*
X036081Y028999D01*
X036081Y029042D02*
X036667Y029042D01*
X036667Y029085D02*
X036081Y029085D01*
X036081Y029128D02*
X036667Y029128D01*
X036667Y029171D02*
X036081Y029171D01*
X037230Y028131D02*
X037738Y028131D01*
X037738Y027545D01*
X037230Y027545D01*
X037230Y028131D01*
X037230Y027588D02*
X037738Y027588D01*
X037738Y027631D02*
X037230Y027631D01*
X037230Y027674D02*
X037738Y027674D01*
X037738Y027717D02*
X037230Y027717D01*
X037230Y027760D02*
X037738Y027760D01*
X037738Y027803D02*
X037230Y027803D01*
X037230Y027846D02*
X037738Y027846D01*
X037738Y027889D02*
X037230Y027889D01*
X037230Y027932D02*
X037738Y027932D01*
X037738Y027975D02*
X037230Y027975D01*
X037230Y028018D02*
X037738Y028018D01*
X037738Y028061D02*
X037230Y028061D01*
X037230Y028104D02*
X037738Y028104D01*
X037671Y028844D02*
X038179Y028844D01*
X038179Y028258D01*
X037671Y028258D01*
X037671Y028844D01*
X037671Y028301D02*
X038179Y028301D01*
X038179Y028344D02*
X037671Y028344D01*
X037671Y028387D02*
X038179Y028387D01*
X038179Y028430D02*
X037671Y028430D01*
X037671Y028473D02*
X038179Y028473D01*
X038179Y028516D02*
X037671Y028516D01*
X037671Y028559D02*
X038179Y028559D01*
X038179Y028602D02*
X037671Y028602D01*
X037671Y028645D02*
X038179Y028645D01*
X038179Y028688D02*
X037671Y028688D01*
X037671Y028731D02*
X038179Y028731D01*
X038179Y028774D02*
X037671Y028774D01*
X037671Y028817D02*
X038179Y028817D01*
X034627Y026744D02*
X034119Y026744D01*
X034627Y026744D02*
X034627Y026158D01*
X034119Y026158D01*
X034119Y026744D01*
X034119Y026201D02*
X034627Y026201D01*
X034627Y026244D02*
X034119Y026244D01*
X034119Y026287D02*
X034627Y026287D01*
X034627Y026330D02*
X034119Y026330D01*
X034119Y026373D02*
X034627Y026373D01*
X034627Y026416D02*
X034119Y026416D01*
X034119Y026459D02*
X034627Y026459D01*
X034627Y026502D02*
X034119Y026502D01*
X034119Y026545D02*
X034627Y026545D01*
X034627Y026588D02*
X034119Y026588D01*
X034119Y026631D02*
X034627Y026631D01*
X034627Y026674D02*
X034119Y026674D01*
X034119Y026717D02*
X034627Y026717D01*
X033879Y026744D02*
X033371Y026744D01*
X033879Y026744D02*
X033879Y026158D01*
X033371Y026158D01*
X033371Y026744D01*
X033371Y026201D02*
X033879Y026201D01*
X033879Y026244D02*
X033371Y026244D01*
X033371Y026287D02*
X033879Y026287D01*
X033879Y026330D02*
X033371Y026330D01*
X033371Y026373D02*
X033879Y026373D01*
X033879Y026416D02*
X033371Y026416D01*
X033371Y026459D02*
X033879Y026459D01*
X033879Y026502D02*
X033371Y026502D01*
X033371Y026545D02*
X033879Y026545D01*
X033879Y026588D02*
X033371Y026588D01*
X033371Y026631D02*
X033879Y026631D01*
X033879Y026674D02*
X033371Y026674D01*
X033371Y026717D02*
X033879Y026717D01*
X033879Y025994D02*
X033371Y025994D01*
X033879Y025994D02*
X033879Y025408D01*
X033371Y025408D01*
X033371Y025994D01*
X033371Y025451D02*
X033879Y025451D01*
X033879Y025494D02*
X033371Y025494D01*
X033371Y025537D02*
X033879Y025537D01*
X033879Y025580D02*
X033371Y025580D01*
X033371Y025623D02*
X033879Y025623D01*
X033879Y025666D02*
X033371Y025666D01*
X033371Y025709D02*
X033879Y025709D01*
X033879Y025752D02*
X033371Y025752D01*
X033371Y025795D02*
X033879Y025795D01*
X033879Y025838D02*
X033371Y025838D01*
X033371Y025881D02*
X033879Y025881D01*
X033879Y025924D02*
X033371Y025924D01*
X033371Y025967D02*
X033879Y025967D01*
X034119Y025994D02*
X034627Y025994D01*
X034627Y025408D01*
X034119Y025408D01*
X034119Y025994D01*
X034119Y025451D02*
X034627Y025451D01*
X034627Y025494D02*
X034119Y025494D01*
X034119Y025537D02*
X034627Y025537D01*
X034627Y025580D02*
X034119Y025580D01*
X034119Y025623D02*
X034627Y025623D01*
X034627Y025666D02*
X034119Y025666D01*
X034119Y025709D02*
X034627Y025709D01*
X034627Y025752D02*
X034119Y025752D01*
X034119Y025795D02*
X034627Y025795D01*
X034627Y025838D02*
X034119Y025838D01*
X034119Y025881D02*
X034627Y025881D01*
X034627Y025924D02*
X034119Y025924D01*
X034119Y025967D02*
X034627Y025967D01*
X035477Y024672D02*
X035985Y024672D01*
X035985Y024086D01*
X035477Y024086D01*
X035477Y024672D01*
X035477Y024129D02*
X035985Y024129D01*
X035985Y024172D02*
X035477Y024172D01*
X035477Y024215D02*
X035985Y024215D01*
X035985Y024258D02*
X035477Y024258D01*
X035477Y024301D02*
X035985Y024301D01*
X035985Y024344D02*
X035477Y024344D01*
X035477Y024387D02*
X035985Y024387D01*
X035985Y024430D02*
X035477Y024430D01*
X035477Y024473D02*
X035985Y024473D01*
X035985Y024516D02*
X035477Y024516D01*
X035477Y024559D02*
X035985Y024559D01*
X035985Y024602D02*
X035477Y024602D01*
X035477Y024645D02*
X035985Y024645D01*
X036225Y024672D02*
X036733Y024672D01*
X036733Y024086D01*
X036225Y024086D01*
X036225Y024672D01*
X036225Y024129D02*
X036733Y024129D01*
X036733Y024172D02*
X036225Y024172D01*
X036225Y024215D02*
X036733Y024215D01*
X036733Y024258D02*
X036225Y024258D01*
X036225Y024301D02*
X036733Y024301D01*
X036733Y024344D02*
X036225Y024344D01*
X036225Y024387D02*
X036733Y024387D01*
X036733Y024430D02*
X036225Y024430D01*
X036225Y024473D02*
X036733Y024473D01*
X036733Y024516D02*
X036225Y024516D01*
X036225Y024559D02*
X036733Y024559D01*
X036733Y024602D02*
X036225Y024602D01*
X036225Y024645D02*
X036733Y024645D01*
X032184Y026693D02*
X032184Y027201D01*
X032770Y027201D01*
X032770Y026693D01*
X032184Y026693D01*
X032184Y026736D02*
X032770Y026736D01*
X032770Y026779D02*
X032184Y026779D01*
X032184Y026822D02*
X032770Y026822D01*
X032770Y026865D02*
X032184Y026865D01*
X032184Y026908D02*
X032770Y026908D01*
X032770Y026951D02*
X032184Y026951D01*
X032184Y026994D02*
X032770Y026994D01*
X032770Y027037D02*
X032184Y027037D01*
X032184Y027080D02*
X032770Y027080D01*
X032770Y027123D02*
X032184Y027123D01*
X032184Y027166D02*
X032770Y027166D01*
X032184Y027441D02*
X032184Y027949D01*
X032770Y027949D01*
X032770Y027441D01*
X032184Y027441D01*
X032184Y027484D02*
X032770Y027484D01*
X032770Y027527D02*
X032184Y027527D01*
X032184Y027570D02*
X032770Y027570D01*
X032770Y027613D02*
X032184Y027613D01*
X032184Y027656D02*
X032770Y027656D01*
X032770Y027699D02*
X032184Y027699D01*
X032184Y027742D02*
X032770Y027742D01*
X032770Y027785D02*
X032184Y027785D01*
X032184Y027828D02*
X032770Y027828D01*
X032770Y027871D02*
X032184Y027871D01*
X032184Y027914D02*
X032770Y027914D01*
X032026Y031063D02*
X032026Y031571D01*
X032612Y031571D01*
X032612Y031063D01*
X032026Y031063D01*
X032026Y031106D02*
X032612Y031106D01*
X032612Y031149D02*
X032026Y031149D01*
X032026Y031192D02*
X032612Y031192D01*
X032612Y031235D02*
X032026Y031235D01*
X032026Y031278D02*
X032612Y031278D01*
X032612Y031321D02*
X032026Y031321D01*
X032026Y031364D02*
X032612Y031364D01*
X032612Y031407D02*
X032026Y031407D01*
X032026Y031450D02*
X032612Y031450D01*
X032612Y031493D02*
X032026Y031493D01*
X032026Y031536D02*
X032612Y031536D01*
X032026Y031811D02*
X032026Y032319D01*
X032612Y032319D01*
X032612Y031811D01*
X032026Y031811D01*
X032026Y031854D02*
X032612Y031854D01*
X032612Y031897D02*
X032026Y031897D01*
X032026Y031940D02*
X032612Y031940D01*
X032612Y031983D02*
X032026Y031983D01*
X032026Y032026D02*
X032612Y032026D01*
X032612Y032069D02*
X032026Y032069D01*
X032026Y032112D02*
X032612Y032112D01*
X032612Y032155D02*
X032026Y032155D01*
X032026Y032198D02*
X032612Y032198D01*
X032612Y032241D02*
X032026Y032241D01*
X032026Y032284D02*
X032612Y032284D01*
X029231Y036073D02*
X029231Y036581D01*
X029817Y036581D01*
X029817Y036073D01*
X029231Y036073D01*
X029231Y036116D02*
X029817Y036116D01*
X029817Y036159D02*
X029231Y036159D01*
X029231Y036202D02*
X029817Y036202D01*
X029817Y036245D02*
X029231Y036245D01*
X029231Y036288D02*
X029817Y036288D01*
X029817Y036331D02*
X029231Y036331D01*
X029231Y036374D02*
X029817Y036374D01*
X029817Y036417D02*
X029231Y036417D01*
X029231Y036460D02*
X029817Y036460D01*
X029817Y036503D02*
X029231Y036503D01*
X029231Y036546D02*
X029817Y036546D01*
X029231Y036821D02*
X029231Y037329D01*
X029817Y037329D01*
X029817Y036821D01*
X029231Y036821D01*
X029231Y036864D02*
X029817Y036864D01*
X029817Y036907D02*
X029231Y036907D01*
X029231Y036950D02*
X029817Y036950D01*
X029817Y036993D02*
X029231Y036993D01*
X029231Y037036D02*
X029817Y037036D01*
X029817Y037079D02*
X029231Y037079D01*
X029231Y037122D02*
X029817Y037122D01*
X029817Y037165D02*
X029231Y037165D01*
X029231Y037208D02*
X029817Y037208D01*
X029817Y037251D02*
X029231Y037251D01*
X029231Y037294D02*
X029817Y037294D01*
X027817Y037079D02*
X027817Y036571D01*
X027231Y036571D01*
X027231Y037079D01*
X027817Y037079D01*
X027817Y036614D02*
X027231Y036614D01*
X027231Y036657D02*
X027817Y036657D01*
X027817Y036700D02*
X027231Y036700D01*
X027231Y036743D02*
X027817Y036743D01*
X027817Y036786D02*
X027231Y036786D01*
X027231Y036829D02*
X027817Y036829D01*
X027817Y036872D02*
X027231Y036872D01*
X027231Y036915D02*
X027817Y036915D01*
X027817Y036958D02*
X027231Y036958D01*
X027231Y037001D02*
X027817Y037001D01*
X027817Y037044D02*
X027231Y037044D01*
X027817Y036331D02*
X027817Y035823D01*
X027231Y035823D01*
X027231Y036331D01*
X027817Y036331D01*
X027817Y035866D02*
X027231Y035866D01*
X027231Y035909D02*
X027817Y035909D01*
X027817Y035952D02*
X027231Y035952D01*
X027231Y035995D02*
X027817Y035995D01*
X027817Y036038D02*
X027231Y036038D01*
X027231Y036081D02*
X027817Y036081D01*
X027817Y036124D02*
X027231Y036124D01*
X027231Y036167D02*
X027817Y036167D01*
X027817Y036210D02*
X027231Y036210D01*
X027231Y036253D02*
X027817Y036253D01*
X027817Y036296D02*
X027231Y036296D01*
X027402Y034744D02*
X026894Y034744D01*
X027402Y034744D02*
X027402Y034158D01*
X026894Y034158D01*
X026894Y034744D01*
X026894Y034201D02*
X027402Y034201D01*
X027402Y034244D02*
X026894Y034244D01*
X026894Y034287D02*
X027402Y034287D01*
X027402Y034330D02*
X026894Y034330D01*
X026894Y034373D02*
X027402Y034373D01*
X027402Y034416D02*
X026894Y034416D01*
X026894Y034459D02*
X027402Y034459D01*
X027402Y034502D02*
X026894Y034502D01*
X026894Y034545D02*
X027402Y034545D01*
X027402Y034588D02*
X026894Y034588D01*
X026894Y034631D02*
X027402Y034631D01*
X027402Y034674D02*
X026894Y034674D01*
X026894Y034717D02*
X027402Y034717D01*
X026654Y034744D02*
X026146Y034744D01*
X026654Y034744D02*
X026654Y034158D01*
X026146Y034158D01*
X026146Y034744D01*
X026146Y034201D02*
X026654Y034201D01*
X026654Y034244D02*
X026146Y034244D01*
X026146Y034287D02*
X026654Y034287D01*
X026654Y034330D02*
X026146Y034330D01*
X026146Y034373D02*
X026654Y034373D01*
X026654Y034416D02*
X026146Y034416D01*
X026146Y034459D02*
X026654Y034459D01*
X026654Y034502D02*
X026146Y034502D01*
X026146Y034545D02*
X026654Y034545D01*
X026654Y034588D02*
X026146Y034588D01*
X026146Y034631D02*
X026654Y034631D01*
X026654Y034674D02*
X026146Y034674D01*
X026146Y034717D02*
X026654Y034717D01*
X026654Y033158D02*
X026146Y033158D01*
X026146Y033744D01*
X026654Y033744D01*
X026654Y033158D01*
X026654Y033201D02*
X026146Y033201D01*
X026146Y033244D02*
X026654Y033244D01*
X026654Y033287D02*
X026146Y033287D01*
X026146Y033330D02*
X026654Y033330D01*
X026654Y033373D02*
X026146Y033373D01*
X026146Y033416D02*
X026654Y033416D01*
X026654Y033459D02*
X026146Y033459D01*
X026146Y033502D02*
X026654Y033502D01*
X026654Y033545D02*
X026146Y033545D01*
X026146Y033588D02*
X026654Y033588D01*
X026654Y033631D02*
X026146Y033631D01*
X026146Y033674D02*
X026654Y033674D01*
X026654Y033717D02*
X026146Y033717D01*
X026894Y033158D02*
X027402Y033158D01*
X026894Y033158D02*
X026894Y033744D01*
X027402Y033744D01*
X027402Y033158D01*
X027402Y033201D02*
X026894Y033201D01*
X026894Y033244D02*
X027402Y033244D01*
X027402Y033287D02*
X026894Y033287D01*
X026894Y033330D02*
X027402Y033330D01*
X027402Y033373D02*
X026894Y033373D01*
X026894Y033416D02*
X027402Y033416D01*
X027402Y033459D02*
X026894Y033459D01*
X026894Y033502D02*
X027402Y033502D01*
X027402Y033545D02*
X026894Y033545D01*
X026894Y033588D02*
X027402Y033588D01*
X027402Y033631D02*
X026894Y033631D01*
X026894Y033674D02*
X027402Y033674D01*
X027402Y033717D02*
X026894Y033717D01*
X028646Y019808D02*
X029154Y019808D01*
X028646Y019808D02*
X028646Y020394D01*
X029154Y020394D01*
X029154Y019808D01*
X029154Y019851D02*
X028646Y019851D01*
X028646Y019894D02*
X029154Y019894D01*
X029154Y019937D02*
X028646Y019937D01*
X028646Y019980D02*
X029154Y019980D01*
X029154Y020023D02*
X028646Y020023D01*
X028646Y020066D02*
X029154Y020066D01*
X029154Y020109D02*
X028646Y020109D01*
X028646Y020152D02*
X029154Y020152D01*
X029154Y020195D02*
X028646Y020195D01*
X028646Y020238D02*
X029154Y020238D01*
X029154Y020281D02*
X028646Y020281D01*
X028646Y020324D02*
X029154Y020324D01*
X029154Y020367D02*
X028646Y020367D01*
X028646Y019108D02*
X029154Y019108D01*
X028646Y019108D02*
X028646Y019694D01*
X029154Y019694D01*
X029154Y019108D01*
X029154Y019151D02*
X028646Y019151D01*
X028646Y019194D02*
X029154Y019194D01*
X029154Y019237D02*
X028646Y019237D01*
X028646Y019280D02*
X029154Y019280D01*
X029154Y019323D02*
X028646Y019323D01*
X028646Y019366D02*
X029154Y019366D01*
X029154Y019409D02*
X028646Y019409D01*
X028646Y019452D02*
X029154Y019452D01*
X029154Y019495D02*
X028646Y019495D01*
X028646Y019538D02*
X029154Y019538D01*
X029154Y019581D02*
X028646Y019581D01*
X028646Y019624D02*
X029154Y019624D01*
X029154Y019667D02*
X028646Y019667D01*
X029394Y019108D02*
X029902Y019108D01*
X029394Y019108D02*
X029394Y019694D01*
X029902Y019694D01*
X029902Y019108D01*
X029902Y019151D02*
X029394Y019151D01*
X029394Y019194D02*
X029902Y019194D01*
X029902Y019237D02*
X029394Y019237D01*
X029394Y019280D02*
X029902Y019280D01*
X029902Y019323D02*
X029394Y019323D01*
X029394Y019366D02*
X029902Y019366D01*
X029902Y019409D02*
X029394Y019409D01*
X029394Y019452D02*
X029902Y019452D01*
X029902Y019495D02*
X029394Y019495D01*
X029394Y019538D02*
X029902Y019538D01*
X029902Y019581D02*
X029394Y019581D01*
X029394Y019624D02*
X029902Y019624D01*
X029902Y019667D02*
X029394Y019667D01*
X029394Y019808D02*
X029902Y019808D01*
X029394Y019808D02*
X029394Y020394D01*
X029902Y020394D01*
X029902Y019808D01*
X029902Y019851D02*
X029394Y019851D01*
X029394Y019894D02*
X029902Y019894D01*
X029902Y019937D02*
X029394Y019937D01*
X029394Y019980D02*
X029902Y019980D01*
X029902Y020023D02*
X029394Y020023D01*
X029394Y020066D02*
X029902Y020066D01*
X029902Y020109D02*
X029394Y020109D01*
X029394Y020152D02*
X029902Y020152D01*
X029902Y020195D02*
X029394Y020195D01*
X029394Y020238D02*
X029902Y020238D01*
X029902Y020281D02*
X029394Y020281D01*
X029394Y020324D02*
X029902Y020324D01*
X029902Y020367D02*
X029394Y020367D01*
X016363Y012502D02*
X016363Y011916D01*
X016363Y012502D02*
X017185Y012502D01*
X017185Y011916D01*
X016363Y011916D01*
X016363Y011959D02*
X017185Y011959D01*
X017185Y012002D02*
X016363Y012002D01*
X016363Y012045D02*
X017185Y012045D01*
X017185Y012088D02*
X016363Y012088D01*
X016363Y012131D02*
X017185Y012131D01*
X017185Y012174D02*
X016363Y012174D01*
X016363Y012217D02*
X017185Y012217D01*
X017185Y012260D02*
X016363Y012260D01*
X016363Y012303D02*
X017185Y012303D01*
X017185Y012346D02*
X016363Y012346D01*
X016363Y012389D02*
X017185Y012389D01*
X017185Y012432D02*
X016363Y012432D01*
X016363Y012475D02*
X017185Y012475D01*
X016363Y011085D02*
X016363Y010499D01*
X016363Y011085D02*
X017185Y011085D01*
X017185Y010499D01*
X016363Y010499D01*
X016363Y010542D02*
X017185Y010542D01*
X017185Y010585D02*
X016363Y010585D01*
X016363Y010628D02*
X017185Y010628D01*
X017185Y010671D02*
X016363Y010671D01*
X016363Y010714D02*
X017185Y010714D01*
X017185Y010757D02*
X016363Y010757D01*
X016363Y010800D02*
X017185Y010800D01*
X017185Y010843D02*
X016363Y010843D01*
X016363Y010886D02*
X017185Y010886D01*
X017185Y010929D02*
X016363Y010929D01*
X016363Y010972D02*
X017185Y010972D01*
X017185Y011015D02*
X016363Y011015D01*
X016363Y011058D02*
X017185Y011058D01*
X013667Y011273D02*
X013667Y011781D01*
X013667Y011273D02*
X013081Y011273D01*
X013081Y011781D01*
X013667Y011781D01*
X013667Y011316D02*
X013081Y011316D01*
X013081Y011359D02*
X013667Y011359D01*
X013667Y011402D02*
X013081Y011402D01*
X013081Y011445D02*
X013667Y011445D01*
X013667Y011488D02*
X013081Y011488D01*
X013081Y011531D02*
X013667Y011531D01*
X013667Y011574D02*
X013081Y011574D01*
X013081Y011617D02*
X013667Y011617D01*
X013667Y011660D02*
X013081Y011660D01*
X013081Y011703D02*
X013667Y011703D01*
X013667Y011746D02*
X013081Y011746D01*
X013667Y012021D02*
X013667Y012529D01*
X013667Y012021D02*
X013081Y012021D01*
X013081Y012529D01*
X013667Y012529D01*
X013667Y012064D02*
X013081Y012064D01*
X013081Y012107D02*
X013667Y012107D01*
X013667Y012150D02*
X013081Y012150D01*
X013081Y012193D02*
X013667Y012193D01*
X013667Y012236D02*
X013081Y012236D01*
X013081Y012279D02*
X013667Y012279D01*
X013667Y012322D02*
X013081Y012322D01*
X013081Y012365D02*
X013667Y012365D01*
X013667Y012408D02*
X013081Y012408D01*
X013081Y012451D02*
X013667Y012451D01*
X013667Y012494D02*
X013081Y012494D01*
X012752Y012394D02*
X012244Y012394D01*
X012752Y012394D02*
X012752Y011808D01*
X012244Y011808D01*
X012244Y012394D01*
X012244Y011851D02*
X012752Y011851D01*
X012752Y011894D02*
X012244Y011894D01*
X012244Y011937D02*
X012752Y011937D01*
X012752Y011980D02*
X012244Y011980D01*
X012244Y012023D02*
X012752Y012023D01*
X012752Y012066D02*
X012244Y012066D01*
X012244Y012109D02*
X012752Y012109D01*
X012752Y012152D02*
X012244Y012152D01*
X012244Y012195D02*
X012752Y012195D01*
X012752Y012238D02*
X012244Y012238D01*
X012244Y012281D02*
X012752Y012281D01*
X012752Y012324D02*
X012244Y012324D01*
X012244Y012367D02*
X012752Y012367D01*
X012004Y012394D02*
X011496Y012394D01*
X012004Y012394D02*
X012004Y011808D01*
X011496Y011808D01*
X011496Y012394D01*
X011496Y011851D02*
X012004Y011851D01*
X012004Y011894D02*
X011496Y011894D01*
X011496Y011937D02*
X012004Y011937D01*
X012004Y011980D02*
X011496Y011980D01*
X011496Y012023D02*
X012004Y012023D01*
X012004Y012066D02*
X011496Y012066D01*
X011496Y012109D02*
X012004Y012109D01*
X012004Y012152D02*
X011496Y012152D01*
X011496Y012195D02*
X012004Y012195D01*
X012004Y012238D02*
X011496Y012238D01*
X011496Y012281D02*
X012004Y012281D01*
X012004Y012324D02*
X011496Y012324D01*
X011496Y012367D02*
X012004Y012367D01*
X012004Y011644D02*
X011496Y011644D01*
X012004Y011644D02*
X012004Y011058D01*
X011496Y011058D01*
X011496Y011644D01*
X011496Y011101D02*
X012004Y011101D01*
X012004Y011144D02*
X011496Y011144D01*
X011496Y011187D02*
X012004Y011187D01*
X012004Y011230D02*
X011496Y011230D01*
X011496Y011273D02*
X012004Y011273D01*
X012004Y011316D02*
X011496Y011316D01*
X011496Y011359D02*
X012004Y011359D01*
X012004Y011402D02*
X011496Y011402D01*
X011496Y011445D02*
X012004Y011445D01*
X012004Y011488D02*
X011496Y011488D01*
X011496Y011531D02*
X012004Y011531D01*
X012004Y011574D02*
X011496Y011574D01*
X011496Y011617D02*
X012004Y011617D01*
X012244Y011644D02*
X012752Y011644D01*
X012752Y011058D01*
X012244Y011058D01*
X012244Y011644D01*
X012244Y011101D02*
X012752Y011101D01*
X012752Y011144D02*
X012244Y011144D01*
X012244Y011187D02*
X012752Y011187D01*
X012752Y011230D02*
X012244Y011230D01*
X012244Y011273D02*
X012752Y011273D01*
X012752Y011316D02*
X012244Y011316D01*
X012244Y011359D02*
X012752Y011359D01*
X012752Y011402D02*
X012244Y011402D01*
X012244Y011445D02*
X012752Y011445D01*
X012752Y011488D02*
X012244Y011488D01*
X012244Y011531D02*
X012752Y011531D01*
X012752Y011574D02*
X012244Y011574D01*
X012244Y011617D02*
X012752Y011617D01*
X012694Y015044D02*
X013202Y015044D01*
X013202Y014458D01*
X012694Y014458D01*
X012694Y015044D01*
X012694Y014501D02*
X013202Y014501D01*
X013202Y014544D02*
X012694Y014544D01*
X012694Y014587D02*
X013202Y014587D01*
X013202Y014630D02*
X012694Y014630D01*
X012694Y014673D02*
X013202Y014673D01*
X013202Y014716D02*
X012694Y014716D01*
X012694Y014759D02*
X013202Y014759D01*
X013202Y014802D02*
X012694Y014802D01*
X012694Y014845D02*
X013202Y014845D01*
X013202Y014888D02*
X012694Y014888D01*
X012694Y014931D02*
X013202Y014931D01*
X013202Y014974D02*
X012694Y014974D01*
X012694Y015017D02*
X013202Y015017D01*
X013202Y015158D02*
X012694Y015158D01*
X012694Y015744D01*
X013202Y015744D01*
X013202Y015158D01*
X013202Y015201D02*
X012694Y015201D01*
X012694Y015244D02*
X013202Y015244D01*
X013202Y015287D02*
X012694Y015287D01*
X012694Y015330D02*
X013202Y015330D01*
X013202Y015373D02*
X012694Y015373D01*
X012694Y015416D02*
X013202Y015416D01*
X013202Y015459D02*
X012694Y015459D01*
X012694Y015502D02*
X013202Y015502D01*
X013202Y015545D02*
X012694Y015545D01*
X012694Y015588D02*
X013202Y015588D01*
X013202Y015631D02*
X012694Y015631D01*
X012694Y015674D02*
X013202Y015674D01*
X013202Y015717D02*
X012694Y015717D01*
X012454Y015158D02*
X011946Y015158D01*
X011946Y015744D01*
X012454Y015744D01*
X012454Y015158D01*
X012454Y015201D02*
X011946Y015201D01*
X011946Y015244D02*
X012454Y015244D01*
X012454Y015287D02*
X011946Y015287D01*
X011946Y015330D02*
X012454Y015330D01*
X012454Y015373D02*
X011946Y015373D01*
X011946Y015416D02*
X012454Y015416D01*
X012454Y015459D02*
X011946Y015459D01*
X011946Y015502D02*
X012454Y015502D01*
X012454Y015545D02*
X011946Y015545D01*
X011946Y015588D02*
X012454Y015588D01*
X012454Y015631D02*
X011946Y015631D01*
X011946Y015674D02*
X012454Y015674D01*
X012454Y015717D02*
X011946Y015717D01*
X012146Y016494D02*
X012654Y016494D01*
X012654Y015908D01*
X012146Y015908D01*
X012146Y016494D01*
X012146Y015951D02*
X012654Y015951D01*
X012654Y015994D02*
X012146Y015994D01*
X012146Y016037D02*
X012654Y016037D01*
X012654Y016080D02*
X012146Y016080D01*
X012146Y016123D02*
X012654Y016123D01*
X012654Y016166D02*
X012146Y016166D01*
X012146Y016209D02*
X012654Y016209D01*
X012654Y016252D02*
X012146Y016252D01*
X012146Y016295D02*
X012654Y016295D01*
X012654Y016338D02*
X012146Y016338D01*
X012146Y016381D02*
X012654Y016381D01*
X012654Y016424D02*
X012146Y016424D01*
X012146Y016467D02*
X012654Y016467D01*
X012704Y017244D02*
X012196Y017244D01*
X012704Y017244D02*
X012704Y016658D01*
X012196Y016658D01*
X012196Y017244D01*
X012196Y016701D02*
X012704Y016701D01*
X012704Y016744D02*
X012196Y016744D01*
X012196Y016787D02*
X012704Y016787D01*
X012704Y016830D02*
X012196Y016830D01*
X012196Y016873D02*
X012704Y016873D01*
X012704Y016916D02*
X012196Y016916D01*
X012196Y016959D02*
X012704Y016959D01*
X012704Y017002D02*
X012196Y017002D01*
X012196Y017045D02*
X012704Y017045D01*
X012704Y017088D02*
X012196Y017088D01*
X012196Y017131D02*
X012704Y017131D01*
X012704Y017174D02*
X012196Y017174D01*
X012196Y017217D02*
X012704Y017217D01*
X012944Y017244D02*
X013452Y017244D01*
X013452Y016658D01*
X012944Y016658D01*
X012944Y017244D01*
X012944Y016701D02*
X013452Y016701D01*
X013452Y016744D02*
X012944Y016744D01*
X012944Y016787D02*
X013452Y016787D01*
X013452Y016830D02*
X012944Y016830D01*
X012944Y016873D02*
X013452Y016873D01*
X013452Y016916D02*
X012944Y016916D01*
X012944Y016959D02*
X013452Y016959D01*
X013452Y017002D02*
X012944Y017002D01*
X012944Y017045D02*
X013452Y017045D01*
X013452Y017088D02*
X012944Y017088D01*
X012944Y017131D02*
X013452Y017131D01*
X013452Y017174D02*
X012944Y017174D01*
X012944Y017217D02*
X013452Y017217D01*
X013596Y017794D02*
X014104Y017794D01*
X014104Y017208D01*
X013596Y017208D01*
X013596Y017794D01*
X013596Y017251D02*
X014104Y017251D01*
X014104Y017294D02*
X013596Y017294D01*
X013596Y017337D02*
X014104Y017337D01*
X014104Y017380D02*
X013596Y017380D01*
X013596Y017423D02*
X014104Y017423D01*
X014104Y017466D02*
X013596Y017466D01*
X013596Y017509D02*
X014104Y017509D01*
X014104Y017552D02*
X013596Y017552D01*
X013596Y017595D02*
X014104Y017595D01*
X014104Y017638D02*
X013596Y017638D01*
X013596Y017681D02*
X014104Y017681D01*
X014104Y017724D02*
X013596Y017724D01*
X013596Y017767D02*
X014104Y017767D01*
X014344Y017794D02*
X014852Y017794D01*
X014852Y017208D01*
X014344Y017208D01*
X014344Y017794D01*
X014344Y017251D02*
X014852Y017251D01*
X014852Y017294D02*
X014344Y017294D01*
X014344Y017337D02*
X014852Y017337D01*
X014852Y017380D02*
X014344Y017380D01*
X014344Y017423D02*
X014852Y017423D01*
X014852Y017466D02*
X014344Y017466D01*
X014344Y017509D02*
X014852Y017509D01*
X014852Y017552D02*
X014344Y017552D01*
X014344Y017595D02*
X014852Y017595D01*
X014852Y017638D02*
X014344Y017638D01*
X014344Y017681D02*
X014852Y017681D01*
X014852Y017724D02*
X014344Y017724D01*
X014344Y017767D02*
X014852Y017767D01*
X013402Y016494D02*
X012894Y016494D01*
X013402Y016494D02*
X013402Y015908D01*
X012894Y015908D01*
X012894Y016494D01*
X012894Y015951D02*
X013402Y015951D01*
X013402Y015994D02*
X012894Y015994D01*
X012894Y016037D02*
X013402Y016037D01*
X013402Y016080D02*
X012894Y016080D01*
X012894Y016123D02*
X013402Y016123D01*
X013402Y016166D02*
X012894Y016166D01*
X012894Y016209D02*
X013402Y016209D01*
X013402Y016252D02*
X012894Y016252D01*
X012894Y016295D02*
X013402Y016295D01*
X013402Y016338D02*
X012894Y016338D01*
X012894Y016381D02*
X013402Y016381D01*
X013402Y016424D02*
X012894Y016424D01*
X012894Y016467D02*
X013402Y016467D01*
X012454Y015044D02*
X011946Y015044D01*
X012454Y015044D02*
X012454Y014458D01*
X011946Y014458D01*
X011946Y015044D01*
X011946Y014501D02*
X012454Y014501D01*
X012454Y014544D02*
X011946Y014544D01*
X011946Y014587D02*
X012454Y014587D01*
X012454Y014630D02*
X011946Y014630D01*
X011946Y014673D02*
X012454Y014673D01*
X012454Y014716D02*
X011946Y014716D01*
X011946Y014759D02*
X012454Y014759D01*
X012454Y014802D02*
X011946Y014802D01*
X011946Y014845D02*
X012454Y014845D01*
X012454Y014888D02*
X011946Y014888D01*
X011946Y014931D02*
X012454Y014931D01*
X012454Y014974D02*
X011946Y014974D01*
X011946Y015017D02*
X012454Y015017D01*
X009588Y008752D02*
X009588Y008166D01*
X009588Y008752D02*
X010410Y008752D01*
X010410Y008166D01*
X009588Y008166D01*
X009588Y008209D02*
X010410Y008209D01*
X010410Y008252D02*
X009588Y008252D01*
X009588Y008295D02*
X010410Y008295D01*
X010410Y008338D02*
X009588Y008338D01*
X009588Y008381D02*
X010410Y008381D01*
X010410Y008424D02*
X009588Y008424D01*
X009588Y008467D02*
X010410Y008467D01*
X010410Y008510D02*
X009588Y008510D01*
X009588Y008553D02*
X010410Y008553D01*
X010410Y008596D02*
X009588Y008596D01*
X009588Y008639D02*
X010410Y008639D01*
X010410Y008682D02*
X009588Y008682D01*
X009588Y008725D02*
X010410Y008725D01*
X009588Y007335D02*
X009588Y006749D01*
X009588Y007335D02*
X010410Y007335D01*
X010410Y006749D01*
X009588Y006749D01*
X009588Y006792D02*
X010410Y006792D01*
X010410Y006835D02*
X009588Y006835D01*
X009588Y006878D02*
X010410Y006878D01*
X010410Y006921D02*
X009588Y006921D01*
X009588Y006964D02*
X010410Y006964D01*
X010410Y007007D02*
X009588Y007007D01*
X009588Y007050D02*
X010410Y007050D01*
X010410Y007093D02*
X009588Y007093D01*
X009588Y007136D02*
X010410Y007136D01*
X010410Y007179D02*
X009588Y007179D01*
X009588Y007222D02*
X010410Y007222D01*
X010410Y007265D02*
X009588Y007265D01*
X009588Y007308D02*
X010410Y007308D01*
X008213Y007294D02*
X007705Y007294D01*
X008213Y007294D02*
X008213Y006708D01*
X007705Y006708D01*
X007705Y007294D01*
X007705Y006751D02*
X008213Y006751D01*
X008213Y006794D02*
X007705Y006794D01*
X007705Y006837D02*
X008213Y006837D01*
X008213Y006880D02*
X007705Y006880D01*
X007705Y006923D02*
X008213Y006923D01*
X008213Y006966D02*
X007705Y006966D01*
X007705Y007009D02*
X008213Y007009D01*
X008213Y007052D02*
X007705Y007052D01*
X007705Y007095D02*
X008213Y007095D01*
X008213Y007138D02*
X007705Y007138D01*
X007705Y007181D02*
X008213Y007181D01*
X008213Y007224D02*
X007705Y007224D01*
X007705Y007267D02*
X008213Y007267D01*
X007544Y007294D02*
X007036Y007294D01*
X007544Y007294D02*
X007544Y006708D01*
X007036Y006708D01*
X007036Y007294D01*
X007036Y006751D02*
X007544Y006751D01*
X007544Y006794D02*
X007036Y006794D01*
X007036Y006837D02*
X007544Y006837D01*
X007544Y006880D02*
X007036Y006880D01*
X007036Y006923D02*
X007544Y006923D01*
X007544Y006966D02*
X007036Y006966D01*
X007036Y007009D02*
X007544Y007009D01*
X007544Y007052D02*
X007036Y007052D01*
X007036Y007095D02*
X007544Y007095D01*
X007544Y007138D02*
X007036Y007138D01*
X007036Y007181D02*
X007544Y007181D01*
X007544Y007224D02*
X007036Y007224D01*
X007036Y007267D02*
X007544Y007267D01*
X005202Y006608D02*
X004694Y006608D01*
X004694Y007194D01*
X005202Y007194D01*
X005202Y006608D01*
X005202Y006651D02*
X004694Y006651D01*
X004694Y006694D02*
X005202Y006694D01*
X005202Y006737D02*
X004694Y006737D01*
X004694Y006780D02*
X005202Y006780D01*
X005202Y006823D02*
X004694Y006823D01*
X004694Y006866D02*
X005202Y006866D01*
X005202Y006909D02*
X004694Y006909D01*
X004694Y006952D02*
X005202Y006952D01*
X005202Y006995D02*
X004694Y006995D01*
X004694Y007038D02*
X005202Y007038D01*
X005202Y007081D02*
X004694Y007081D01*
X004694Y007124D02*
X005202Y007124D01*
X005202Y007167D02*
X004694Y007167D01*
X004454Y006608D02*
X003946Y006608D01*
X003946Y007194D01*
X004454Y007194D01*
X004454Y006608D01*
X004454Y006651D02*
X003946Y006651D01*
X003946Y006694D02*
X004454Y006694D01*
X004454Y006737D02*
X003946Y006737D01*
X003946Y006780D02*
X004454Y006780D01*
X004454Y006823D02*
X003946Y006823D01*
X003946Y006866D02*
X004454Y006866D01*
X004454Y006909D02*
X003946Y006909D01*
X003946Y006952D02*
X004454Y006952D01*
X004454Y006995D02*
X003946Y006995D01*
X003946Y007038D02*
X004454Y007038D01*
X004454Y007081D02*
X003946Y007081D01*
X003946Y007124D02*
X004454Y007124D01*
X004454Y007167D02*
X003946Y007167D01*
X004546Y009994D02*
X005054Y009994D01*
X005054Y009408D01*
X004546Y009408D01*
X004546Y009994D01*
X004546Y009451D02*
X005054Y009451D01*
X005054Y009494D02*
X004546Y009494D01*
X004546Y009537D02*
X005054Y009537D01*
X005054Y009580D02*
X004546Y009580D01*
X004546Y009623D02*
X005054Y009623D01*
X005054Y009666D02*
X004546Y009666D01*
X004546Y009709D02*
X005054Y009709D01*
X005054Y009752D02*
X004546Y009752D01*
X004546Y009795D02*
X005054Y009795D01*
X005054Y009838D02*
X004546Y009838D01*
X004546Y009881D02*
X005054Y009881D01*
X005054Y009924D02*
X004546Y009924D01*
X004546Y009967D02*
X005054Y009967D01*
X005294Y009994D02*
X005802Y009994D01*
X005802Y009408D01*
X005294Y009408D01*
X005294Y009994D01*
X005294Y009451D02*
X005802Y009451D01*
X005802Y009494D02*
X005294Y009494D01*
X005294Y009537D02*
X005802Y009537D01*
X005802Y009580D02*
X005294Y009580D01*
X005294Y009623D02*
X005802Y009623D01*
X005802Y009666D02*
X005294Y009666D01*
X005294Y009709D02*
X005802Y009709D01*
X005802Y009752D02*
X005294Y009752D01*
X005294Y009795D02*
X005802Y009795D01*
X005802Y009838D02*
X005294Y009838D01*
X005294Y009881D02*
X005802Y009881D01*
X005802Y009924D02*
X005294Y009924D01*
X005294Y009967D02*
X005802Y009967D01*
X013296Y006094D02*
X013804Y006094D01*
X013804Y005508D01*
X013296Y005508D01*
X013296Y006094D01*
X013296Y005551D02*
X013804Y005551D01*
X013804Y005594D02*
X013296Y005594D01*
X013296Y005637D02*
X013804Y005637D01*
X013804Y005680D02*
X013296Y005680D01*
X013296Y005723D02*
X013804Y005723D01*
X013804Y005766D02*
X013296Y005766D01*
X013296Y005809D02*
X013804Y005809D01*
X013804Y005852D02*
X013296Y005852D01*
X013296Y005895D02*
X013804Y005895D01*
X013804Y005938D02*
X013296Y005938D01*
X013296Y005981D02*
X013804Y005981D01*
X013804Y006024D02*
X013296Y006024D01*
X013296Y006067D02*
X013804Y006067D01*
X014044Y006094D02*
X014552Y006094D01*
X014552Y005508D01*
X014044Y005508D01*
X014044Y006094D01*
X014044Y005551D02*
X014552Y005551D01*
X014552Y005594D02*
X014044Y005594D01*
X014044Y005637D02*
X014552Y005637D01*
X014552Y005680D02*
X014044Y005680D01*
X014044Y005723D02*
X014552Y005723D01*
X014552Y005766D02*
X014044Y005766D01*
X014044Y005809D02*
X014552Y005809D01*
X014552Y005852D02*
X014044Y005852D01*
X014044Y005895D02*
X014552Y005895D01*
X014552Y005938D02*
X014044Y005938D01*
X014044Y005981D02*
X014552Y005981D01*
X014552Y006024D02*
X014044Y006024D01*
X014044Y006067D02*
X014552Y006067D01*
X012681Y003179D02*
X012681Y002671D01*
X012681Y003179D02*
X013267Y003179D01*
X013267Y002671D01*
X012681Y002671D01*
X012681Y002714D02*
X013267Y002714D01*
X013267Y002757D02*
X012681Y002757D01*
X012681Y002800D02*
X013267Y002800D01*
X013267Y002843D02*
X012681Y002843D01*
X012681Y002886D02*
X013267Y002886D01*
X013267Y002929D02*
X012681Y002929D01*
X012681Y002972D02*
X013267Y002972D01*
X013267Y003015D02*
X012681Y003015D01*
X012681Y003058D02*
X013267Y003058D01*
X013267Y003101D02*
X012681Y003101D01*
X012681Y003144D02*
X013267Y003144D01*
X012681Y002431D02*
X012681Y001923D01*
X012681Y002431D02*
X013267Y002431D01*
X013267Y001923D01*
X012681Y001923D01*
X012681Y001966D02*
X013267Y001966D01*
X013267Y002009D02*
X012681Y002009D01*
X012681Y002052D02*
X013267Y002052D01*
X013267Y002095D02*
X012681Y002095D01*
X012681Y002138D02*
X013267Y002138D01*
X013267Y002181D02*
X012681Y002181D01*
X012681Y002224D02*
X013267Y002224D01*
X013267Y002267D02*
X012681Y002267D01*
X012681Y002310D02*
X013267Y002310D01*
X013267Y002353D02*
X012681Y002353D01*
X012681Y002396D02*
X013267Y002396D01*
D18*
X016200Y006907D02*
X016200Y007299D01*
X016828Y007299D01*
X016828Y006907D01*
X016200Y006907D01*
X016200Y006949D02*
X016828Y006949D01*
X016828Y006991D02*
X016200Y006991D01*
X016200Y007033D02*
X016828Y007033D01*
X016828Y007075D02*
X016200Y007075D01*
X016200Y007117D02*
X016828Y007117D01*
X016828Y007159D02*
X016200Y007159D01*
X016200Y007201D02*
X016828Y007201D01*
X016828Y007243D02*
X016200Y007243D01*
X016200Y007285D02*
X016828Y007285D01*
X016200Y008702D02*
X016200Y009094D01*
X016828Y009094D01*
X016828Y008702D01*
X016200Y008702D01*
X016200Y008744D02*
X016828Y008744D01*
X016828Y008786D02*
X016200Y008786D01*
X016200Y008828D02*
X016828Y008828D01*
X016828Y008870D02*
X016200Y008870D01*
X016200Y008912D02*
X016828Y008912D01*
X016828Y008954D02*
X016200Y008954D01*
X016200Y008996D02*
X016828Y008996D01*
X016828Y009038D02*
X016200Y009038D01*
X016200Y009080D02*
X016828Y009080D01*
X035497Y025403D02*
X035889Y025403D01*
X035889Y024855D01*
X035497Y024855D01*
X035497Y025403D01*
X035497Y024897D02*
X035889Y024897D01*
X035889Y024939D02*
X035497Y024939D01*
X035497Y024981D02*
X035889Y024981D01*
X035889Y025023D02*
X035497Y025023D01*
X035497Y025065D02*
X035889Y025065D01*
X035889Y025107D02*
X035497Y025107D01*
X035497Y025149D02*
X035889Y025149D01*
X035889Y025191D02*
X035497Y025191D01*
X035497Y025233D02*
X035889Y025233D01*
X035889Y025275D02*
X035497Y025275D01*
X035497Y025317D02*
X035889Y025317D01*
X035889Y025359D02*
X035497Y025359D01*
X035497Y025401D02*
X035889Y025401D01*
X036245Y025403D02*
X036637Y025403D01*
X036637Y024855D01*
X036245Y024855D01*
X036245Y025403D01*
X036245Y024897D02*
X036637Y024897D01*
X036637Y024939D02*
X036245Y024939D01*
X036245Y024981D02*
X036637Y024981D01*
X036637Y025023D02*
X036245Y025023D01*
X036245Y025065D02*
X036637Y025065D01*
X036637Y025107D02*
X036245Y025107D01*
X036245Y025149D02*
X036637Y025149D01*
X036637Y025191D02*
X036245Y025191D01*
X036245Y025233D02*
X036637Y025233D01*
X036637Y025275D02*
X036245Y025275D01*
X036245Y025317D02*
X036637Y025317D01*
X036637Y025359D02*
X036245Y025359D01*
X036245Y025401D02*
X036637Y025401D01*
X036263Y026269D02*
X035871Y026269D01*
X036263Y026269D02*
X036263Y025721D01*
X035871Y025721D01*
X035871Y026269D01*
X035871Y025763D02*
X036263Y025763D01*
X036263Y025805D02*
X035871Y025805D01*
X035871Y025847D02*
X036263Y025847D01*
X036263Y025889D02*
X035871Y025889D01*
X035871Y025931D02*
X036263Y025931D01*
X036263Y025973D02*
X035871Y025973D01*
X035871Y026015D02*
X036263Y026015D01*
X036263Y026057D02*
X035871Y026057D01*
X035871Y026099D02*
X036263Y026099D01*
X036263Y026141D02*
X035871Y026141D01*
X035871Y026183D02*
X036263Y026183D01*
X036263Y026225D02*
X035871Y026225D01*
X035871Y026267D02*
X036263Y026267D01*
X036321Y002510D02*
X035929Y002510D01*
X035929Y003058D01*
X036321Y003058D01*
X036321Y002510D01*
X036321Y002552D02*
X035929Y002552D01*
X035929Y002594D02*
X036321Y002594D01*
X036321Y002636D02*
X035929Y002636D01*
X035929Y002678D02*
X036321Y002678D01*
X036321Y002720D02*
X035929Y002720D01*
X035929Y002762D02*
X036321Y002762D01*
X036321Y002804D02*
X035929Y002804D01*
X035929Y002846D02*
X036321Y002846D01*
X036321Y002888D02*
X035929Y002888D01*
X035929Y002930D02*
X036321Y002930D01*
X036321Y002972D02*
X035929Y002972D01*
X035929Y003014D02*
X036321Y003014D01*
X036321Y003056D02*
X035929Y003056D01*
X036677Y002510D02*
X037069Y002510D01*
X036677Y002510D02*
X036677Y003058D01*
X037069Y003058D01*
X037069Y002510D01*
X037069Y002552D02*
X036677Y002552D01*
X036677Y002594D02*
X037069Y002594D01*
X037069Y002636D02*
X036677Y002636D01*
X036677Y002678D02*
X037069Y002678D01*
X037069Y002720D02*
X036677Y002720D01*
X036677Y002762D02*
X037069Y002762D01*
X037069Y002804D02*
X036677Y002804D01*
X036677Y002846D02*
X037069Y002846D01*
X037069Y002888D02*
X036677Y002888D01*
X036677Y002930D02*
X037069Y002930D01*
X037069Y002972D02*
X036677Y002972D01*
X036677Y003014D02*
X037069Y003014D01*
X037069Y003056D02*
X036677Y003056D01*
X036695Y001644D02*
X036303Y001644D01*
X036303Y002192D01*
X036695Y002192D01*
X036695Y001644D01*
X036695Y001686D02*
X036303Y001686D01*
X036303Y001728D02*
X036695Y001728D01*
X036695Y001770D02*
X036303Y001770D01*
X036303Y001812D02*
X036695Y001812D01*
X036695Y001854D02*
X036303Y001854D01*
X036303Y001896D02*
X036695Y001896D01*
X036695Y001938D02*
X036303Y001938D01*
X036303Y001980D02*
X036695Y001980D01*
X036695Y002022D02*
X036303Y002022D01*
X036303Y002064D02*
X036695Y002064D01*
X036695Y002106D02*
X036303Y002106D01*
X036303Y002148D02*
X036695Y002148D01*
X036695Y002190D02*
X036303Y002190D01*
D19*
X031902Y002251D02*
X031347Y002251D01*
X031347Y001251D02*
X031902Y001251D01*
X031902Y003251D02*
X031347Y003251D01*
X031347Y004251D02*
X031902Y004251D01*
X031902Y005251D02*
X031347Y005251D01*
X031347Y006251D02*
X031902Y006251D01*
X031902Y007251D02*
X031347Y007251D01*
X031347Y008251D02*
X031902Y008251D01*
X031902Y009251D02*
X031347Y009251D01*
X031347Y010251D02*
X031902Y010251D01*
X031902Y011251D02*
X031347Y011251D01*
X031347Y012251D02*
X031902Y012251D01*
X031902Y013251D02*
X031347Y013251D01*
X031347Y014251D02*
X031902Y014251D01*
X031902Y015251D02*
X031347Y015251D01*
X031347Y016251D02*
X031902Y016251D01*
X031902Y017251D02*
X031347Y017251D01*
X031347Y018251D02*
X031902Y018251D01*
X031902Y019251D02*
X031347Y019251D01*
X031347Y020251D02*
X031902Y020251D01*
X025902Y020251D02*
X025347Y020251D01*
X025347Y019251D02*
X025902Y019251D01*
X025902Y018251D02*
X025347Y018251D01*
X025347Y017251D02*
X025902Y017251D01*
X025902Y016251D02*
X025347Y016251D01*
X025347Y015251D02*
X025902Y015251D01*
X025902Y014251D02*
X025347Y014251D01*
X025347Y013251D02*
X025902Y013251D01*
X025902Y012251D02*
X025347Y012251D01*
X025347Y011251D02*
X025902Y011251D01*
X025902Y010251D02*
X025347Y010251D01*
X025347Y009251D02*
X025902Y009251D01*
X025902Y008251D02*
X025347Y008251D01*
X025347Y007251D02*
X025902Y007251D01*
X025902Y006251D02*
X025347Y006251D01*
X025347Y005251D02*
X025902Y005251D01*
X025902Y004251D02*
X025347Y004251D01*
X025347Y003251D02*
X025902Y003251D01*
X025902Y002251D02*
X025347Y002251D01*
X025347Y001251D02*
X025902Y001251D01*
D20*
X026695Y003140D02*
X026953Y003140D01*
X026953Y002342D01*
X026695Y002342D01*
X026695Y003140D01*
X026695Y002383D02*
X026953Y002383D01*
X026953Y002424D02*
X026695Y002424D01*
X026695Y002465D02*
X026953Y002465D01*
X026953Y002506D02*
X026695Y002506D01*
X026695Y002547D02*
X026953Y002547D01*
X026953Y002588D02*
X026695Y002588D01*
X026695Y002629D02*
X026953Y002629D01*
X026953Y002670D02*
X026695Y002670D01*
X026695Y002711D02*
X026953Y002711D01*
X026953Y002752D02*
X026695Y002752D01*
X026695Y002793D02*
X026953Y002793D01*
X026953Y002834D02*
X026695Y002834D01*
X026695Y002875D02*
X026953Y002875D01*
X026953Y002916D02*
X026695Y002916D01*
X026695Y002957D02*
X026953Y002957D01*
X026953Y002998D02*
X026695Y002998D01*
X026695Y003039D02*
X026953Y003039D01*
X026953Y003080D02*
X026695Y003080D01*
X026695Y003121D02*
X026953Y003121D01*
X027195Y003140D02*
X027453Y003140D01*
X027453Y002342D01*
X027195Y002342D01*
X027195Y003140D01*
X027195Y002383D02*
X027453Y002383D01*
X027453Y002424D02*
X027195Y002424D01*
X027195Y002465D02*
X027453Y002465D01*
X027453Y002506D02*
X027195Y002506D01*
X027195Y002547D02*
X027453Y002547D01*
X027453Y002588D02*
X027195Y002588D01*
X027195Y002629D02*
X027453Y002629D01*
X027453Y002670D02*
X027195Y002670D01*
X027195Y002711D02*
X027453Y002711D01*
X027453Y002752D02*
X027195Y002752D01*
X027195Y002793D02*
X027453Y002793D01*
X027453Y002834D02*
X027195Y002834D01*
X027195Y002875D02*
X027453Y002875D01*
X027453Y002916D02*
X027195Y002916D01*
X027195Y002957D02*
X027453Y002957D01*
X027453Y002998D02*
X027195Y002998D01*
X027195Y003039D02*
X027453Y003039D01*
X027453Y003080D02*
X027195Y003080D01*
X027195Y003121D02*
X027453Y003121D01*
X027695Y003140D02*
X027953Y003140D01*
X027953Y002342D01*
X027695Y002342D01*
X027695Y003140D01*
X027695Y002383D02*
X027953Y002383D01*
X027953Y002424D02*
X027695Y002424D01*
X027695Y002465D02*
X027953Y002465D01*
X027953Y002506D02*
X027695Y002506D01*
X027695Y002547D02*
X027953Y002547D01*
X027953Y002588D02*
X027695Y002588D01*
X027695Y002629D02*
X027953Y002629D01*
X027953Y002670D02*
X027695Y002670D01*
X027695Y002711D02*
X027953Y002711D01*
X027953Y002752D02*
X027695Y002752D01*
X027695Y002793D02*
X027953Y002793D01*
X027953Y002834D02*
X027695Y002834D01*
X027695Y002875D02*
X027953Y002875D01*
X027953Y002916D02*
X027695Y002916D01*
X027695Y002957D02*
X027953Y002957D01*
X027953Y002998D02*
X027695Y002998D01*
X027695Y003039D02*
X027953Y003039D01*
X027953Y003080D02*
X027695Y003080D01*
X027695Y003121D02*
X027953Y003121D01*
X028195Y003140D02*
X028453Y003140D01*
X028453Y002342D01*
X028195Y002342D01*
X028195Y003140D01*
X028195Y002383D02*
X028453Y002383D01*
X028453Y002424D02*
X028195Y002424D01*
X028195Y002465D02*
X028453Y002465D01*
X028453Y002506D02*
X028195Y002506D01*
X028195Y002547D02*
X028453Y002547D01*
X028453Y002588D02*
X028195Y002588D01*
X028195Y002629D02*
X028453Y002629D01*
X028453Y002670D02*
X028195Y002670D01*
X028195Y002711D02*
X028453Y002711D01*
X028453Y002752D02*
X028195Y002752D01*
X028195Y002793D02*
X028453Y002793D01*
X028453Y002834D02*
X028195Y002834D01*
X028195Y002875D02*
X028453Y002875D01*
X028453Y002916D02*
X028195Y002916D01*
X028195Y002957D02*
X028453Y002957D01*
X028453Y002998D02*
X028195Y002998D01*
X028195Y003039D02*
X028453Y003039D01*
X028453Y003080D02*
X028195Y003080D01*
X028195Y003121D02*
X028453Y003121D01*
X028453Y005560D02*
X028195Y005560D01*
X028453Y005560D02*
X028453Y004762D01*
X028195Y004762D01*
X028195Y005560D01*
X028195Y004803D02*
X028453Y004803D01*
X028453Y004844D02*
X028195Y004844D01*
X028195Y004885D02*
X028453Y004885D01*
X028453Y004926D02*
X028195Y004926D01*
X028195Y004967D02*
X028453Y004967D01*
X028453Y005008D02*
X028195Y005008D01*
X028195Y005049D02*
X028453Y005049D01*
X028453Y005090D02*
X028195Y005090D01*
X028195Y005131D02*
X028453Y005131D01*
X028453Y005172D02*
X028195Y005172D01*
X028195Y005213D02*
X028453Y005213D01*
X028453Y005254D02*
X028195Y005254D01*
X028195Y005295D02*
X028453Y005295D01*
X028453Y005336D02*
X028195Y005336D01*
X028195Y005377D02*
X028453Y005377D01*
X028453Y005418D02*
X028195Y005418D01*
X028195Y005459D02*
X028453Y005459D01*
X028453Y005500D02*
X028195Y005500D01*
X028195Y005541D02*
X028453Y005541D01*
X027953Y005560D02*
X027695Y005560D01*
X027953Y005560D02*
X027953Y004762D01*
X027695Y004762D01*
X027695Y005560D01*
X027695Y004803D02*
X027953Y004803D01*
X027953Y004844D02*
X027695Y004844D01*
X027695Y004885D02*
X027953Y004885D01*
X027953Y004926D02*
X027695Y004926D01*
X027695Y004967D02*
X027953Y004967D01*
X027953Y005008D02*
X027695Y005008D01*
X027695Y005049D02*
X027953Y005049D01*
X027953Y005090D02*
X027695Y005090D01*
X027695Y005131D02*
X027953Y005131D01*
X027953Y005172D02*
X027695Y005172D01*
X027695Y005213D02*
X027953Y005213D01*
X027953Y005254D02*
X027695Y005254D01*
X027695Y005295D02*
X027953Y005295D01*
X027953Y005336D02*
X027695Y005336D01*
X027695Y005377D02*
X027953Y005377D01*
X027953Y005418D02*
X027695Y005418D01*
X027695Y005459D02*
X027953Y005459D01*
X027953Y005500D02*
X027695Y005500D01*
X027695Y005541D02*
X027953Y005541D01*
X027453Y005560D02*
X027195Y005560D01*
X027453Y005560D02*
X027453Y004762D01*
X027195Y004762D01*
X027195Y005560D01*
X027195Y004803D02*
X027453Y004803D01*
X027453Y004844D02*
X027195Y004844D01*
X027195Y004885D02*
X027453Y004885D01*
X027453Y004926D02*
X027195Y004926D01*
X027195Y004967D02*
X027453Y004967D01*
X027453Y005008D02*
X027195Y005008D01*
X027195Y005049D02*
X027453Y005049D01*
X027453Y005090D02*
X027195Y005090D01*
X027195Y005131D02*
X027453Y005131D01*
X027453Y005172D02*
X027195Y005172D01*
X027195Y005213D02*
X027453Y005213D01*
X027453Y005254D02*
X027195Y005254D01*
X027195Y005295D02*
X027453Y005295D01*
X027453Y005336D02*
X027195Y005336D01*
X027195Y005377D02*
X027453Y005377D01*
X027453Y005418D02*
X027195Y005418D01*
X027195Y005459D02*
X027453Y005459D01*
X027453Y005500D02*
X027195Y005500D01*
X027195Y005541D02*
X027453Y005541D01*
X026953Y005560D02*
X026695Y005560D01*
X026953Y005560D02*
X026953Y004762D01*
X026695Y004762D01*
X026695Y005560D01*
X026695Y004803D02*
X026953Y004803D01*
X026953Y004844D02*
X026695Y004844D01*
X026695Y004885D02*
X026953Y004885D01*
X026953Y004926D02*
X026695Y004926D01*
X026695Y004967D02*
X026953Y004967D01*
X026953Y005008D02*
X026695Y005008D01*
X026695Y005049D02*
X026953Y005049D01*
X026953Y005090D02*
X026695Y005090D01*
X026695Y005131D02*
X026953Y005131D01*
X026953Y005172D02*
X026695Y005172D01*
X026695Y005213D02*
X026953Y005213D01*
X026953Y005254D02*
X026695Y005254D01*
X026695Y005295D02*
X026953Y005295D01*
X026953Y005336D02*
X026695Y005336D01*
X026695Y005377D02*
X026953Y005377D01*
X026953Y005418D02*
X026695Y005418D01*
X026695Y005459D02*
X026953Y005459D01*
X026953Y005500D02*
X026695Y005500D01*
X026695Y005541D02*
X026953Y005541D01*
X021405Y006882D02*
X021405Y007120D01*
X022003Y007120D01*
X022003Y006882D01*
X021405Y006882D01*
X021405Y006923D02*
X022003Y006923D01*
X022003Y006964D02*
X021405Y006964D01*
X021405Y007005D02*
X022003Y007005D01*
X022003Y007046D02*
X021405Y007046D01*
X021405Y007087D02*
X022003Y007087D01*
X021405Y007382D02*
X021405Y007620D01*
X022003Y007620D01*
X022003Y007382D01*
X021405Y007382D01*
X021405Y007423D02*
X022003Y007423D01*
X022003Y007464D02*
X021405Y007464D01*
X021405Y007505D02*
X022003Y007505D01*
X022003Y007546D02*
X021405Y007546D01*
X021405Y007587D02*
X022003Y007587D01*
X021405Y007882D02*
X021405Y008120D01*
X022003Y008120D01*
X022003Y007882D01*
X021405Y007882D01*
X021405Y007923D02*
X022003Y007923D01*
X022003Y007964D02*
X021405Y007964D01*
X021405Y008005D02*
X022003Y008005D01*
X022003Y008046D02*
X021405Y008046D01*
X021405Y008087D02*
X022003Y008087D01*
X021405Y008382D02*
X021405Y008620D01*
X022003Y008620D01*
X022003Y008382D01*
X021405Y008382D01*
X021405Y008423D02*
X022003Y008423D01*
X022003Y008464D02*
X021405Y008464D01*
X021405Y008505D02*
X022003Y008505D01*
X022003Y008546D02*
X021405Y008546D01*
X021405Y008587D02*
X022003Y008587D01*
X022955Y010122D02*
X022955Y010380D01*
X023753Y010380D01*
X023753Y010122D01*
X022955Y010122D01*
X022955Y010163D02*
X023753Y010163D01*
X023753Y010204D02*
X022955Y010204D01*
X022955Y010245D02*
X023753Y010245D01*
X023753Y010286D02*
X022955Y010286D01*
X022955Y010327D02*
X023753Y010327D01*
X023753Y010368D02*
X022955Y010368D01*
X022955Y010622D02*
X022955Y010880D01*
X023753Y010880D01*
X023753Y010622D01*
X022955Y010622D01*
X022955Y010663D02*
X023753Y010663D01*
X023753Y010704D02*
X022955Y010704D01*
X022955Y010745D02*
X023753Y010745D01*
X023753Y010786D02*
X022955Y010786D01*
X022955Y010827D02*
X023753Y010827D01*
X023753Y010868D02*
X022955Y010868D01*
X022955Y011122D02*
X022955Y011380D01*
X023753Y011380D01*
X023753Y011122D01*
X022955Y011122D01*
X022955Y011163D02*
X023753Y011163D01*
X023753Y011204D02*
X022955Y011204D01*
X022955Y011245D02*
X023753Y011245D01*
X023753Y011286D02*
X022955Y011286D01*
X022955Y011327D02*
X023753Y011327D01*
X023753Y011368D02*
X022955Y011368D01*
X022955Y011622D02*
X022955Y011880D01*
X023753Y011880D01*
X023753Y011622D01*
X022955Y011622D01*
X022955Y011663D02*
X023753Y011663D01*
X023753Y011704D02*
X022955Y011704D01*
X022955Y011745D02*
X023753Y011745D01*
X023753Y011786D02*
X022955Y011786D01*
X022955Y011827D02*
X023753Y011827D01*
X023753Y011868D02*
X022955Y011868D01*
X022955Y012122D02*
X022955Y012380D01*
X023753Y012380D01*
X023753Y012122D01*
X022955Y012122D01*
X022955Y012163D02*
X023753Y012163D01*
X023753Y012204D02*
X022955Y012204D01*
X022955Y012245D02*
X023753Y012245D01*
X023753Y012286D02*
X022955Y012286D01*
X022955Y012327D02*
X023753Y012327D01*
X023753Y012368D02*
X022955Y012368D01*
X022955Y012622D02*
X022955Y012880D01*
X023753Y012880D01*
X023753Y012622D01*
X022955Y012622D01*
X022955Y012663D02*
X023753Y012663D01*
X023753Y012704D02*
X022955Y012704D01*
X022955Y012745D02*
X023753Y012745D01*
X023753Y012786D02*
X022955Y012786D01*
X022955Y012827D02*
X023753Y012827D01*
X023753Y012868D02*
X022955Y012868D01*
X022955Y013122D02*
X022955Y013380D01*
X023753Y013380D01*
X023753Y013122D01*
X022955Y013122D01*
X022955Y013163D02*
X023753Y013163D01*
X023753Y013204D02*
X022955Y013204D01*
X022955Y013245D02*
X023753Y013245D01*
X023753Y013286D02*
X022955Y013286D01*
X022955Y013327D02*
X023753Y013327D01*
X023753Y013368D02*
X022955Y013368D01*
X022955Y013622D02*
X022955Y013880D01*
X023753Y013880D01*
X023753Y013622D01*
X022955Y013622D01*
X022955Y013663D02*
X023753Y013663D01*
X023753Y013704D02*
X022955Y013704D01*
X022955Y013745D02*
X023753Y013745D01*
X023753Y013786D02*
X022955Y013786D01*
X022955Y013827D02*
X023753Y013827D01*
X023753Y013868D02*
X022955Y013868D01*
X022955Y014122D02*
X022955Y014380D01*
X023753Y014380D01*
X023753Y014122D01*
X022955Y014122D01*
X022955Y014163D02*
X023753Y014163D01*
X023753Y014204D02*
X022955Y014204D01*
X022955Y014245D02*
X023753Y014245D01*
X023753Y014286D02*
X022955Y014286D01*
X022955Y014327D02*
X023753Y014327D01*
X023753Y014368D02*
X022955Y014368D01*
X022955Y014622D02*
X022955Y014880D01*
X023753Y014880D01*
X023753Y014622D01*
X022955Y014622D01*
X022955Y014663D02*
X023753Y014663D01*
X023753Y014704D02*
X022955Y014704D01*
X022955Y014745D02*
X023753Y014745D01*
X023753Y014786D02*
X022955Y014786D01*
X022955Y014827D02*
X023753Y014827D01*
X023753Y014868D02*
X022955Y014868D01*
X018995Y014880D02*
X018995Y014622D01*
X018995Y014880D02*
X019793Y014880D01*
X019793Y014622D01*
X018995Y014622D01*
X018995Y014663D02*
X019793Y014663D01*
X019793Y014704D02*
X018995Y014704D01*
X018995Y014745D02*
X019793Y014745D01*
X019793Y014786D02*
X018995Y014786D01*
X018995Y014827D02*
X019793Y014827D01*
X019793Y014868D02*
X018995Y014868D01*
X018995Y014380D02*
X018995Y014122D01*
X018995Y014380D02*
X019793Y014380D01*
X019793Y014122D01*
X018995Y014122D01*
X018995Y014163D02*
X019793Y014163D01*
X019793Y014204D02*
X018995Y014204D01*
X018995Y014245D02*
X019793Y014245D01*
X019793Y014286D02*
X018995Y014286D01*
X018995Y014327D02*
X019793Y014327D01*
X019793Y014368D02*
X018995Y014368D01*
X018995Y013880D02*
X018995Y013622D01*
X018995Y013880D02*
X019793Y013880D01*
X019793Y013622D01*
X018995Y013622D01*
X018995Y013663D02*
X019793Y013663D01*
X019793Y013704D02*
X018995Y013704D01*
X018995Y013745D02*
X019793Y013745D01*
X019793Y013786D02*
X018995Y013786D01*
X018995Y013827D02*
X019793Y013827D01*
X019793Y013868D02*
X018995Y013868D01*
X018995Y013380D02*
X018995Y013122D01*
X018995Y013380D02*
X019793Y013380D01*
X019793Y013122D01*
X018995Y013122D01*
X018995Y013163D02*
X019793Y013163D01*
X019793Y013204D02*
X018995Y013204D01*
X018995Y013245D02*
X019793Y013245D01*
X019793Y013286D02*
X018995Y013286D01*
X018995Y013327D02*
X019793Y013327D01*
X019793Y013368D02*
X018995Y013368D01*
X018995Y012880D02*
X018995Y012622D01*
X018995Y012880D02*
X019793Y012880D01*
X019793Y012622D01*
X018995Y012622D01*
X018995Y012663D02*
X019793Y012663D01*
X019793Y012704D02*
X018995Y012704D01*
X018995Y012745D02*
X019793Y012745D01*
X019793Y012786D02*
X018995Y012786D01*
X018995Y012827D02*
X019793Y012827D01*
X019793Y012868D02*
X018995Y012868D01*
X018995Y012380D02*
X018995Y012122D01*
X018995Y012380D02*
X019793Y012380D01*
X019793Y012122D01*
X018995Y012122D01*
X018995Y012163D02*
X019793Y012163D01*
X019793Y012204D02*
X018995Y012204D01*
X018995Y012245D02*
X019793Y012245D01*
X019793Y012286D02*
X018995Y012286D01*
X018995Y012327D02*
X019793Y012327D01*
X019793Y012368D02*
X018995Y012368D01*
X018995Y011880D02*
X018995Y011622D01*
X018995Y011880D02*
X019793Y011880D01*
X019793Y011622D01*
X018995Y011622D01*
X018995Y011663D02*
X019793Y011663D01*
X019793Y011704D02*
X018995Y011704D01*
X018995Y011745D02*
X019793Y011745D01*
X019793Y011786D02*
X018995Y011786D01*
X018995Y011827D02*
X019793Y011827D01*
X019793Y011868D02*
X018995Y011868D01*
X018995Y011380D02*
X018995Y011122D01*
X018995Y011380D02*
X019793Y011380D01*
X019793Y011122D01*
X018995Y011122D01*
X018995Y011163D02*
X019793Y011163D01*
X019793Y011204D02*
X018995Y011204D01*
X018995Y011245D02*
X019793Y011245D01*
X019793Y011286D02*
X018995Y011286D01*
X018995Y011327D02*
X019793Y011327D01*
X019793Y011368D02*
X018995Y011368D01*
X018995Y010880D02*
X018995Y010622D01*
X018995Y010880D02*
X019793Y010880D01*
X019793Y010622D01*
X018995Y010622D01*
X018995Y010663D02*
X019793Y010663D01*
X019793Y010704D02*
X018995Y010704D01*
X018995Y010745D02*
X019793Y010745D01*
X019793Y010786D02*
X018995Y010786D01*
X018995Y010827D02*
X019793Y010827D01*
X019793Y010868D02*
X018995Y010868D01*
X018995Y010380D02*
X018995Y010122D01*
X018995Y010380D02*
X019793Y010380D01*
X019793Y010122D01*
X018995Y010122D01*
X018995Y010163D02*
X019793Y010163D01*
X019793Y010204D02*
X018995Y010204D01*
X018995Y010245D02*
X019793Y010245D01*
X019793Y010286D02*
X018995Y010286D01*
X018995Y010327D02*
X019793Y010327D01*
X019793Y010368D02*
X018995Y010368D01*
X019245Y008620D02*
X019245Y008382D01*
X019245Y008620D02*
X019843Y008620D01*
X019843Y008382D01*
X019245Y008382D01*
X019245Y008423D02*
X019843Y008423D01*
X019843Y008464D02*
X019245Y008464D01*
X019245Y008505D02*
X019843Y008505D01*
X019843Y008546D02*
X019245Y008546D01*
X019245Y008587D02*
X019843Y008587D01*
X019245Y008120D02*
X019245Y007882D01*
X019245Y008120D02*
X019843Y008120D01*
X019843Y007882D01*
X019245Y007882D01*
X019245Y007923D02*
X019843Y007923D01*
X019843Y007964D02*
X019245Y007964D01*
X019245Y008005D02*
X019843Y008005D01*
X019843Y008046D02*
X019245Y008046D01*
X019245Y008087D02*
X019843Y008087D01*
X019245Y007620D02*
X019245Y007382D01*
X019245Y007620D02*
X019843Y007620D01*
X019843Y007382D01*
X019245Y007382D01*
X019245Y007423D02*
X019843Y007423D01*
X019843Y007464D02*
X019245Y007464D01*
X019245Y007505D02*
X019843Y007505D01*
X019843Y007546D02*
X019245Y007546D01*
X019245Y007587D02*
X019843Y007587D01*
X019245Y007120D02*
X019245Y006882D01*
X019245Y007120D02*
X019843Y007120D01*
X019843Y006882D01*
X019245Y006882D01*
X019245Y006923D02*
X019843Y006923D01*
X019843Y006964D02*
X019245Y006964D01*
X019245Y007005D02*
X019843Y007005D01*
X019843Y007046D02*
X019245Y007046D01*
X019245Y007087D02*
X019843Y007087D01*
X015935Y012922D02*
X015935Y013180D01*
X016733Y013180D01*
X016733Y012922D01*
X015935Y012922D01*
X015935Y012963D02*
X016733Y012963D01*
X016733Y013004D02*
X015935Y013004D01*
X015935Y013045D02*
X016733Y013045D01*
X016733Y013086D02*
X015935Y013086D01*
X015935Y013127D02*
X016733Y013127D01*
X016733Y013168D02*
X015935Y013168D01*
X015935Y013422D02*
X015935Y013680D01*
X016733Y013680D01*
X016733Y013422D01*
X015935Y013422D01*
X015935Y013463D02*
X016733Y013463D01*
X016733Y013504D02*
X015935Y013504D01*
X015935Y013545D02*
X016733Y013545D01*
X016733Y013586D02*
X015935Y013586D01*
X015935Y013627D02*
X016733Y013627D01*
X016733Y013668D02*
X015935Y013668D01*
X015935Y013922D02*
X015935Y014180D01*
X016733Y014180D01*
X016733Y013922D01*
X015935Y013922D01*
X015935Y013963D02*
X016733Y013963D01*
X016733Y014004D02*
X015935Y014004D01*
X015935Y014045D02*
X016733Y014045D01*
X016733Y014086D02*
X015935Y014086D01*
X015935Y014127D02*
X016733Y014127D01*
X016733Y014168D02*
X015935Y014168D01*
X015935Y014422D02*
X015935Y014680D01*
X016733Y014680D01*
X016733Y014422D01*
X015935Y014422D01*
X015935Y014463D02*
X016733Y014463D01*
X016733Y014504D02*
X015935Y014504D01*
X015935Y014545D02*
X016733Y014545D01*
X016733Y014586D02*
X015935Y014586D01*
X015935Y014627D02*
X016733Y014627D01*
X016733Y014668D02*
X015935Y014668D01*
X013515Y014680D02*
X013515Y014422D01*
X013515Y014680D02*
X014313Y014680D01*
X014313Y014422D01*
X013515Y014422D01*
X013515Y014463D02*
X014313Y014463D01*
X014313Y014504D02*
X013515Y014504D01*
X013515Y014545D02*
X014313Y014545D01*
X014313Y014586D02*
X013515Y014586D01*
X013515Y014627D02*
X014313Y014627D01*
X014313Y014668D02*
X013515Y014668D01*
X013515Y014180D02*
X013515Y013922D01*
X013515Y014180D02*
X014313Y014180D01*
X014313Y013922D01*
X013515Y013922D01*
X013515Y013963D02*
X014313Y013963D01*
X014313Y014004D02*
X013515Y014004D01*
X013515Y014045D02*
X014313Y014045D01*
X014313Y014086D02*
X013515Y014086D01*
X013515Y014127D02*
X014313Y014127D01*
X014313Y014168D02*
X013515Y014168D01*
X013515Y013680D02*
X013515Y013422D01*
X013515Y013680D02*
X014313Y013680D01*
X014313Y013422D01*
X013515Y013422D01*
X013515Y013463D02*
X014313Y013463D01*
X014313Y013504D02*
X013515Y013504D01*
X013515Y013545D02*
X014313Y013545D01*
X014313Y013586D02*
X013515Y013586D01*
X013515Y013627D02*
X014313Y013627D01*
X014313Y013668D02*
X013515Y013668D01*
X013515Y013180D02*
X013515Y012922D01*
X013515Y013180D02*
X014313Y013180D01*
X014313Y012922D01*
X013515Y012922D01*
X013515Y012963D02*
X014313Y012963D01*
X014313Y013004D02*
X013515Y013004D01*
X013515Y013045D02*
X014313Y013045D01*
X014313Y013086D02*
X013515Y013086D01*
X013515Y013127D02*
X014313Y013127D01*
X014313Y013168D02*
X013515Y013168D01*
X007383Y009230D02*
X007383Y008972D01*
X006585Y008972D01*
X006585Y009230D01*
X007383Y009230D01*
X007383Y009013D02*
X006585Y009013D01*
X006585Y009054D02*
X007383Y009054D01*
X007383Y009095D02*
X006585Y009095D01*
X006585Y009136D02*
X007383Y009136D01*
X007383Y009177D02*
X006585Y009177D01*
X006585Y009218D02*
X007383Y009218D01*
X007383Y008730D02*
X007383Y008472D01*
X006585Y008472D01*
X006585Y008730D01*
X007383Y008730D01*
X007383Y008513D02*
X006585Y008513D01*
X006585Y008554D02*
X007383Y008554D01*
X007383Y008595D02*
X006585Y008595D01*
X006585Y008636D02*
X007383Y008636D01*
X007383Y008677D02*
X006585Y008677D01*
X006585Y008718D02*
X007383Y008718D01*
X007383Y008230D02*
X007383Y007972D01*
X006585Y007972D01*
X006585Y008230D01*
X007383Y008230D01*
X007383Y008013D02*
X006585Y008013D01*
X006585Y008054D02*
X007383Y008054D01*
X007383Y008095D02*
X006585Y008095D01*
X006585Y008136D02*
X007383Y008136D01*
X007383Y008177D02*
X006585Y008177D01*
X006585Y008218D02*
X007383Y008218D01*
X007383Y007730D02*
X007383Y007472D01*
X006585Y007472D01*
X006585Y007730D01*
X007383Y007730D01*
X007383Y007513D02*
X006585Y007513D01*
X006585Y007554D02*
X007383Y007554D01*
X007383Y007595D02*
X006585Y007595D01*
X006585Y007636D02*
X007383Y007636D01*
X007383Y007677D02*
X006585Y007677D01*
X006585Y007718D02*
X007383Y007718D01*
X007333Y006380D02*
X007333Y006122D01*
X006535Y006122D01*
X006535Y006380D01*
X007333Y006380D01*
X007333Y006163D02*
X006535Y006163D01*
X006535Y006204D02*
X007333Y006204D01*
X007333Y006245D02*
X006535Y006245D01*
X006535Y006286D02*
X007333Y006286D01*
X007333Y006327D02*
X006535Y006327D01*
X006535Y006368D02*
X007333Y006368D01*
X007333Y005880D02*
X007333Y005622D01*
X006535Y005622D01*
X006535Y005880D01*
X007333Y005880D01*
X007333Y005663D02*
X006535Y005663D01*
X006535Y005704D02*
X007333Y005704D01*
X007333Y005745D02*
X006535Y005745D01*
X006535Y005786D02*
X007333Y005786D01*
X007333Y005827D02*
X006535Y005827D01*
X006535Y005868D02*
X007333Y005868D01*
X007333Y005380D02*
X007333Y005122D01*
X006535Y005122D01*
X006535Y005380D01*
X007333Y005380D01*
X007333Y005163D02*
X006535Y005163D01*
X006535Y005204D02*
X007333Y005204D01*
X007333Y005245D02*
X006535Y005245D01*
X006535Y005286D02*
X007333Y005286D01*
X007333Y005327D02*
X006535Y005327D01*
X006535Y005368D02*
X007333Y005368D01*
X007333Y004880D02*
X007333Y004622D01*
X006535Y004622D01*
X006535Y004880D01*
X007333Y004880D01*
X007333Y004663D02*
X006535Y004663D01*
X006535Y004704D02*
X007333Y004704D01*
X007333Y004745D02*
X006535Y004745D01*
X006535Y004786D02*
X007333Y004786D01*
X007333Y004827D02*
X006535Y004827D01*
X006535Y004868D02*
X007333Y004868D01*
X004913Y004880D02*
X004913Y004622D01*
X004115Y004622D01*
X004115Y004880D01*
X004913Y004880D01*
X004913Y004663D02*
X004115Y004663D01*
X004115Y004704D02*
X004913Y004704D01*
X004913Y004745D02*
X004115Y004745D01*
X004115Y004786D02*
X004913Y004786D01*
X004913Y004827D02*
X004115Y004827D01*
X004115Y004868D02*
X004913Y004868D01*
X004913Y005122D02*
X004913Y005380D01*
X004913Y005122D02*
X004115Y005122D01*
X004115Y005380D01*
X004913Y005380D01*
X004913Y005163D02*
X004115Y005163D01*
X004115Y005204D02*
X004913Y005204D01*
X004913Y005245D02*
X004115Y005245D01*
X004115Y005286D02*
X004913Y005286D01*
X004913Y005327D02*
X004115Y005327D01*
X004115Y005368D02*
X004913Y005368D01*
X004913Y005622D02*
X004913Y005880D01*
X004913Y005622D02*
X004115Y005622D01*
X004115Y005880D01*
X004913Y005880D01*
X004913Y005663D02*
X004115Y005663D01*
X004115Y005704D02*
X004913Y005704D01*
X004913Y005745D02*
X004115Y005745D01*
X004115Y005786D02*
X004913Y005786D01*
X004913Y005827D02*
X004115Y005827D01*
X004115Y005868D02*
X004913Y005868D01*
X004913Y006122D02*
X004913Y006380D01*
X004913Y006122D02*
X004115Y006122D01*
X004115Y006380D01*
X004913Y006380D01*
X004913Y006163D02*
X004115Y006163D01*
X004115Y006204D02*
X004913Y006204D01*
X004913Y006245D02*
X004115Y006245D01*
X004115Y006286D02*
X004913Y006286D01*
X004913Y006327D02*
X004115Y006327D01*
X004115Y006368D02*
X004913Y006368D01*
X004963Y007472D02*
X004963Y007730D01*
X004963Y007472D02*
X004165Y007472D01*
X004165Y007730D01*
X004963Y007730D01*
X004963Y007513D02*
X004165Y007513D01*
X004165Y007554D02*
X004963Y007554D01*
X004963Y007595D02*
X004165Y007595D01*
X004165Y007636D02*
X004963Y007636D01*
X004963Y007677D02*
X004165Y007677D01*
X004165Y007718D02*
X004963Y007718D01*
X004963Y007972D02*
X004963Y008230D01*
X004963Y007972D02*
X004165Y007972D01*
X004165Y008230D01*
X004963Y008230D01*
X004963Y008013D02*
X004165Y008013D01*
X004165Y008054D02*
X004963Y008054D01*
X004963Y008095D02*
X004165Y008095D01*
X004165Y008136D02*
X004963Y008136D01*
X004963Y008177D02*
X004165Y008177D01*
X004165Y008218D02*
X004963Y008218D01*
X004963Y008472D02*
X004963Y008730D01*
X004963Y008472D02*
X004165Y008472D01*
X004165Y008730D01*
X004963Y008730D01*
X004963Y008513D02*
X004165Y008513D01*
X004165Y008554D02*
X004963Y008554D01*
X004963Y008595D02*
X004165Y008595D01*
X004165Y008636D02*
X004963Y008636D01*
X004963Y008677D02*
X004165Y008677D01*
X004165Y008718D02*
X004963Y008718D01*
X004963Y008972D02*
X004963Y009230D01*
X004963Y008972D02*
X004165Y008972D01*
X004165Y009230D01*
X004963Y009230D01*
X004963Y009013D02*
X004165Y009013D01*
X004165Y009054D02*
X004963Y009054D01*
X004963Y009095D02*
X004165Y009095D01*
X004165Y009136D02*
X004963Y009136D01*
X004963Y009177D02*
X004165Y009177D01*
X004165Y009218D02*
X004963Y009218D01*
X007063Y035822D02*
X007063Y036080D01*
X007063Y035822D02*
X006265Y035822D01*
X006265Y036080D01*
X007063Y036080D01*
X007063Y035863D02*
X006265Y035863D01*
X006265Y035904D02*
X007063Y035904D01*
X007063Y035945D02*
X006265Y035945D01*
X006265Y035986D02*
X007063Y035986D01*
X007063Y036027D02*
X006265Y036027D01*
X006265Y036068D02*
X007063Y036068D01*
X007063Y036322D02*
X007063Y036580D01*
X007063Y036322D02*
X006265Y036322D01*
X006265Y036580D01*
X007063Y036580D01*
X007063Y036363D02*
X006265Y036363D01*
X006265Y036404D02*
X007063Y036404D01*
X007063Y036445D02*
X006265Y036445D01*
X006265Y036486D02*
X007063Y036486D01*
X007063Y036527D02*
X006265Y036527D01*
X006265Y036568D02*
X007063Y036568D01*
X007063Y036822D02*
X007063Y037080D01*
X007063Y036822D02*
X006265Y036822D01*
X006265Y037080D01*
X007063Y037080D01*
X007063Y036863D02*
X006265Y036863D01*
X006265Y036904D02*
X007063Y036904D01*
X007063Y036945D02*
X006265Y036945D01*
X006265Y036986D02*
X007063Y036986D01*
X007063Y037027D02*
X006265Y037027D01*
X006265Y037068D02*
X007063Y037068D01*
X007063Y037322D02*
X007063Y037580D01*
X007063Y037322D02*
X006265Y037322D01*
X006265Y037580D01*
X007063Y037580D01*
X007063Y037363D02*
X006265Y037363D01*
X006265Y037404D02*
X007063Y037404D01*
X007063Y037445D02*
X006265Y037445D01*
X006265Y037486D02*
X007063Y037486D01*
X007063Y037527D02*
X006265Y037527D01*
X006265Y037568D02*
X007063Y037568D01*
X009483Y037580D02*
X009483Y037322D01*
X008685Y037322D01*
X008685Y037580D01*
X009483Y037580D01*
X009483Y037363D02*
X008685Y037363D01*
X008685Y037404D02*
X009483Y037404D01*
X009483Y037445D02*
X008685Y037445D01*
X008685Y037486D02*
X009483Y037486D01*
X009483Y037527D02*
X008685Y037527D01*
X008685Y037568D02*
X009483Y037568D01*
X009483Y037080D02*
X009483Y036822D01*
X008685Y036822D01*
X008685Y037080D01*
X009483Y037080D01*
X009483Y036863D02*
X008685Y036863D01*
X008685Y036904D02*
X009483Y036904D01*
X009483Y036945D02*
X008685Y036945D01*
X008685Y036986D02*
X009483Y036986D01*
X009483Y037027D02*
X008685Y037027D01*
X008685Y037068D02*
X009483Y037068D01*
X009483Y036580D02*
X009483Y036322D01*
X008685Y036322D01*
X008685Y036580D01*
X009483Y036580D01*
X009483Y036363D02*
X008685Y036363D01*
X008685Y036404D02*
X009483Y036404D01*
X009483Y036445D02*
X008685Y036445D01*
X008685Y036486D02*
X009483Y036486D01*
X009483Y036527D02*
X008685Y036527D01*
X008685Y036568D02*
X009483Y036568D01*
X009483Y036080D02*
X009483Y035822D01*
X008685Y035822D01*
X008685Y036080D01*
X009483Y036080D01*
X009483Y035863D02*
X008685Y035863D01*
X008685Y035904D02*
X009483Y035904D01*
X009483Y035945D02*
X008685Y035945D01*
X008685Y035986D02*
X009483Y035986D01*
X009483Y036027D02*
X008685Y036027D01*
X008685Y036068D02*
X009483Y036068D01*
D21*
X016624Y027669D03*
X017609Y027669D03*
X014656Y025701D03*
X016624Y023732D03*
X017609Y023732D03*
X020156Y020635D03*
X020156Y019651D03*
X022124Y017682D03*
X024093Y019651D03*
X024093Y020635D03*
D22*
X022124Y019651D03*
X021140Y017682D03*
X020156Y017682D03*
X023109Y017682D03*
X024093Y017682D03*
X016624Y025701D03*
X014656Y026685D03*
X014656Y027669D03*
X014656Y024717D03*
X014656Y023732D03*
D23*
X033874Y006605D02*
X033874Y005896D01*
X034874Y005896D02*
X034874Y006605D01*
X035874Y006605D02*
X035874Y005896D01*
X036874Y005896D02*
X036874Y006605D01*
X037874Y006605D02*
X037874Y005896D01*
X038874Y005896D02*
X038874Y006605D01*
X039874Y006605D02*
X039874Y005896D01*
X040874Y005896D02*
X040874Y006605D01*
X041874Y006605D02*
X041874Y005896D01*
X041874Y017896D02*
X041874Y018605D01*
X040874Y018605D02*
X040874Y017896D01*
X039874Y017896D02*
X039874Y018605D01*
D24*
X027577Y019466D02*
X027439Y019466D01*
X027577Y019466D02*
X027577Y019072D01*
X027439Y019072D01*
X027439Y019466D01*
X027439Y019112D02*
X027577Y019112D01*
X027577Y019152D02*
X027439Y019152D01*
X027439Y019192D02*
X027577Y019192D01*
X027577Y019232D02*
X027439Y019232D01*
X027439Y019272D02*
X027577Y019272D01*
X027577Y019312D02*
X027439Y019312D01*
X027439Y019352D02*
X027577Y019352D01*
X027577Y019392D02*
X027439Y019392D01*
X027439Y019432D02*
X027577Y019432D01*
X027321Y019466D02*
X027183Y019466D01*
X027321Y019466D02*
X027321Y019072D01*
X027183Y019072D01*
X027183Y019466D01*
X027183Y019112D02*
X027321Y019112D01*
X027321Y019152D02*
X027183Y019152D01*
X027183Y019192D02*
X027321Y019192D01*
X027321Y019232D02*
X027183Y019232D01*
X027183Y019272D02*
X027321Y019272D01*
X027321Y019312D02*
X027183Y019312D01*
X027183Y019352D02*
X027321Y019352D01*
X027321Y019392D02*
X027183Y019392D01*
X027183Y019432D02*
X027321Y019432D01*
X027065Y019466D02*
X026927Y019466D01*
X027065Y019466D02*
X027065Y019072D01*
X026927Y019072D01*
X026927Y019466D01*
X026927Y019112D02*
X027065Y019112D01*
X027065Y019152D02*
X026927Y019152D01*
X026927Y019192D02*
X027065Y019192D01*
X027065Y019232D02*
X026927Y019232D01*
X026927Y019272D02*
X027065Y019272D01*
X027065Y019312D02*
X026927Y019312D01*
X026927Y019352D02*
X027065Y019352D01*
X027065Y019392D02*
X026927Y019392D01*
X026927Y019432D02*
X027065Y019432D01*
X026810Y019466D02*
X026672Y019466D01*
X026810Y019466D02*
X026810Y019072D01*
X026672Y019072D01*
X026672Y019466D01*
X026672Y019112D02*
X026810Y019112D01*
X026810Y019152D02*
X026672Y019152D01*
X026672Y019192D02*
X026810Y019192D01*
X026810Y019232D02*
X026672Y019232D01*
X026672Y019272D02*
X026810Y019272D01*
X026810Y019312D02*
X026672Y019312D01*
X026672Y019352D02*
X026810Y019352D01*
X026810Y019392D02*
X026672Y019392D01*
X026672Y019432D02*
X026810Y019432D01*
X026810Y020036D02*
X026672Y020036D01*
X026672Y020430D01*
X026810Y020430D01*
X026810Y020036D01*
X026810Y020076D02*
X026672Y020076D01*
X026672Y020116D02*
X026810Y020116D01*
X026810Y020156D02*
X026672Y020156D01*
X026672Y020196D02*
X026810Y020196D01*
X026810Y020236D02*
X026672Y020236D01*
X026672Y020276D02*
X026810Y020276D01*
X026810Y020316D02*
X026672Y020316D01*
X026672Y020356D02*
X026810Y020356D01*
X026810Y020396D02*
X026672Y020396D01*
X026927Y020036D02*
X027065Y020036D01*
X026927Y020036D02*
X026927Y020430D01*
X027065Y020430D01*
X027065Y020036D01*
X027065Y020076D02*
X026927Y020076D01*
X026927Y020116D02*
X027065Y020116D01*
X027065Y020156D02*
X026927Y020156D01*
X026927Y020196D02*
X027065Y020196D01*
X027065Y020236D02*
X026927Y020236D01*
X026927Y020276D02*
X027065Y020276D01*
X027065Y020316D02*
X026927Y020316D01*
X026927Y020356D02*
X027065Y020356D01*
X027065Y020396D02*
X026927Y020396D01*
X027183Y020036D02*
X027321Y020036D01*
X027183Y020036D02*
X027183Y020430D01*
X027321Y020430D01*
X027321Y020036D01*
X027321Y020076D02*
X027183Y020076D01*
X027183Y020116D02*
X027321Y020116D01*
X027321Y020156D02*
X027183Y020156D01*
X027183Y020196D02*
X027321Y020196D01*
X027321Y020236D02*
X027183Y020236D01*
X027183Y020276D02*
X027321Y020276D01*
X027321Y020316D02*
X027183Y020316D01*
X027183Y020356D02*
X027321Y020356D01*
X027321Y020396D02*
X027183Y020396D01*
X027439Y020036D02*
X027577Y020036D01*
X027439Y020036D02*
X027439Y020430D01*
X027577Y020430D01*
X027577Y020036D01*
X027577Y020076D02*
X027439Y020076D01*
X027439Y020116D02*
X027577Y020116D01*
X027577Y020156D02*
X027439Y020156D01*
X027439Y020196D02*
X027577Y020196D01*
X027577Y020236D02*
X027439Y020236D01*
X027439Y020276D02*
X027577Y020276D01*
X027577Y020316D02*
X027439Y020316D01*
X027439Y020356D02*
X027577Y020356D01*
X027577Y020396D02*
X027439Y020396D01*
X017039Y016700D02*
X016685Y016700D01*
X016685Y016838D01*
X017039Y016838D01*
X017039Y016700D01*
X017039Y016740D02*
X016685Y016740D01*
X016685Y016780D02*
X017039Y016780D01*
X017039Y016820D02*
X016685Y016820D01*
X016685Y016444D02*
X017039Y016444D01*
X016685Y016444D02*
X016685Y016582D01*
X017039Y016582D01*
X017039Y016444D01*
X017039Y016484D02*
X016685Y016484D01*
X016685Y016524D02*
X017039Y016524D01*
X017039Y016564D02*
X016685Y016564D01*
X016685Y016188D02*
X017039Y016188D01*
X016685Y016188D02*
X016685Y016326D01*
X017039Y016326D01*
X017039Y016188D01*
X017039Y016228D02*
X016685Y016228D01*
X016685Y016268D02*
X017039Y016268D01*
X017039Y016308D02*
X016685Y016308D01*
X016685Y015932D02*
X017039Y015932D01*
X016685Y015932D02*
X016685Y016070D01*
X017039Y016070D01*
X017039Y015932D01*
X017039Y015972D02*
X016685Y015972D01*
X016685Y016012D02*
X017039Y016012D01*
X017039Y016052D02*
X016685Y016052D01*
X016685Y015676D02*
X017039Y015676D01*
X016685Y015676D02*
X016685Y015814D01*
X017039Y015814D01*
X017039Y015676D01*
X017039Y015716D02*
X016685Y015716D01*
X016685Y015756D02*
X017039Y015756D01*
X017039Y015796D02*
X016685Y015796D01*
X016685Y015420D02*
X017039Y015420D01*
X016685Y015420D02*
X016685Y015558D01*
X017039Y015558D01*
X017039Y015420D01*
X017039Y015460D02*
X016685Y015460D01*
X016685Y015500D02*
X017039Y015500D01*
X017039Y015540D02*
X016685Y015540D01*
X016685Y015164D02*
X017039Y015164D01*
X016685Y015164D02*
X016685Y015302D01*
X017039Y015302D01*
X017039Y015164D01*
X017039Y015204D02*
X016685Y015204D01*
X016685Y015244D02*
X017039Y015244D01*
X017039Y015284D02*
X016685Y015284D01*
X014795Y015164D02*
X014441Y015164D01*
X014441Y015302D01*
X014795Y015302D01*
X014795Y015164D01*
X014795Y015204D02*
X014441Y015204D01*
X014441Y015244D02*
X014795Y015244D01*
X014795Y015284D02*
X014441Y015284D01*
X014441Y015420D02*
X014795Y015420D01*
X014441Y015420D02*
X014441Y015558D01*
X014795Y015558D01*
X014795Y015420D01*
X014795Y015460D02*
X014441Y015460D01*
X014441Y015500D02*
X014795Y015500D01*
X014795Y015540D02*
X014441Y015540D01*
X014441Y015676D02*
X014795Y015676D01*
X014441Y015676D02*
X014441Y015814D01*
X014795Y015814D01*
X014795Y015676D01*
X014795Y015716D02*
X014441Y015716D01*
X014441Y015756D02*
X014795Y015756D01*
X014795Y015796D02*
X014441Y015796D01*
X014441Y015932D02*
X014795Y015932D01*
X014441Y015932D02*
X014441Y016070D01*
X014795Y016070D01*
X014795Y015932D01*
X014795Y015972D02*
X014441Y015972D01*
X014441Y016012D02*
X014795Y016012D01*
X014795Y016052D02*
X014441Y016052D01*
X014441Y016188D02*
X014795Y016188D01*
X014441Y016188D02*
X014441Y016326D01*
X014795Y016326D01*
X014795Y016188D01*
X014795Y016228D02*
X014441Y016228D01*
X014441Y016268D02*
X014795Y016268D01*
X014795Y016308D02*
X014441Y016308D01*
X014441Y016444D02*
X014795Y016444D01*
X014441Y016444D02*
X014441Y016582D01*
X014795Y016582D01*
X014795Y016444D01*
X014795Y016484D02*
X014441Y016484D01*
X014441Y016524D02*
X014795Y016524D01*
X014795Y016564D02*
X014441Y016564D01*
X014441Y016700D02*
X014795Y016700D01*
X014441Y016700D02*
X014441Y016838D01*
X014795Y016838D01*
X014795Y016700D01*
X014795Y016740D02*
X014441Y016740D01*
X014441Y016780D02*
X014795Y016780D01*
X014795Y016820D02*
X014441Y016820D01*
X019239Y003804D02*
X019239Y003666D01*
X018845Y003666D01*
X018845Y003804D01*
X019239Y003804D01*
X019239Y003706D02*
X018845Y003706D01*
X018845Y003746D02*
X019239Y003746D01*
X019239Y003786D02*
X018845Y003786D01*
X019239Y003548D02*
X019239Y003410D01*
X018845Y003410D01*
X018845Y003548D01*
X019239Y003548D01*
X019239Y003450D02*
X018845Y003450D01*
X018845Y003490D02*
X019239Y003490D01*
X019239Y003530D02*
X018845Y003530D01*
X019239Y003292D02*
X019239Y003154D01*
X018845Y003154D01*
X018845Y003292D01*
X019239Y003292D01*
X019239Y003194D02*
X018845Y003194D01*
X018845Y003234D02*
X019239Y003234D01*
X019239Y003274D02*
X018845Y003274D01*
X019239Y003036D02*
X019239Y002898D01*
X018845Y002898D01*
X018845Y003036D01*
X019239Y003036D01*
X019239Y002938D02*
X018845Y002938D01*
X018845Y002978D02*
X019239Y002978D01*
X019239Y003018D02*
X018845Y003018D01*
X019810Y003036D02*
X019810Y002898D01*
X019810Y003036D02*
X020204Y003036D01*
X020204Y002898D01*
X019810Y002898D01*
X019810Y002938D02*
X020204Y002938D01*
X020204Y002978D02*
X019810Y002978D01*
X019810Y003018D02*
X020204Y003018D01*
X019810Y003154D02*
X019810Y003292D01*
X020204Y003292D01*
X020204Y003154D01*
X019810Y003154D01*
X019810Y003194D02*
X020204Y003194D01*
X020204Y003234D02*
X019810Y003234D01*
X019810Y003274D02*
X020204Y003274D01*
X019810Y003410D02*
X019810Y003548D01*
X020204Y003548D01*
X020204Y003410D01*
X019810Y003410D01*
X019810Y003450D02*
X020204Y003450D01*
X020204Y003490D02*
X019810Y003490D01*
X019810Y003530D02*
X020204Y003530D01*
X019810Y003666D02*
X019810Y003804D01*
X020204Y003804D01*
X020204Y003666D01*
X019810Y003666D01*
X019810Y003706D02*
X020204Y003706D01*
X020204Y003746D02*
X019810Y003746D01*
X019810Y003786D02*
X020204Y003786D01*
D25*
X024114Y007267D02*
X024634Y007267D01*
X024634Y008251D02*
X024114Y008251D01*
X024114Y009235D02*
X024634Y009235D01*
X030274Y029441D02*
X030274Y029961D01*
X030274Y032441D02*
X030274Y032961D01*
D26*
X004324Y003051D02*
X003724Y003051D01*
X003724Y004051D02*
X004324Y004051D01*
X008224Y002701D02*
X008224Y002101D01*
X009224Y002101D02*
X009224Y002701D01*
X010224Y002701D02*
X010224Y002101D01*
X011224Y002101D02*
X011224Y002701D01*
X012224Y002701D02*
X012224Y002101D01*
X013674Y002101D02*
X013674Y002701D01*
X014674Y002701D02*
X014674Y002101D01*
X015674Y002101D02*
X015674Y002701D01*
X017224Y002701D02*
X017224Y002101D01*
X018224Y002101D02*
X018224Y002701D01*
X017874Y004451D02*
X017874Y005051D01*
X016874Y005051D02*
X016874Y004451D01*
X015874Y004451D02*
X015874Y005051D01*
X014874Y005051D02*
X014874Y004451D01*
X013874Y004451D02*
X013874Y005051D01*
X012874Y005051D02*
X012874Y004451D01*
X011374Y004451D02*
X011374Y005051D01*
X010374Y005051D02*
X010374Y004451D01*
X009174Y006501D02*
X008574Y006501D01*
X008574Y007501D02*
X009174Y007501D01*
X009174Y008501D02*
X008574Y008501D01*
X010824Y008501D02*
X011424Y008501D01*
X011424Y007501D02*
X010824Y007501D01*
X015074Y010251D02*
X015674Y010251D01*
X015674Y011251D02*
X015074Y011251D01*
X015074Y012251D02*
X015674Y012251D01*
X017574Y012751D02*
X018174Y012751D01*
X018174Y013751D02*
X017574Y013751D01*
X017574Y011251D02*
X018174Y011251D01*
X018174Y010251D02*
X017574Y010251D01*
X018874Y005051D02*
X018874Y004451D01*
X019874Y004451D02*
X019874Y005051D01*
X021124Y005051D02*
X021124Y004451D01*
X022124Y004451D02*
X022124Y005051D01*
X023124Y005051D02*
X023124Y004451D01*
X024124Y004451D02*
X024124Y005051D01*
X024124Y002701D02*
X024124Y002101D01*
X023124Y002101D02*
X023124Y002701D01*
X021624Y002701D02*
X021624Y002101D01*
X020624Y002101D02*
X020624Y002701D01*
X018774Y017751D02*
X018174Y017751D01*
X018174Y018751D02*
X018774Y018751D01*
X018774Y019751D02*
X018174Y019751D01*
X028224Y023701D02*
X028824Y023701D01*
X028824Y024701D02*
X028224Y024701D01*
X028224Y026451D02*
X028824Y026451D01*
X028824Y027451D02*
X028224Y027451D01*
X032074Y028576D02*
X032674Y028576D01*
X032674Y029576D02*
X032074Y029576D01*
X032074Y030576D02*
X032674Y030576D01*
X032674Y032826D02*
X032074Y032826D01*
X032074Y033826D02*
X032674Y033826D01*
X032674Y034826D02*
X032074Y034826D01*
X031824Y036701D02*
X032424Y036701D01*
X032424Y037701D02*
X031824Y037701D01*
X031824Y038701D02*
X032424Y038701D01*
X041074Y038826D02*
X041674Y038826D01*
X041674Y037826D02*
X041074Y037826D01*
X041074Y036326D02*
X041674Y036326D01*
X041674Y035326D02*
X041074Y035326D01*
X040824Y027701D02*
X041424Y027701D01*
X041424Y026701D02*
X040824Y026701D01*
X040824Y025701D02*
X041424Y025701D01*
X041424Y024701D02*
X040824Y024701D01*
X040824Y023701D02*
X041424Y023701D01*
X038124Y020101D02*
X038124Y019501D01*
X037124Y019501D02*
X037124Y020101D01*
X036124Y020101D02*
X036124Y019501D01*
X032924Y024076D02*
X032324Y024076D01*
X032324Y025076D02*
X032924Y025076D01*
X032924Y026076D02*
X032324Y026076D01*
X020524Y032401D02*
X020524Y033001D01*
X019524Y033001D02*
X019524Y032401D01*
X019524Y035051D02*
X019524Y035651D01*
X020524Y035651D02*
X020524Y035051D01*
X020524Y037651D02*
X020524Y038251D01*
X019524Y038251D02*
X019524Y037651D01*
X010874Y038151D02*
X010874Y038751D01*
X009874Y038751D02*
X009874Y038151D01*
X008874Y038151D02*
X008874Y038751D01*
X007874Y038751D02*
X007874Y038151D01*
X006874Y038151D02*
X006874Y038751D01*
X005874Y038751D02*
X005874Y038151D01*
X004874Y038151D02*
X004874Y038751D01*
X003874Y038751D02*
X003874Y038151D01*
D27*
X008124Y034951D03*
X008874Y034451D03*
X008124Y030951D03*
X008124Y029951D03*
X009374Y029301D03*
X011374Y029301D03*
X013374Y030951D03*
X013374Y032951D03*
X012874Y034451D03*
X008124Y025951D03*
X033224Y019451D03*
X034224Y019451D03*
X035224Y019451D03*
X033624Y027451D03*
X033624Y031451D03*
X033624Y032076D03*
X034349Y033451D03*
X033624Y036076D03*
X034249Y036201D03*
X034624Y038951D03*
X038249Y036201D03*
X038349Y033451D03*
X038624Y038951D03*
D28*
X012421Y009063D02*
X012421Y006939D01*
X012421Y009063D02*
X014859Y009063D01*
X014859Y006939D01*
X012421Y006939D01*
X012421Y006981D02*
X014859Y006981D01*
X014859Y007023D02*
X012421Y007023D01*
X012421Y007065D02*
X014859Y007065D01*
X014859Y007107D02*
X012421Y007107D01*
X012421Y007149D02*
X014859Y007149D01*
X014859Y007191D02*
X012421Y007191D01*
X012421Y007233D02*
X014859Y007233D01*
X014859Y007275D02*
X012421Y007275D01*
X012421Y007317D02*
X014859Y007317D01*
X014859Y007359D02*
X012421Y007359D01*
X012421Y007401D02*
X014859Y007401D01*
X014859Y007443D02*
X012421Y007443D01*
X012421Y007485D02*
X014859Y007485D01*
X014859Y007527D02*
X012421Y007527D01*
X012421Y007569D02*
X014859Y007569D01*
X014859Y007611D02*
X012421Y007611D01*
X012421Y007653D02*
X014859Y007653D01*
X014859Y007695D02*
X012421Y007695D01*
X012421Y007737D02*
X014859Y007737D01*
X014859Y007779D02*
X012421Y007779D01*
X012421Y007821D02*
X014859Y007821D01*
X014859Y007863D02*
X012421Y007863D01*
X012421Y007905D02*
X014859Y007905D01*
X014859Y007947D02*
X012421Y007947D01*
X012421Y007989D02*
X014859Y007989D01*
X014859Y008031D02*
X012421Y008031D01*
X012421Y008073D02*
X014859Y008073D01*
X014859Y008115D02*
X012421Y008115D01*
X012421Y008157D02*
X014859Y008157D01*
X014859Y008199D02*
X012421Y008199D01*
X012421Y008241D02*
X014859Y008241D01*
X014859Y008283D02*
X012421Y008283D01*
X012421Y008325D02*
X014859Y008325D01*
X014859Y008367D02*
X012421Y008367D01*
X012421Y008409D02*
X014859Y008409D01*
X014859Y008451D02*
X012421Y008451D01*
X012421Y008493D02*
X014859Y008493D01*
X014859Y008535D02*
X012421Y008535D01*
X012421Y008577D02*
X014859Y008577D01*
X014859Y008619D02*
X012421Y008619D01*
X012421Y008661D02*
X014859Y008661D01*
X014859Y008703D02*
X012421Y008703D01*
X012421Y008745D02*
X014859Y008745D01*
X014859Y008787D02*
X012421Y008787D01*
X012421Y008829D02*
X014859Y008829D01*
X014859Y008871D02*
X012421Y008871D01*
X012421Y008913D02*
X014859Y008913D01*
X014859Y008955D02*
X012421Y008955D01*
X012421Y008997D02*
X014859Y008997D01*
X014859Y009039D02*
X012421Y009039D01*
D29*
X013240Y018045D02*
X013240Y018357D01*
X014024Y018357D01*
X014024Y018045D01*
X013240Y018045D01*
X013240Y018087D02*
X014024Y018087D01*
X014024Y018129D02*
X013240Y018129D01*
X013240Y018171D02*
X014024Y018171D01*
X014024Y018213D02*
X013240Y018213D01*
X013240Y018255D02*
X014024Y018255D01*
X014024Y018297D02*
X013240Y018297D01*
X013240Y018339D02*
X014024Y018339D01*
X013240Y018545D02*
X013240Y018857D01*
X014024Y018857D01*
X014024Y018545D01*
X013240Y018545D01*
X013240Y018587D02*
X014024Y018587D01*
X014024Y018629D02*
X013240Y018629D01*
X013240Y018671D02*
X014024Y018671D01*
X014024Y018713D02*
X013240Y018713D01*
X013240Y018755D02*
X014024Y018755D01*
X014024Y018797D02*
X013240Y018797D01*
X013240Y018839D02*
X014024Y018839D01*
X013240Y019045D02*
X013240Y019357D01*
X014024Y019357D01*
X014024Y019045D01*
X013240Y019045D01*
X013240Y019087D02*
X014024Y019087D01*
X014024Y019129D02*
X013240Y019129D01*
X013240Y019171D02*
X014024Y019171D01*
X014024Y019213D02*
X013240Y019213D01*
X013240Y019255D02*
X014024Y019255D01*
X014024Y019297D02*
X013240Y019297D01*
X013240Y019339D02*
X014024Y019339D01*
X013240Y019545D02*
X013240Y019857D01*
X014024Y019857D01*
X014024Y019545D01*
X013240Y019545D01*
X013240Y019587D02*
X014024Y019587D01*
X014024Y019629D02*
X013240Y019629D01*
X013240Y019671D02*
X014024Y019671D01*
X014024Y019713D02*
X013240Y019713D01*
X013240Y019755D02*
X014024Y019755D01*
X014024Y019797D02*
X013240Y019797D01*
X013240Y019839D02*
X014024Y019839D01*
X009425Y019857D02*
X009425Y019545D01*
X009425Y019857D02*
X010209Y019857D01*
X010209Y019545D01*
X009425Y019545D01*
X009425Y019587D02*
X010209Y019587D01*
X010209Y019629D02*
X009425Y019629D01*
X009425Y019671D02*
X010209Y019671D01*
X010209Y019713D02*
X009425Y019713D01*
X009425Y019755D02*
X010209Y019755D01*
X010209Y019797D02*
X009425Y019797D01*
X009425Y019839D02*
X010209Y019839D01*
X009425Y019357D02*
X009425Y019045D01*
X009425Y019357D02*
X010209Y019357D01*
X010209Y019045D01*
X009425Y019045D01*
X009425Y019087D02*
X010209Y019087D01*
X010209Y019129D02*
X009425Y019129D01*
X009425Y019171D02*
X010209Y019171D01*
X010209Y019213D02*
X009425Y019213D01*
X009425Y019255D02*
X010209Y019255D01*
X010209Y019297D02*
X009425Y019297D01*
X009425Y019339D02*
X010209Y019339D01*
X009425Y018857D02*
X009425Y018545D01*
X009425Y018857D02*
X010209Y018857D01*
X010209Y018545D01*
X009425Y018545D01*
X009425Y018587D02*
X010209Y018587D01*
X010209Y018629D02*
X009425Y018629D01*
X009425Y018671D02*
X010209Y018671D01*
X010209Y018713D02*
X009425Y018713D01*
X009425Y018755D02*
X010209Y018755D01*
X010209Y018797D02*
X009425Y018797D01*
X009425Y018839D02*
X010209Y018839D01*
X009425Y018357D02*
X009425Y018045D01*
X009425Y018357D02*
X010209Y018357D01*
X010209Y018045D01*
X009425Y018045D01*
X009425Y018087D02*
X010209Y018087D01*
X010209Y018129D02*
X009425Y018129D01*
X009425Y018171D02*
X010209Y018171D01*
X010209Y018213D02*
X009425Y018213D01*
X009425Y018255D02*
X010209Y018255D01*
X010209Y018297D02*
X009425Y018297D01*
X009425Y018339D02*
X010209Y018339D01*
D30*
X010960Y011995D02*
X010960Y011445D01*
X010488Y011445D01*
X010488Y011995D01*
X010960Y011995D01*
X010960Y011485D02*
X010488Y011485D01*
X010488Y011525D02*
X010960Y011525D01*
X010960Y011565D02*
X010488Y011565D01*
X010488Y011605D02*
X010960Y011605D01*
X010960Y011645D02*
X010488Y011645D01*
X010488Y011685D02*
X010960Y011685D01*
X010960Y011725D02*
X010488Y011725D01*
X010488Y011765D02*
X010960Y011765D01*
X010960Y011805D02*
X010488Y011805D01*
X010488Y011845D02*
X010960Y011845D01*
X010960Y011885D02*
X010488Y011885D01*
X010488Y011925D02*
X010960Y011925D01*
X010960Y011965D02*
X010488Y011965D01*
X010960Y010656D02*
X010960Y010106D01*
X010488Y010106D01*
X010488Y010656D01*
X010960Y010656D01*
X010960Y010146D02*
X010488Y010146D01*
X010488Y010186D02*
X010960Y010186D01*
X010960Y010226D02*
X010488Y010226D01*
X010488Y010266D02*
X010960Y010266D01*
X010960Y010306D02*
X010488Y010306D01*
X010488Y010346D02*
X010960Y010346D01*
X010960Y010386D02*
X010488Y010386D01*
X010488Y010426D02*
X010960Y010426D01*
X010960Y010466D02*
X010488Y010466D01*
X010488Y010506D02*
X010960Y010506D01*
X010960Y010546D02*
X010488Y010546D01*
X010488Y010586D02*
X010960Y010586D01*
X010960Y010626D02*
X010488Y010626D01*
D31*
X011219Y009929D02*
X011849Y009929D01*
X011219Y009929D02*
X011219Y010873D01*
X011849Y010873D01*
X011849Y009929D01*
X011849Y009968D02*
X011219Y009968D01*
X011219Y010007D02*
X011849Y010007D01*
X011849Y010046D02*
X011219Y010046D01*
X011219Y010085D02*
X011849Y010085D01*
X011849Y010124D02*
X011219Y010124D01*
X011219Y010163D02*
X011849Y010163D01*
X011849Y010202D02*
X011219Y010202D01*
X011219Y010241D02*
X011849Y010241D01*
X011849Y010280D02*
X011219Y010280D01*
X011219Y010319D02*
X011849Y010319D01*
X011849Y010358D02*
X011219Y010358D01*
X011219Y010397D02*
X011849Y010397D01*
X011849Y010436D02*
X011219Y010436D01*
X011219Y010475D02*
X011849Y010475D01*
X011849Y010514D02*
X011219Y010514D01*
X011219Y010553D02*
X011849Y010553D01*
X011849Y010592D02*
X011219Y010592D01*
X011219Y010631D02*
X011849Y010631D01*
X011849Y010670D02*
X011219Y010670D01*
X011219Y010709D02*
X011849Y010709D01*
X011849Y010748D02*
X011219Y010748D01*
X011219Y010787D02*
X011849Y010787D01*
X011849Y010826D02*
X011219Y010826D01*
X011219Y010865D02*
X011849Y010865D01*
X012400Y010873D02*
X013030Y010873D01*
X013030Y009929D01*
X012400Y009929D01*
X012400Y010873D01*
X012400Y009968D02*
X013030Y009968D01*
X013030Y010007D02*
X012400Y010007D01*
X012400Y010046D02*
X013030Y010046D01*
X013030Y010085D02*
X012400Y010085D01*
X012400Y010124D02*
X013030Y010124D01*
X013030Y010163D02*
X012400Y010163D01*
X012400Y010202D02*
X013030Y010202D01*
X013030Y010241D02*
X012400Y010241D01*
X012400Y010280D02*
X013030Y010280D01*
X013030Y010319D02*
X012400Y010319D01*
X012400Y010358D02*
X013030Y010358D01*
X013030Y010397D02*
X012400Y010397D01*
X012400Y010436D02*
X013030Y010436D01*
X013030Y010475D02*
X012400Y010475D01*
X012400Y010514D02*
X013030Y010514D01*
X013030Y010553D02*
X012400Y010553D01*
X012400Y010592D02*
X013030Y010592D01*
X013030Y010631D02*
X012400Y010631D01*
X012400Y010670D02*
X013030Y010670D01*
X013030Y010709D02*
X012400Y010709D01*
X012400Y010748D02*
X013030Y010748D01*
X013030Y010787D02*
X012400Y010787D01*
X012400Y010826D02*
X013030Y010826D01*
X013030Y010865D02*
X012400Y010865D01*
X005691Y002182D02*
X005061Y002182D01*
X005691Y002182D02*
X005691Y001120D01*
X005061Y001120D01*
X005061Y002182D01*
X005061Y001159D02*
X005691Y001159D01*
X005691Y001198D02*
X005061Y001198D01*
X005061Y001237D02*
X005691Y001237D01*
X005691Y001276D02*
X005061Y001276D01*
X005061Y001315D02*
X005691Y001315D01*
X005691Y001354D02*
X005061Y001354D01*
X005061Y001393D02*
X005691Y001393D01*
X005691Y001432D02*
X005061Y001432D01*
X005061Y001471D02*
X005691Y001471D01*
X005691Y001510D02*
X005061Y001510D01*
X005061Y001549D02*
X005691Y001549D01*
X005691Y001588D02*
X005061Y001588D01*
X005061Y001627D02*
X005691Y001627D01*
X005691Y001666D02*
X005061Y001666D01*
X005061Y001705D02*
X005691Y001705D01*
X005691Y001744D02*
X005061Y001744D01*
X005061Y001783D02*
X005691Y001783D01*
X005691Y001822D02*
X005061Y001822D01*
X005061Y001861D02*
X005691Y001861D01*
X005691Y001900D02*
X005061Y001900D01*
X005061Y001939D02*
X005691Y001939D01*
X005691Y001978D02*
X005061Y001978D01*
X005061Y002017D02*
X005691Y002017D01*
X005691Y002056D02*
X005061Y002056D01*
X005061Y002095D02*
X005691Y002095D01*
X005691Y002134D02*
X005061Y002134D01*
X005061Y002173D02*
X005691Y002173D01*
X004588Y002182D02*
X003958Y002182D01*
X004588Y002182D02*
X004588Y001120D01*
X003958Y001120D01*
X003958Y002182D01*
X003958Y001159D02*
X004588Y001159D01*
X004588Y001198D02*
X003958Y001198D01*
X003958Y001237D02*
X004588Y001237D01*
X004588Y001276D02*
X003958Y001276D01*
X003958Y001315D02*
X004588Y001315D01*
X004588Y001354D02*
X003958Y001354D01*
X003958Y001393D02*
X004588Y001393D01*
X004588Y001432D02*
X003958Y001432D01*
X003958Y001471D02*
X004588Y001471D01*
X004588Y001510D02*
X003958Y001510D01*
X003958Y001549D02*
X004588Y001549D01*
X004588Y001588D02*
X003958Y001588D01*
X003958Y001627D02*
X004588Y001627D01*
X004588Y001666D02*
X003958Y001666D01*
X003958Y001705D02*
X004588Y001705D01*
X004588Y001744D02*
X003958Y001744D01*
X003958Y001783D02*
X004588Y001783D01*
X004588Y001822D02*
X003958Y001822D01*
X003958Y001861D02*
X004588Y001861D01*
X004588Y001900D02*
X003958Y001900D01*
X003958Y001939D02*
X004588Y001939D01*
X004588Y001978D02*
X003958Y001978D01*
X003958Y002017D02*
X004588Y002017D01*
X004588Y002056D02*
X003958Y002056D01*
X003958Y002095D02*
X004588Y002095D01*
X004588Y002134D02*
X003958Y002134D01*
X003958Y002173D02*
X004588Y002173D01*
X027758Y000970D02*
X028388Y000970D01*
X027758Y000970D02*
X027758Y002032D01*
X028388Y002032D01*
X028388Y000970D01*
X028388Y001009D02*
X027758Y001009D01*
X027758Y001048D02*
X028388Y001048D01*
X028388Y001087D02*
X027758Y001087D01*
X027758Y001126D02*
X028388Y001126D01*
X028388Y001165D02*
X027758Y001165D01*
X027758Y001204D02*
X028388Y001204D01*
X028388Y001243D02*
X027758Y001243D01*
X027758Y001282D02*
X028388Y001282D01*
X028388Y001321D02*
X027758Y001321D01*
X027758Y001360D02*
X028388Y001360D01*
X028388Y001399D02*
X027758Y001399D01*
X027758Y001438D02*
X028388Y001438D01*
X028388Y001477D02*
X027758Y001477D01*
X027758Y001516D02*
X028388Y001516D01*
X028388Y001555D02*
X027758Y001555D01*
X027758Y001594D02*
X028388Y001594D01*
X028388Y001633D02*
X027758Y001633D01*
X027758Y001672D02*
X028388Y001672D01*
X028388Y001711D02*
X027758Y001711D01*
X027758Y001750D02*
X028388Y001750D01*
X028388Y001789D02*
X027758Y001789D01*
X027758Y001828D02*
X028388Y001828D01*
X028388Y001867D02*
X027758Y001867D01*
X027758Y001906D02*
X028388Y001906D01*
X028388Y001945D02*
X027758Y001945D01*
X027758Y001984D02*
X028388Y001984D01*
X028388Y002023D02*
X027758Y002023D01*
X028861Y000970D02*
X029491Y000970D01*
X028861Y000970D02*
X028861Y002032D01*
X029491Y002032D01*
X029491Y000970D01*
X029491Y001009D02*
X028861Y001009D01*
X028861Y001048D02*
X029491Y001048D01*
X029491Y001087D02*
X028861Y001087D01*
X028861Y001126D02*
X029491Y001126D01*
X029491Y001165D02*
X028861Y001165D01*
X028861Y001204D02*
X029491Y001204D01*
X029491Y001243D02*
X028861Y001243D01*
X028861Y001282D02*
X029491Y001282D01*
X029491Y001321D02*
X028861Y001321D01*
X028861Y001360D02*
X029491Y001360D01*
X029491Y001399D02*
X028861Y001399D01*
X028861Y001438D02*
X029491Y001438D01*
X029491Y001477D02*
X028861Y001477D01*
X028861Y001516D02*
X029491Y001516D01*
X029491Y001555D02*
X028861Y001555D01*
X028861Y001594D02*
X029491Y001594D01*
X029491Y001633D02*
X028861Y001633D01*
X028861Y001672D02*
X029491Y001672D01*
X029491Y001711D02*
X028861Y001711D01*
X028861Y001750D02*
X029491Y001750D01*
X029491Y001789D02*
X028861Y001789D01*
X028861Y001828D02*
X029491Y001828D01*
X029491Y001867D02*
X028861Y001867D01*
X028861Y001906D02*
X029491Y001906D01*
X029491Y001945D02*
X028861Y001945D01*
X028861Y001984D02*
X029491Y001984D01*
X029491Y002023D02*
X028861Y002023D01*
X030760Y006908D02*
X030760Y007694D01*
X030760Y006908D02*
X030130Y006908D01*
X030130Y007694D01*
X030760Y007694D01*
X030760Y006947D02*
X030130Y006947D01*
X030130Y006986D02*
X030760Y006986D01*
X030760Y007025D02*
X030130Y007025D01*
X030130Y007064D02*
X030760Y007064D01*
X030760Y007103D02*
X030130Y007103D01*
X030130Y007142D02*
X030760Y007142D01*
X030760Y007181D02*
X030130Y007181D01*
X030130Y007220D02*
X030760Y007220D01*
X030760Y007259D02*
X030130Y007259D01*
X030130Y007298D02*
X030760Y007298D01*
X030760Y007337D02*
X030130Y007337D01*
X030130Y007376D02*
X030760Y007376D01*
X030760Y007415D02*
X030130Y007415D01*
X030130Y007454D02*
X030760Y007454D01*
X030760Y007493D02*
X030130Y007493D01*
X030130Y007532D02*
X030760Y007532D01*
X030760Y007571D02*
X030130Y007571D01*
X030130Y007610D02*
X030760Y007610D01*
X030760Y007649D02*
X030130Y007649D01*
X030130Y007688D02*
X030760Y007688D01*
X030760Y009058D02*
X030760Y009844D01*
X030760Y009058D02*
X030130Y009058D01*
X030130Y009844D01*
X030760Y009844D01*
X030760Y009097D02*
X030130Y009097D01*
X030130Y009136D02*
X030760Y009136D01*
X030760Y009175D02*
X030130Y009175D01*
X030130Y009214D02*
X030760Y009214D01*
X030760Y009253D02*
X030130Y009253D01*
X030130Y009292D02*
X030760Y009292D01*
X030760Y009331D02*
X030130Y009331D01*
X030130Y009370D02*
X030760Y009370D01*
X030760Y009409D02*
X030130Y009409D01*
X030130Y009448D02*
X030760Y009448D01*
X030760Y009487D02*
X030130Y009487D01*
X030130Y009526D02*
X030760Y009526D01*
X030760Y009565D02*
X030130Y009565D01*
X030130Y009604D02*
X030760Y009604D01*
X030760Y009643D02*
X030130Y009643D01*
X030130Y009682D02*
X030760Y009682D01*
X030760Y009721D02*
X030130Y009721D01*
X030130Y009760D02*
X030760Y009760D01*
X030760Y009799D02*
X030130Y009799D01*
X030130Y009838D02*
X030760Y009838D01*
X033296Y010995D02*
X033296Y011625D01*
X033296Y010995D02*
X032352Y010995D01*
X032352Y011625D01*
X033296Y011625D01*
X033296Y011034D02*
X032352Y011034D01*
X032352Y011073D02*
X033296Y011073D01*
X033296Y011112D02*
X032352Y011112D01*
X032352Y011151D02*
X033296Y011151D01*
X033296Y011190D02*
X032352Y011190D01*
X032352Y011229D02*
X033296Y011229D01*
X033296Y011268D02*
X032352Y011268D01*
X032352Y011307D02*
X033296Y011307D01*
X033296Y011346D02*
X032352Y011346D01*
X032352Y011385D02*
X033296Y011385D01*
X033296Y011424D02*
X032352Y011424D01*
X032352Y011463D02*
X033296Y011463D01*
X033296Y011502D02*
X032352Y011502D01*
X032352Y011541D02*
X033296Y011541D01*
X033296Y011580D02*
X032352Y011580D01*
X032352Y011619D02*
X033296Y011619D01*
X032352Y012176D02*
X032352Y012806D01*
X033296Y012806D01*
X033296Y012176D01*
X032352Y012176D01*
X032352Y012215D02*
X033296Y012215D01*
X033296Y012254D02*
X032352Y012254D01*
X032352Y012293D02*
X033296Y012293D01*
X033296Y012332D02*
X032352Y012332D01*
X032352Y012371D02*
X033296Y012371D01*
X033296Y012410D02*
X032352Y012410D01*
X032352Y012449D02*
X033296Y012449D01*
X033296Y012488D02*
X032352Y012488D01*
X032352Y012527D02*
X033296Y012527D01*
X033296Y012566D02*
X032352Y012566D01*
X032352Y012605D02*
X033296Y012605D01*
X033296Y012644D02*
X032352Y012644D01*
X032352Y012683D02*
X033296Y012683D01*
X033296Y012722D02*
X032352Y012722D01*
X032352Y012761D02*
X033296Y012761D01*
X033296Y012800D02*
X032352Y012800D01*
X040419Y006929D02*
X041049Y006929D01*
X040419Y006929D02*
X040419Y007873D01*
X041049Y007873D01*
X041049Y006929D01*
X041049Y006968D02*
X040419Y006968D01*
X040419Y007007D02*
X041049Y007007D01*
X041049Y007046D02*
X040419Y007046D01*
X040419Y007085D02*
X041049Y007085D01*
X041049Y007124D02*
X040419Y007124D01*
X040419Y007163D02*
X041049Y007163D01*
X041049Y007202D02*
X040419Y007202D01*
X040419Y007241D02*
X041049Y007241D01*
X041049Y007280D02*
X040419Y007280D01*
X040419Y007319D02*
X041049Y007319D01*
X041049Y007358D02*
X040419Y007358D01*
X040419Y007397D02*
X041049Y007397D01*
X041049Y007436D02*
X040419Y007436D01*
X040419Y007475D02*
X041049Y007475D01*
X041049Y007514D02*
X040419Y007514D01*
X040419Y007553D02*
X041049Y007553D01*
X041049Y007592D02*
X040419Y007592D01*
X040419Y007631D02*
X041049Y007631D01*
X041049Y007670D02*
X040419Y007670D01*
X040419Y007709D02*
X041049Y007709D01*
X041049Y007748D02*
X040419Y007748D01*
X040419Y007787D02*
X041049Y007787D01*
X041049Y007826D02*
X040419Y007826D01*
X040419Y007865D02*
X041049Y007865D01*
X041600Y007873D02*
X042230Y007873D01*
X042230Y006929D01*
X041600Y006929D01*
X041600Y007873D01*
X041600Y006968D02*
X042230Y006968D01*
X042230Y007007D02*
X041600Y007007D01*
X041600Y007046D02*
X042230Y007046D01*
X042230Y007085D02*
X041600Y007085D01*
X041600Y007124D02*
X042230Y007124D01*
X042230Y007163D02*
X041600Y007163D01*
X041600Y007202D02*
X042230Y007202D01*
X042230Y007241D02*
X041600Y007241D01*
X041600Y007280D02*
X042230Y007280D01*
X042230Y007319D02*
X041600Y007319D01*
X041600Y007358D02*
X042230Y007358D01*
X042230Y007397D02*
X041600Y007397D01*
X041600Y007436D02*
X042230Y007436D01*
X042230Y007475D02*
X041600Y007475D01*
X041600Y007514D02*
X042230Y007514D01*
X042230Y007553D02*
X041600Y007553D01*
X041600Y007592D02*
X042230Y007592D01*
X042230Y007631D02*
X041600Y007631D01*
X041600Y007670D02*
X042230Y007670D01*
X042230Y007709D02*
X041600Y007709D01*
X041600Y007748D02*
X042230Y007748D01*
X042230Y007787D02*
X041600Y007787D01*
X041600Y007826D02*
X042230Y007826D01*
X042230Y007865D02*
X041600Y007865D01*
X041365Y002786D02*
X041995Y002786D01*
X041365Y002786D02*
X041365Y003966D01*
X041995Y003966D01*
X041995Y002786D01*
X041995Y002825D02*
X041365Y002825D01*
X041365Y002864D02*
X041995Y002864D01*
X041995Y002903D02*
X041365Y002903D01*
X041365Y002942D02*
X041995Y002942D01*
X041995Y002981D02*
X041365Y002981D01*
X041365Y003020D02*
X041995Y003020D01*
X041995Y003059D02*
X041365Y003059D01*
X041365Y003098D02*
X041995Y003098D01*
X041995Y003137D02*
X041365Y003137D01*
X041365Y003176D02*
X041995Y003176D01*
X041995Y003215D02*
X041365Y003215D01*
X041365Y003254D02*
X041995Y003254D01*
X041995Y003293D02*
X041365Y003293D01*
X041365Y003332D02*
X041995Y003332D01*
X041995Y003371D02*
X041365Y003371D01*
X041365Y003410D02*
X041995Y003410D01*
X041995Y003449D02*
X041365Y003449D01*
X041365Y003488D02*
X041995Y003488D01*
X041995Y003527D02*
X041365Y003527D01*
X041365Y003566D02*
X041995Y003566D01*
X041995Y003605D02*
X041365Y003605D01*
X041365Y003644D02*
X041995Y003644D01*
X041995Y003683D02*
X041365Y003683D01*
X041365Y003722D02*
X041995Y003722D01*
X041995Y003761D02*
X041365Y003761D01*
X041365Y003800D02*
X041995Y003800D01*
X041995Y003839D02*
X041365Y003839D01*
X041365Y003878D02*
X041995Y003878D01*
X041995Y003917D02*
X041365Y003917D01*
X041365Y003956D02*
X041995Y003956D01*
X040184Y002786D02*
X039554Y002786D01*
X039554Y003966D01*
X040184Y003966D01*
X040184Y002786D01*
X040184Y002825D02*
X039554Y002825D01*
X039554Y002864D02*
X040184Y002864D01*
X040184Y002903D02*
X039554Y002903D01*
X039554Y002942D02*
X040184Y002942D01*
X040184Y002981D02*
X039554Y002981D01*
X039554Y003020D02*
X040184Y003020D01*
X040184Y003059D02*
X039554Y003059D01*
X039554Y003098D02*
X040184Y003098D01*
X040184Y003137D02*
X039554Y003137D01*
X039554Y003176D02*
X040184Y003176D01*
X040184Y003215D02*
X039554Y003215D01*
X039554Y003254D02*
X040184Y003254D01*
X040184Y003293D02*
X039554Y003293D01*
X039554Y003332D02*
X040184Y003332D01*
X040184Y003371D02*
X039554Y003371D01*
X039554Y003410D02*
X040184Y003410D01*
X040184Y003449D02*
X039554Y003449D01*
X039554Y003488D02*
X040184Y003488D01*
X040184Y003527D02*
X039554Y003527D01*
X039554Y003566D02*
X040184Y003566D01*
X040184Y003605D02*
X039554Y003605D01*
X039554Y003644D02*
X040184Y003644D01*
X040184Y003683D02*
X039554Y003683D01*
X039554Y003722D02*
X040184Y003722D01*
X040184Y003761D02*
X039554Y003761D01*
X039554Y003800D02*
X040184Y003800D01*
X040184Y003839D02*
X039554Y003839D01*
X039554Y003878D02*
X040184Y003878D01*
X040184Y003917D02*
X039554Y003917D01*
X039554Y003956D02*
X040184Y003956D01*
X037659Y024480D02*
X037659Y025110D01*
X038839Y025110D01*
X038839Y024480D01*
X037659Y024480D01*
X037659Y024519D02*
X038839Y024519D01*
X038839Y024558D02*
X037659Y024558D01*
X037659Y024597D02*
X038839Y024597D01*
X038839Y024636D02*
X037659Y024636D01*
X037659Y024675D02*
X038839Y024675D01*
X038839Y024714D02*
X037659Y024714D01*
X037659Y024753D02*
X038839Y024753D01*
X038839Y024792D02*
X037659Y024792D01*
X037659Y024831D02*
X038839Y024831D01*
X038839Y024870D02*
X037659Y024870D01*
X037659Y024909D02*
X038839Y024909D01*
X038839Y024948D02*
X037659Y024948D01*
X037659Y024987D02*
X038839Y024987D01*
X038839Y025026D02*
X037659Y025026D01*
X037659Y025065D02*
X038839Y025065D01*
X038839Y025104D02*
X037659Y025104D01*
X037659Y026291D02*
X037659Y026921D01*
X038839Y026921D01*
X038839Y026291D01*
X037659Y026291D01*
X037659Y026330D02*
X038839Y026330D01*
X038839Y026369D02*
X037659Y026369D01*
X037659Y026408D02*
X038839Y026408D01*
X038839Y026447D02*
X037659Y026447D01*
X037659Y026486D02*
X038839Y026486D01*
X038839Y026525D02*
X037659Y026525D01*
X037659Y026564D02*
X038839Y026564D01*
X038839Y026603D02*
X037659Y026603D01*
X037659Y026642D02*
X038839Y026642D01*
X038839Y026681D02*
X037659Y026681D01*
X037659Y026720D02*
X038839Y026720D01*
X038839Y026759D02*
X037659Y026759D01*
X037659Y026798D02*
X038839Y026798D01*
X038839Y026837D02*
X037659Y026837D01*
X037659Y026876D02*
X038839Y026876D01*
X038839Y026915D02*
X037659Y026915D01*
D32*
X037749Y034826D03*
X037999Y037576D03*
X034999Y037576D03*
X034749Y034826D03*
D33*
X039020Y034970D02*
X039020Y035520D01*
X039728Y035520D01*
X039728Y034970D01*
X039020Y034970D01*
X039020Y035010D02*
X039728Y035010D01*
X039728Y035050D02*
X039020Y035050D01*
X039020Y035090D02*
X039728Y035090D01*
X039728Y035130D02*
X039020Y035130D01*
X039020Y035170D02*
X039728Y035170D01*
X039728Y035210D02*
X039020Y035210D01*
X039020Y035250D02*
X039728Y035250D01*
X039728Y035290D02*
X039020Y035290D01*
X039020Y035330D02*
X039728Y035330D01*
X039728Y035370D02*
X039020Y035370D01*
X039020Y035410D02*
X039728Y035410D01*
X039728Y035450D02*
X039020Y035450D01*
X039020Y035490D02*
X039728Y035490D01*
X039145Y036631D02*
X039145Y037181D01*
X039853Y037181D01*
X039853Y036631D01*
X039145Y036631D01*
X039145Y036671D02*
X039853Y036671D01*
X039853Y036711D02*
X039145Y036711D01*
X039145Y036751D02*
X039853Y036751D01*
X039853Y036791D02*
X039145Y036791D01*
X039145Y036831D02*
X039853Y036831D01*
X039853Y036871D02*
X039145Y036871D01*
X039145Y036911D02*
X039853Y036911D01*
X039853Y036951D02*
X039145Y036951D01*
X039145Y036991D02*
X039853Y036991D01*
X039853Y037031D02*
X039145Y037031D01*
X039145Y037071D02*
X039853Y037071D01*
X039853Y037111D02*
X039145Y037111D01*
X039145Y037151D02*
X039853Y037151D01*
X039145Y037970D02*
X039145Y038520D01*
X039853Y038520D01*
X039853Y037970D01*
X039145Y037970D01*
X039145Y038010D02*
X039853Y038010D01*
X039853Y038050D02*
X039145Y038050D01*
X039145Y038090D02*
X039853Y038090D01*
X039853Y038130D02*
X039145Y038130D01*
X039145Y038170D02*
X039853Y038170D01*
X039853Y038210D02*
X039145Y038210D01*
X039145Y038250D02*
X039853Y038250D01*
X039853Y038290D02*
X039145Y038290D01*
X039145Y038330D02*
X039853Y038330D01*
X039853Y038370D02*
X039145Y038370D01*
X039145Y038410D02*
X039853Y038410D01*
X039853Y038450D02*
X039145Y038450D01*
X039145Y038490D02*
X039853Y038490D01*
X039020Y034181D02*
X039020Y033631D01*
X039020Y034181D02*
X039728Y034181D01*
X039728Y033631D01*
X039020Y033631D01*
X039020Y033671D02*
X039728Y033671D01*
X039728Y033711D02*
X039020Y033711D01*
X039020Y033751D02*
X039728Y033751D01*
X039728Y033791D02*
X039020Y033791D01*
X039020Y033831D02*
X039728Y033831D01*
X039728Y033871D02*
X039020Y033871D01*
X039020Y033911D02*
X039728Y033911D01*
X039728Y033951D02*
X039020Y033951D01*
X039020Y033991D02*
X039728Y033991D01*
X039728Y034031D02*
X039020Y034031D01*
X039020Y034071D02*
X039728Y034071D01*
X039728Y034111D02*
X039020Y034111D01*
X039020Y034151D02*
X039728Y034151D01*
D34*
X039631Y031416D02*
X039867Y031416D01*
X039631Y031416D02*
X039631Y032282D01*
X039867Y032282D01*
X039867Y031416D01*
X039867Y031456D02*
X039631Y031456D01*
X039631Y031496D02*
X039867Y031496D01*
X039867Y031536D02*
X039631Y031536D01*
X039631Y031576D02*
X039867Y031576D01*
X039867Y031616D02*
X039631Y031616D01*
X039631Y031656D02*
X039867Y031656D01*
X039867Y031696D02*
X039631Y031696D01*
X039631Y031736D02*
X039867Y031736D01*
X039867Y031776D02*
X039631Y031776D01*
X039631Y031816D02*
X039867Y031816D01*
X039867Y031856D02*
X039631Y031856D01*
X039631Y031896D02*
X039867Y031896D01*
X039867Y031936D02*
X039631Y031936D01*
X039631Y031976D02*
X039867Y031976D01*
X039867Y032016D02*
X039631Y032016D01*
X039631Y032056D02*
X039867Y032056D01*
X039867Y032096D02*
X039631Y032096D01*
X039631Y032136D02*
X039867Y032136D01*
X039867Y032176D02*
X039631Y032176D01*
X039631Y032216D02*
X039867Y032216D01*
X039867Y032256D02*
X039631Y032256D01*
X039367Y031416D02*
X039131Y031416D01*
X039131Y032282D01*
X039367Y032282D01*
X039367Y031416D01*
X039367Y031456D02*
X039131Y031456D01*
X039131Y031496D02*
X039367Y031496D01*
X039367Y031536D02*
X039131Y031536D01*
X039131Y031576D02*
X039367Y031576D01*
X039367Y031616D02*
X039131Y031616D01*
X039131Y031656D02*
X039367Y031656D01*
X039367Y031696D02*
X039131Y031696D01*
X039131Y031736D02*
X039367Y031736D01*
X039367Y031776D02*
X039131Y031776D01*
X039131Y031816D02*
X039367Y031816D01*
X039367Y031856D02*
X039131Y031856D01*
X039131Y031896D02*
X039367Y031896D01*
X039367Y031936D02*
X039131Y031936D01*
X039131Y031976D02*
X039367Y031976D01*
X039367Y032016D02*
X039131Y032016D01*
X039131Y032056D02*
X039367Y032056D01*
X039367Y032096D02*
X039131Y032096D01*
X039131Y032136D02*
X039367Y032136D01*
X039367Y032176D02*
X039131Y032176D01*
X039131Y032216D02*
X039367Y032216D01*
X039367Y032256D02*
X039131Y032256D01*
X040131Y031416D02*
X040367Y031416D01*
X040131Y031416D02*
X040131Y032282D01*
X040367Y032282D01*
X040367Y031416D01*
X040367Y031456D02*
X040131Y031456D01*
X040131Y031496D02*
X040367Y031496D01*
X040367Y031536D02*
X040131Y031536D01*
X040131Y031576D02*
X040367Y031576D01*
X040367Y031616D02*
X040131Y031616D01*
X040131Y031656D02*
X040367Y031656D01*
X040367Y031696D02*
X040131Y031696D01*
X040131Y031736D02*
X040367Y031736D01*
X040367Y031776D02*
X040131Y031776D01*
X040131Y031816D02*
X040367Y031816D01*
X040367Y031856D02*
X040131Y031856D01*
X040131Y031896D02*
X040367Y031896D01*
X040367Y031936D02*
X040131Y031936D01*
X040131Y031976D02*
X040367Y031976D01*
X040367Y032016D02*
X040131Y032016D01*
X040131Y032056D02*
X040367Y032056D01*
X040367Y032096D02*
X040131Y032096D01*
X040131Y032136D02*
X040367Y032136D01*
X040367Y032176D02*
X040131Y032176D01*
X040131Y032216D02*
X040367Y032216D01*
X040367Y032256D02*
X040131Y032256D01*
X040631Y031416D02*
X040867Y031416D01*
X040631Y031416D02*
X040631Y032282D01*
X040867Y032282D01*
X040867Y031416D01*
X040867Y031456D02*
X040631Y031456D01*
X040631Y031496D02*
X040867Y031496D01*
X040867Y031536D02*
X040631Y031536D01*
X040631Y031576D02*
X040867Y031576D01*
X040867Y031616D02*
X040631Y031616D01*
X040631Y031656D02*
X040867Y031656D01*
X040867Y031696D02*
X040631Y031696D01*
X040631Y031736D02*
X040867Y031736D01*
X040867Y031776D02*
X040631Y031776D01*
X040631Y031816D02*
X040867Y031816D01*
X040867Y031856D02*
X040631Y031856D01*
X040631Y031896D02*
X040867Y031896D01*
X040867Y031936D02*
X040631Y031936D01*
X040631Y031976D02*
X040867Y031976D01*
X040867Y032016D02*
X040631Y032016D01*
X040631Y032056D02*
X040867Y032056D01*
X040867Y032096D02*
X040631Y032096D01*
X040631Y032136D02*
X040867Y032136D01*
X040867Y032176D02*
X040631Y032176D01*
X040631Y032216D02*
X040867Y032216D01*
X040867Y032256D02*
X040631Y032256D01*
X040631Y029369D02*
X040867Y029369D01*
X040631Y029369D02*
X040631Y030235D01*
X040867Y030235D01*
X040867Y029369D01*
X040867Y029409D02*
X040631Y029409D01*
X040631Y029449D02*
X040867Y029449D01*
X040867Y029489D02*
X040631Y029489D01*
X040631Y029529D02*
X040867Y029529D01*
X040867Y029569D02*
X040631Y029569D01*
X040631Y029609D02*
X040867Y029609D01*
X040867Y029649D02*
X040631Y029649D01*
X040631Y029689D02*
X040867Y029689D01*
X040867Y029729D02*
X040631Y029729D01*
X040631Y029769D02*
X040867Y029769D01*
X040867Y029809D02*
X040631Y029809D01*
X040631Y029849D02*
X040867Y029849D01*
X040867Y029889D02*
X040631Y029889D01*
X040631Y029929D02*
X040867Y029929D01*
X040867Y029969D02*
X040631Y029969D01*
X040631Y030009D02*
X040867Y030009D01*
X040867Y030049D02*
X040631Y030049D01*
X040631Y030089D02*
X040867Y030089D01*
X040867Y030129D02*
X040631Y030129D01*
X040631Y030169D02*
X040867Y030169D01*
X040867Y030209D02*
X040631Y030209D01*
X040367Y029369D02*
X040131Y029369D01*
X040131Y030235D01*
X040367Y030235D01*
X040367Y029369D01*
X040367Y029409D02*
X040131Y029409D01*
X040131Y029449D02*
X040367Y029449D01*
X040367Y029489D02*
X040131Y029489D01*
X040131Y029529D02*
X040367Y029529D01*
X040367Y029569D02*
X040131Y029569D01*
X040131Y029609D02*
X040367Y029609D01*
X040367Y029649D02*
X040131Y029649D01*
X040131Y029689D02*
X040367Y029689D01*
X040367Y029729D02*
X040131Y029729D01*
X040131Y029769D02*
X040367Y029769D01*
X040367Y029809D02*
X040131Y029809D01*
X040131Y029849D02*
X040367Y029849D01*
X040367Y029889D02*
X040131Y029889D01*
X040131Y029929D02*
X040367Y029929D01*
X040367Y029969D02*
X040131Y029969D01*
X040131Y030009D02*
X040367Y030009D01*
X040367Y030049D02*
X040131Y030049D01*
X040131Y030089D02*
X040367Y030089D01*
X040367Y030129D02*
X040131Y030129D01*
X040131Y030169D02*
X040367Y030169D01*
X040367Y030209D02*
X040131Y030209D01*
X039867Y029369D02*
X039631Y029369D01*
X039631Y030235D01*
X039867Y030235D01*
X039867Y029369D01*
X039867Y029409D02*
X039631Y029409D01*
X039631Y029449D02*
X039867Y029449D01*
X039867Y029489D02*
X039631Y029489D01*
X039631Y029529D02*
X039867Y029529D01*
X039867Y029569D02*
X039631Y029569D01*
X039631Y029609D02*
X039867Y029609D01*
X039867Y029649D02*
X039631Y029649D01*
X039631Y029689D02*
X039867Y029689D01*
X039867Y029729D02*
X039631Y029729D01*
X039631Y029769D02*
X039867Y029769D01*
X039867Y029809D02*
X039631Y029809D01*
X039631Y029849D02*
X039867Y029849D01*
X039867Y029889D02*
X039631Y029889D01*
X039631Y029929D02*
X039867Y029929D01*
X039867Y029969D02*
X039631Y029969D01*
X039631Y030009D02*
X039867Y030009D01*
X039867Y030049D02*
X039631Y030049D01*
X039631Y030089D02*
X039867Y030089D01*
X039867Y030129D02*
X039631Y030129D01*
X039631Y030169D02*
X039867Y030169D01*
X039867Y030209D02*
X039631Y030209D01*
X039367Y029369D02*
X039131Y029369D01*
X039131Y030235D01*
X039367Y030235D01*
X039367Y029369D01*
X039367Y029409D02*
X039131Y029409D01*
X039131Y029449D02*
X039367Y029449D01*
X039367Y029489D02*
X039131Y029489D01*
X039131Y029529D02*
X039367Y029529D01*
X039367Y029569D02*
X039131Y029569D01*
X039131Y029609D02*
X039367Y029609D01*
X039367Y029649D02*
X039131Y029649D01*
X039131Y029689D02*
X039367Y029689D01*
X039367Y029729D02*
X039131Y029729D01*
X039131Y029769D02*
X039367Y029769D01*
X039367Y029809D02*
X039131Y029809D01*
X039131Y029849D02*
X039367Y029849D01*
X039367Y029889D02*
X039131Y029889D01*
X039131Y029929D02*
X039367Y029929D01*
X039367Y029969D02*
X039131Y029969D01*
X039131Y030009D02*
X039367Y030009D01*
X039367Y030049D02*
X039131Y030049D01*
X039131Y030089D02*
X039367Y030089D01*
X039367Y030129D02*
X039131Y030129D01*
X039131Y030169D02*
X039367Y030169D01*
X039367Y030209D02*
X039131Y030209D01*
X035867Y028994D02*
X035631Y028994D01*
X035631Y029860D01*
X035867Y029860D01*
X035867Y028994D01*
X035867Y029034D02*
X035631Y029034D01*
X035631Y029074D02*
X035867Y029074D01*
X035867Y029114D02*
X035631Y029114D01*
X035631Y029154D02*
X035867Y029154D01*
X035867Y029194D02*
X035631Y029194D01*
X035631Y029234D02*
X035867Y029234D01*
X035867Y029274D02*
X035631Y029274D01*
X035631Y029314D02*
X035867Y029314D01*
X035867Y029354D02*
X035631Y029354D01*
X035631Y029394D02*
X035867Y029394D01*
X035867Y029434D02*
X035631Y029434D01*
X035631Y029474D02*
X035867Y029474D01*
X035867Y029514D02*
X035631Y029514D01*
X035631Y029554D02*
X035867Y029554D01*
X035867Y029594D02*
X035631Y029594D01*
X035631Y029634D02*
X035867Y029634D01*
X035867Y029674D02*
X035631Y029674D01*
X035631Y029714D02*
X035867Y029714D01*
X035867Y029754D02*
X035631Y029754D01*
X035631Y029794D02*
X035867Y029794D01*
X035867Y029834D02*
X035631Y029834D01*
X035367Y028994D02*
X035131Y028994D01*
X035131Y029860D01*
X035367Y029860D01*
X035367Y028994D01*
X035367Y029034D02*
X035131Y029034D01*
X035131Y029074D02*
X035367Y029074D01*
X035367Y029114D02*
X035131Y029114D01*
X035131Y029154D02*
X035367Y029154D01*
X035367Y029194D02*
X035131Y029194D01*
X035131Y029234D02*
X035367Y029234D01*
X035367Y029274D02*
X035131Y029274D01*
X035131Y029314D02*
X035367Y029314D01*
X035367Y029354D02*
X035131Y029354D01*
X035131Y029394D02*
X035367Y029394D01*
X035367Y029434D02*
X035131Y029434D01*
X035131Y029474D02*
X035367Y029474D01*
X035367Y029514D02*
X035131Y029514D01*
X035131Y029554D02*
X035367Y029554D01*
X035367Y029594D02*
X035131Y029594D01*
X035131Y029634D02*
X035367Y029634D01*
X035367Y029674D02*
X035131Y029674D01*
X035131Y029714D02*
X035367Y029714D01*
X035367Y029754D02*
X035131Y029754D01*
X035131Y029794D02*
X035367Y029794D01*
X035367Y029834D02*
X035131Y029834D01*
X034867Y028994D02*
X034631Y028994D01*
X034631Y029860D01*
X034867Y029860D01*
X034867Y028994D01*
X034867Y029034D02*
X034631Y029034D01*
X034631Y029074D02*
X034867Y029074D01*
X034867Y029114D02*
X034631Y029114D01*
X034631Y029154D02*
X034867Y029154D01*
X034867Y029194D02*
X034631Y029194D01*
X034631Y029234D02*
X034867Y029234D01*
X034867Y029274D02*
X034631Y029274D01*
X034631Y029314D02*
X034867Y029314D01*
X034867Y029354D02*
X034631Y029354D01*
X034631Y029394D02*
X034867Y029394D01*
X034867Y029434D02*
X034631Y029434D01*
X034631Y029474D02*
X034867Y029474D01*
X034867Y029514D02*
X034631Y029514D01*
X034631Y029554D02*
X034867Y029554D01*
X034867Y029594D02*
X034631Y029594D01*
X034631Y029634D02*
X034867Y029634D01*
X034867Y029674D02*
X034631Y029674D01*
X034631Y029714D02*
X034867Y029714D01*
X034867Y029754D02*
X034631Y029754D01*
X034631Y029794D02*
X034867Y029794D01*
X034867Y029834D02*
X034631Y029834D01*
X034367Y028994D02*
X034131Y028994D01*
X034131Y029860D01*
X034367Y029860D01*
X034367Y028994D01*
X034367Y029034D02*
X034131Y029034D01*
X034131Y029074D02*
X034367Y029074D01*
X034367Y029114D02*
X034131Y029114D01*
X034131Y029154D02*
X034367Y029154D01*
X034367Y029194D02*
X034131Y029194D01*
X034131Y029234D02*
X034367Y029234D01*
X034367Y029274D02*
X034131Y029274D01*
X034131Y029314D02*
X034367Y029314D01*
X034367Y029354D02*
X034131Y029354D01*
X034131Y029394D02*
X034367Y029394D01*
X034367Y029434D02*
X034131Y029434D01*
X034131Y029474D02*
X034367Y029474D01*
X034367Y029514D02*
X034131Y029514D01*
X034131Y029554D02*
X034367Y029554D01*
X034367Y029594D02*
X034131Y029594D01*
X034131Y029634D02*
X034367Y029634D01*
X034367Y029674D02*
X034131Y029674D01*
X034131Y029714D02*
X034367Y029714D01*
X034367Y029754D02*
X034131Y029754D01*
X034131Y029794D02*
X034367Y029794D01*
X034367Y029834D02*
X034131Y029834D01*
X034131Y031041D02*
X034367Y031041D01*
X034131Y031041D02*
X034131Y031907D01*
X034367Y031907D01*
X034367Y031041D01*
X034367Y031081D02*
X034131Y031081D01*
X034131Y031121D02*
X034367Y031121D01*
X034367Y031161D02*
X034131Y031161D01*
X034131Y031201D02*
X034367Y031201D01*
X034367Y031241D02*
X034131Y031241D01*
X034131Y031281D02*
X034367Y031281D01*
X034367Y031321D02*
X034131Y031321D01*
X034131Y031361D02*
X034367Y031361D01*
X034367Y031401D02*
X034131Y031401D01*
X034131Y031441D02*
X034367Y031441D01*
X034367Y031481D02*
X034131Y031481D01*
X034131Y031521D02*
X034367Y031521D01*
X034367Y031561D02*
X034131Y031561D01*
X034131Y031601D02*
X034367Y031601D01*
X034367Y031641D02*
X034131Y031641D01*
X034131Y031681D02*
X034367Y031681D01*
X034367Y031721D02*
X034131Y031721D01*
X034131Y031761D02*
X034367Y031761D01*
X034367Y031801D02*
X034131Y031801D01*
X034131Y031841D02*
X034367Y031841D01*
X034367Y031881D02*
X034131Y031881D01*
X034631Y031041D02*
X034867Y031041D01*
X034631Y031041D02*
X034631Y031907D01*
X034867Y031907D01*
X034867Y031041D01*
X034867Y031081D02*
X034631Y031081D01*
X034631Y031121D02*
X034867Y031121D01*
X034867Y031161D02*
X034631Y031161D01*
X034631Y031201D02*
X034867Y031201D01*
X034867Y031241D02*
X034631Y031241D01*
X034631Y031281D02*
X034867Y031281D01*
X034867Y031321D02*
X034631Y031321D01*
X034631Y031361D02*
X034867Y031361D01*
X034867Y031401D02*
X034631Y031401D01*
X034631Y031441D02*
X034867Y031441D01*
X034867Y031481D02*
X034631Y031481D01*
X034631Y031521D02*
X034867Y031521D01*
X034867Y031561D02*
X034631Y031561D01*
X034631Y031601D02*
X034867Y031601D01*
X034867Y031641D02*
X034631Y031641D01*
X034631Y031681D02*
X034867Y031681D01*
X034867Y031721D02*
X034631Y031721D01*
X034631Y031761D02*
X034867Y031761D01*
X034867Y031801D02*
X034631Y031801D01*
X034631Y031841D02*
X034867Y031841D01*
X034867Y031881D02*
X034631Y031881D01*
X035131Y031041D02*
X035367Y031041D01*
X035131Y031041D02*
X035131Y031907D01*
X035367Y031907D01*
X035367Y031041D01*
X035367Y031081D02*
X035131Y031081D01*
X035131Y031121D02*
X035367Y031121D01*
X035367Y031161D02*
X035131Y031161D01*
X035131Y031201D02*
X035367Y031201D01*
X035367Y031241D02*
X035131Y031241D01*
X035131Y031281D02*
X035367Y031281D01*
X035367Y031321D02*
X035131Y031321D01*
X035131Y031361D02*
X035367Y031361D01*
X035367Y031401D02*
X035131Y031401D01*
X035131Y031441D02*
X035367Y031441D01*
X035367Y031481D02*
X035131Y031481D01*
X035131Y031521D02*
X035367Y031521D01*
X035367Y031561D02*
X035131Y031561D01*
X035131Y031601D02*
X035367Y031601D01*
X035367Y031641D02*
X035131Y031641D01*
X035131Y031681D02*
X035367Y031681D01*
X035367Y031721D02*
X035131Y031721D01*
X035131Y031761D02*
X035367Y031761D01*
X035367Y031801D02*
X035131Y031801D01*
X035131Y031841D02*
X035367Y031841D01*
X035367Y031881D02*
X035131Y031881D01*
X035631Y031041D02*
X035867Y031041D01*
X035631Y031041D02*
X035631Y031907D01*
X035867Y031907D01*
X035867Y031041D01*
X035867Y031081D02*
X035631Y031081D01*
X035631Y031121D02*
X035867Y031121D01*
X035867Y031161D02*
X035631Y031161D01*
X035631Y031201D02*
X035867Y031201D01*
X035867Y031241D02*
X035631Y031241D01*
X035631Y031281D02*
X035867Y031281D01*
X035867Y031321D02*
X035631Y031321D01*
X035631Y031361D02*
X035867Y031361D01*
X035867Y031401D02*
X035631Y031401D01*
X035631Y031441D02*
X035867Y031441D01*
X035867Y031481D02*
X035631Y031481D01*
X035631Y031521D02*
X035867Y031521D01*
X035867Y031561D02*
X035631Y031561D01*
X035631Y031601D02*
X035867Y031601D01*
X035867Y031641D02*
X035631Y031641D01*
X035631Y031681D02*
X035867Y031681D01*
X035867Y031721D02*
X035631Y031721D01*
X035631Y031761D02*
X035867Y031761D01*
X035867Y031801D02*
X035631Y031801D01*
X035631Y031841D02*
X035867Y031841D01*
X035867Y031881D02*
X035631Y031881D01*
D35*
X036191Y028360D02*
X036191Y027592D01*
X035207Y027592D01*
X035207Y028360D01*
X036191Y028360D01*
X036191Y027631D02*
X035207Y027631D01*
X035207Y027670D02*
X036191Y027670D01*
X036191Y027709D02*
X035207Y027709D01*
X035207Y027748D02*
X036191Y027748D01*
X036191Y027787D02*
X035207Y027787D01*
X035207Y027826D02*
X036191Y027826D01*
X036191Y027865D02*
X035207Y027865D01*
X035207Y027904D02*
X036191Y027904D01*
X036191Y027943D02*
X035207Y027943D01*
X035207Y027982D02*
X036191Y027982D01*
X036191Y028021D02*
X035207Y028021D01*
X035207Y028060D02*
X036191Y028060D01*
X036191Y028099D02*
X035207Y028099D01*
X035207Y028138D02*
X036191Y028138D01*
X036191Y028177D02*
X035207Y028177D01*
X035207Y028216D02*
X036191Y028216D01*
X036191Y028255D02*
X035207Y028255D01*
X035207Y028294D02*
X036191Y028294D01*
X036191Y028333D02*
X035207Y028333D01*
X036191Y027159D02*
X036191Y026391D01*
X035207Y026391D01*
X035207Y027159D01*
X036191Y027159D01*
X036191Y026430D02*
X035207Y026430D01*
X035207Y026469D02*
X036191Y026469D01*
X036191Y026508D02*
X035207Y026508D01*
X035207Y026547D02*
X036191Y026547D01*
X036191Y026586D02*
X035207Y026586D01*
X035207Y026625D02*
X036191Y026625D01*
X036191Y026664D02*
X035207Y026664D01*
X035207Y026703D02*
X036191Y026703D01*
X036191Y026742D02*
X035207Y026742D01*
X035207Y026781D02*
X036191Y026781D01*
X036191Y026820D02*
X035207Y026820D01*
X035207Y026859D02*
X036191Y026859D01*
X036191Y026898D02*
X035207Y026898D01*
X035207Y026937D02*
X036191Y026937D01*
X036191Y026976D02*
X035207Y026976D01*
X035207Y027015D02*
X036191Y027015D01*
X036191Y027054D02*
X035207Y027054D01*
X035207Y027093D02*
X036191Y027093D01*
X036191Y027132D02*
X035207Y027132D01*
D36*
X016024Y035851D03*
X015024Y035851D03*
X014024Y035851D03*
X013024Y035851D03*
X012124Y033451D03*
X011124Y033451D03*
X010124Y033451D03*
X009124Y033451D03*
X009124Y030451D03*
X010124Y030451D03*
X011124Y030451D03*
X012124Y030451D03*
X013024Y038851D03*
X014024Y038851D03*
X015024Y038851D03*
X016024Y038851D03*
D37*
X006933Y027020D03*
D38*
X006933Y028110D03*
X006933Y029201D03*
X006933Y030291D03*
X006933Y031382D03*
X005815Y030835D03*
X005815Y029744D03*
X005815Y028657D03*
X005815Y027567D03*
D39*
X006374Y024280D03*
X006374Y034122D03*
D40*
X016624Y033821D03*
X016624Y029081D03*
D41*
X015557Y030959D03*
X014770Y030959D03*
X014770Y031943D03*
X015557Y031943D03*
D42*
X012874Y029701D03*
D43*
X012874Y028701D03*
D44*
X010874Y027701D03*
X009874Y023701D03*
X011874Y023701D03*
X027524Y037951D03*
X029524Y037951D03*
X028524Y033951D03*
D45*
X026024Y030393D02*
X026024Y029508D01*
X026024Y024393D02*
X026024Y023508D01*
D46*
X021889Y031530D02*
X021167Y031530D01*
X021889Y031530D02*
X021889Y029372D01*
X021167Y029372D01*
X021167Y031530D01*
X021167Y029417D02*
X021889Y029417D01*
X021889Y029462D02*
X021167Y029462D01*
X021167Y029507D02*
X021889Y029507D01*
X021889Y029552D02*
X021167Y029552D01*
X021167Y029597D02*
X021889Y029597D01*
X021889Y029642D02*
X021167Y029642D01*
X021167Y029687D02*
X021889Y029687D01*
X021889Y029732D02*
X021167Y029732D01*
X021167Y029777D02*
X021889Y029777D01*
X021889Y029822D02*
X021167Y029822D01*
X021167Y029867D02*
X021889Y029867D01*
X021889Y029912D02*
X021167Y029912D01*
X021167Y029957D02*
X021889Y029957D01*
X021889Y030002D02*
X021167Y030002D01*
X021167Y030047D02*
X021889Y030047D01*
X021889Y030092D02*
X021167Y030092D01*
X021167Y030137D02*
X021889Y030137D01*
X021889Y030182D02*
X021167Y030182D01*
X021167Y030227D02*
X021889Y030227D01*
X021889Y030272D02*
X021167Y030272D01*
X021167Y030317D02*
X021889Y030317D01*
X021889Y030362D02*
X021167Y030362D01*
X021167Y030407D02*
X021889Y030407D01*
X021889Y030452D02*
X021167Y030452D01*
X021167Y030497D02*
X021889Y030497D01*
X021889Y030542D02*
X021167Y030542D01*
X021167Y030587D02*
X021889Y030587D01*
X021889Y030632D02*
X021167Y030632D01*
X021167Y030677D02*
X021889Y030677D01*
X021889Y030722D02*
X021167Y030722D01*
X021167Y030767D02*
X021889Y030767D01*
X021889Y030812D02*
X021167Y030812D01*
X021167Y030857D02*
X021889Y030857D01*
X021889Y030902D02*
X021167Y030902D01*
X021167Y030947D02*
X021889Y030947D01*
X021889Y030992D02*
X021167Y030992D01*
X021167Y031037D02*
X021889Y031037D01*
X021889Y031082D02*
X021167Y031082D01*
X021167Y031127D02*
X021889Y031127D01*
X021889Y031172D02*
X021167Y031172D01*
X021167Y031217D02*
X021889Y031217D01*
X021889Y031262D02*
X021167Y031262D01*
X021167Y031307D02*
X021889Y031307D01*
X021889Y031352D02*
X021167Y031352D01*
X021167Y031397D02*
X021889Y031397D01*
X021889Y031442D02*
X021167Y031442D01*
X021167Y031487D02*
X021889Y031487D01*
X019881Y031530D02*
X019159Y031530D01*
X019881Y031530D02*
X019881Y029372D01*
X019159Y029372D01*
X019159Y031530D01*
X019159Y029417D02*
X019881Y029417D01*
X019881Y029462D02*
X019159Y029462D01*
X019159Y029507D02*
X019881Y029507D01*
X019881Y029552D02*
X019159Y029552D01*
X019159Y029597D02*
X019881Y029597D01*
X019881Y029642D02*
X019159Y029642D01*
X019159Y029687D02*
X019881Y029687D01*
X019881Y029732D02*
X019159Y029732D01*
X019159Y029777D02*
X019881Y029777D01*
X019881Y029822D02*
X019159Y029822D01*
X019159Y029867D02*
X019881Y029867D01*
X019881Y029912D02*
X019159Y029912D01*
X019159Y029957D02*
X019881Y029957D01*
X019881Y030002D02*
X019159Y030002D01*
X019159Y030047D02*
X019881Y030047D01*
X019881Y030092D02*
X019159Y030092D01*
X019159Y030137D02*
X019881Y030137D01*
X019881Y030182D02*
X019159Y030182D01*
X019159Y030227D02*
X019881Y030227D01*
X019881Y030272D02*
X019159Y030272D01*
X019159Y030317D02*
X019881Y030317D01*
X019881Y030362D02*
X019159Y030362D01*
X019159Y030407D02*
X019881Y030407D01*
X019881Y030452D02*
X019159Y030452D01*
X019159Y030497D02*
X019881Y030497D01*
X019881Y030542D02*
X019159Y030542D01*
X019159Y030587D02*
X019881Y030587D01*
X019881Y030632D02*
X019159Y030632D01*
X019159Y030677D02*
X019881Y030677D01*
X019881Y030722D02*
X019159Y030722D01*
X019159Y030767D02*
X019881Y030767D01*
X019881Y030812D02*
X019159Y030812D01*
X019159Y030857D02*
X019881Y030857D01*
X019881Y030902D02*
X019159Y030902D01*
X019159Y030947D02*
X019881Y030947D01*
X019881Y030992D02*
X019159Y030992D01*
X019159Y031037D02*
X019881Y031037D01*
X019881Y031082D02*
X019159Y031082D01*
X019159Y031127D02*
X019881Y031127D01*
X019881Y031172D02*
X019159Y031172D01*
X019159Y031217D02*
X019881Y031217D01*
X019881Y031262D02*
X019159Y031262D01*
X019159Y031307D02*
X019881Y031307D01*
X019881Y031352D02*
X019159Y031352D01*
X019159Y031397D02*
X019881Y031397D01*
X019881Y031442D02*
X019159Y031442D01*
X019159Y031487D02*
X019881Y031487D01*
D47*
X020025Y027671D02*
X019023Y027671D01*
X019023Y028731D01*
X020025Y028731D01*
X020025Y027671D01*
X020025Y027712D02*
X019023Y027712D01*
X019023Y027753D02*
X020025Y027753D01*
X020025Y027794D02*
X019023Y027794D01*
X019023Y027835D02*
X020025Y027835D01*
X020025Y027876D02*
X019023Y027876D01*
X019023Y027917D02*
X020025Y027917D01*
X020025Y027958D02*
X019023Y027958D01*
X019023Y027999D02*
X020025Y027999D01*
X020025Y028040D02*
X019023Y028040D01*
X019023Y028081D02*
X020025Y028081D01*
X020025Y028122D02*
X019023Y028122D01*
X019023Y028163D02*
X020025Y028163D01*
X020025Y028204D02*
X019023Y028204D01*
X019023Y028245D02*
X020025Y028245D01*
X020025Y028286D02*
X019023Y028286D01*
X019023Y028327D02*
X020025Y028327D01*
X020025Y028368D02*
X019023Y028368D01*
X019023Y028409D02*
X020025Y028409D01*
X020025Y028450D02*
X019023Y028450D01*
X019023Y028491D02*
X020025Y028491D01*
X020025Y028532D02*
X019023Y028532D01*
X019023Y028573D02*
X020025Y028573D01*
X020025Y028614D02*
X019023Y028614D01*
X019023Y028655D02*
X020025Y028655D01*
X020025Y028696D02*
X019023Y028696D01*
X021523Y027671D02*
X022525Y027671D01*
X021523Y027671D02*
X021523Y028731D01*
X022525Y028731D01*
X022525Y027671D01*
X022525Y027712D02*
X021523Y027712D01*
X021523Y027753D02*
X022525Y027753D01*
X022525Y027794D02*
X021523Y027794D01*
X021523Y027835D02*
X022525Y027835D01*
X022525Y027876D02*
X021523Y027876D01*
X021523Y027917D02*
X022525Y027917D01*
X022525Y027958D02*
X021523Y027958D01*
X021523Y027999D02*
X022525Y027999D01*
X022525Y028040D02*
X021523Y028040D01*
X021523Y028081D02*
X022525Y028081D01*
X022525Y028122D02*
X021523Y028122D01*
X021523Y028163D02*
X022525Y028163D01*
X022525Y028204D02*
X021523Y028204D01*
X021523Y028245D02*
X022525Y028245D01*
X022525Y028286D02*
X021523Y028286D01*
X021523Y028327D02*
X022525Y028327D01*
X022525Y028368D02*
X021523Y028368D01*
X021523Y028409D02*
X022525Y028409D01*
X022525Y028450D02*
X021523Y028450D01*
X021523Y028491D02*
X022525Y028491D01*
X022525Y028532D02*
X021523Y028532D01*
X021523Y028573D02*
X022525Y028573D01*
X022525Y028614D02*
X021523Y028614D01*
X021523Y028655D02*
X022525Y028655D01*
X022525Y028696D02*
X021523Y028696D01*
M02*
