G75*
G70*
%OFA0B0*%
%FSLAX24Y24*%
%IPPOS*%
%LPD*%
%AMOC8*
5,1,8,0,0,1.08239X$1,22.5*
%
%ADD10R,0.0512X0.0591*%
%ADD11R,0.0591X0.0512*%
%ADD12R,0.0512X0.0630*%
%ADD13R,0.0787X0.0630*%
%ADD14R,0.0866X0.0236*%
%ADD15R,0.0600X0.0300*%
%ADD16R,0.0551X0.0394*%
%ADD17R,0.0827X0.0591*%
%ADD18R,0.0472X0.0315*%
%ADD19R,0.2441X0.2126*%
%ADD20R,0.0630X0.0394*%
%ADD21R,0.0591X0.0827*%
%ADD22R,0.0630X0.1063*%
%ADD23R,0.0260X0.0800*%
%ADD24R,0.0236X0.0866*%
%ADD25R,0.0591X0.0472*%
%ADD26R,0.0350X0.1200*%
%ADD27C,0.0217*%
%ADD28R,0.0728X0.2165*%
%ADD29R,0.2165X0.0728*%
%ADD30R,0.1516X0.2165*%
%ADD31R,0.1004X0.1063*%
%ADD32R,0.0630X0.0138*%
%ADD33R,0.0618X0.0744*%
D10*
X015200Y014026D03*
X015948Y014026D03*
X017025Y015101D03*
X017773Y015101D03*
X018425Y015126D03*
X019173Y015126D03*
X019875Y015626D03*
X020623Y015626D03*
X020950Y012801D03*
X021698Y012801D03*
X022800Y012201D03*
X023548Y012201D03*
X023548Y011201D03*
X022800Y011201D03*
X028250Y012751D03*
X028998Y012751D03*
X036250Y005101D03*
X036998Y005101D03*
X038850Y002951D03*
X039598Y002951D03*
X035748Y001351D03*
X035000Y001351D03*
D11*
X038424Y001477D03*
X038424Y002225D03*
X039174Y002225D03*
X039174Y001477D03*
X023074Y008477D03*
X023074Y009225D03*
X015624Y014752D03*
X015624Y015500D03*
X014599Y015552D03*
X014599Y016300D03*
X034999Y028827D03*
X034999Y029575D03*
X035749Y029575D03*
X035749Y028827D03*
X035749Y030452D03*
X035749Y031200D03*
X034999Y031200D03*
X034999Y030452D03*
X007374Y036077D03*
X007374Y036825D03*
X006624Y036825D03*
X006624Y036077D03*
D12*
X036622Y001905D03*
X037626Y001905D03*
X040422Y001880D03*
X041426Y001880D03*
D13*
X040924Y003022D03*
X037124Y003047D03*
D14*
X038101Y003751D03*
X038101Y004251D03*
X038101Y004751D03*
X038101Y005251D03*
X040148Y005251D03*
X040148Y004751D03*
X040148Y004251D03*
X040148Y003751D03*
D15*
X012839Y010834D03*
X012839Y011334D03*
X012839Y011834D03*
X012839Y012334D03*
X011339Y012334D03*
X011339Y011834D03*
X011339Y011334D03*
X011339Y010834D03*
D16*
X023291Y014777D03*
X023291Y015525D03*
X024157Y015151D03*
D17*
X007124Y008584D03*
X007124Y007167D03*
X041124Y005159D03*
X041124Y003742D03*
D18*
X028974Y013921D03*
X028974Y014630D03*
D19*
X013640Y008001D03*
D20*
X016514Y008898D03*
X016514Y007103D03*
D21*
X017666Y016251D03*
X019083Y016251D03*
D22*
X004573Y006301D03*
X005676Y006301D03*
X005676Y007501D03*
X004573Y007501D03*
D23*
X036374Y028991D03*
X036874Y028991D03*
X037374Y028991D03*
X037874Y028991D03*
X038374Y028991D03*
X038874Y028991D03*
X039374Y028991D03*
X039874Y028991D03*
X039874Y031411D03*
X039374Y031411D03*
X038874Y031411D03*
X038374Y031411D03*
X037874Y031411D03*
X037374Y031411D03*
X036874Y031411D03*
X036374Y031411D03*
D24*
X036124Y026974D03*
X035624Y026974D03*
X036624Y026974D03*
X037124Y026974D03*
X037624Y026974D03*
X038124Y026974D03*
X038624Y026974D03*
X038624Y024927D03*
X038124Y024927D03*
X037624Y024927D03*
X037124Y024927D03*
X036624Y024927D03*
X036124Y024927D03*
X035624Y024927D03*
D25*
X005741Y036201D03*
X003969Y036201D03*
D26*
X022274Y032701D03*
X022774Y032701D03*
X023274Y032701D03*
X023774Y032701D03*
X024274Y032701D03*
X024774Y032701D03*
X025274Y032701D03*
D27*
X022006Y027333D02*
X022006Y025069D01*
X022006Y027333D02*
X022656Y027333D01*
X022656Y025069D01*
X022006Y025069D01*
X022006Y025285D02*
X022656Y025285D01*
X022656Y025501D02*
X022006Y025501D01*
X022006Y025717D02*
X022656Y025717D01*
X022656Y025933D02*
X022006Y025933D01*
X022006Y026149D02*
X022656Y026149D01*
X022656Y026365D02*
X022006Y026365D01*
X022006Y026581D02*
X022656Y026581D01*
X022656Y026797D02*
X022006Y026797D01*
X022006Y027013D02*
X022656Y027013D01*
X022656Y027229D02*
X022006Y027229D01*
X021042Y027333D02*
X021042Y025069D01*
X020392Y025069D01*
X020392Y027333D01*
X021042Y027333D01*
X021042Y025285D02*
X020392Y025285D01*
X020392Y025501D02*
X021042Y025501D01*
X021042Y025717D02*
X020392Y025717D01*
X020392Y025933D02*
X021042Y025933D01*
X021042Y026149D02*
X020392Y026149D01*
X020392Y026365D02*
X021042Y026365D01*
X021042Y026581D02*
X020392Y026581D01*
X020392Y026797D02*
X021042Y026797D01*
X021042Y027013D02*
X020392Y027013D01*
X020392Y027229D02*
X021042Y027229D01*
D28*
X021278Y030201D03*
X019270Y030201D03*
D29*
X028274Y029697D03*
X028274Y031705D03*
D30*
X023483Y026201D03*
X019566Y026201D03*
D31*
X019524Y029951D03*
X022024Y029951D03*
D32*
X015331Y036967D03*
X015331Y037223D03*
X015331Y037479D03*
X015331Y037735D03*
X013717Y037735D03*
X013717Y037479D03*
X013717Y037223D03*
X013717Y036967D03*
D33*
X014524Y037351D03*
M02*
